<?xml version="1.0" ?><svg id="Layer_1" style="enable-background:new 0 0 30 30;" version="1.1" viewBox="0 0 30 30" xml:space="preserve" xmlns="http://www.w3.org/2000/svg" xmlns:xlink="http://www.w3.org/1999/xlink"><style type="text/css">
	.st0{fill:#F39C11;}
	.st1{fill:#FABE3A;}
	.st2{fill:#342000;}
</style><g><path class="st0" d="M14.855,1.227c0.554,0.823,1.641,2.562,2.162,4.258c-0.139,0.137-0.247,0.268-0.365,0.401   c-0.071,0.079-0.155,0.162-0.219,0.24c-0.196,0.24-0.365,0.476-0.499,0.709c-0.129,0.223-0.232,0.465-0.325,0.718   c-0.011,0.031-0.029,0.056-0.039,0.087c-0.513-0.039-1.036-0.023-1.585,0.053c-0.111-0.355-0.248-0.673-0.417-0.965   c-0.214-0.371-0.509-0.753-0.88-1.139C13.252,3.864,14.318,2.073,14.855,1.227z"/><path class="st0" d="M27.229,7.912c-0.454,0.962-1.46,2.911-2.732,4.277c-0.201-0.07-0.379-0.111-0.566-0.162   c-0.111-0.031-0.232-0.073-0.339-0.097c-0.326-0.075-0.634-0.125-0.92-0.141c-0.274-0.017-0.552,0.002-0.835,0.037   c-0.034,0.004-0.246,0.05-0.281,0.055c-0.242-0.529-0.561-1.07-0.928-1.578c0.266-0.288,0.683-0.605,0.859-0.918   c0.224-0.398,0.242-0.889,0.395-1.45C23.77,7.633,26.163,7.802,27.229,7.912z"/><path class="st0" d="M2.667,8.129C3.663,7.916,5.733,8,7.512,8.175C7.575,8.368,7.647,8.528,7.716,8.7   c0.041,0.103,0.079,0.219,0.123,0.314C7.972,9.306,8.112,9.57,8.266,9.797c0.147,0.219,0.322,0.42,0.513,0.614   c0.023,0.024,0.181,0.158,0.205,0.181c-0.262,0.492-0.489,1.049-0.662,1.623c-0.374-0.035-0.857-0.169-1.198-0.121   c-0.433,0.061-0.817,0.332-1.334,0.542C4.464,11.376,3.203,9.005,2.667,8.129z"/><path class="st0" d="M3.148,22.204c0.317-0.968,1.43-2.715,2.476-4.164c0.199,0.042,0.374,0.06,0.557,0.087   c0.109,0.016,0.229,0.041,0.333,0.052c0.319,0.032,0.617,0.043,0.891,0.025c0.263-0.017,0.525-0.068,0.789-0.134   c0.032-0.008,0.228-0.077,0.26-0.086c0.294,0.474,0.661,0.95,1.07,1.389c-0.218,0.305-0.577,0.656-0.707,0.975   c-0.165,0.405-0.124,0.873-0.202,1.425C6.858,22.283,4.175,22.182,3.148,22.204z"/><path class="st0" d="M15.054,28.997c-0.647-0.787-1.525-2.663-2.188-4.322c0.142-0.146,0.251-0.283,0.372-0.424   c0.072-0.084,0.158-0.171,0.223-0.254c0.198-0.252,0.367-0.498,0.499-0.739c0.127-0.231,0.224-0.479,0.309-0.738   c0.01-0.031,0.057-0.234,0.067-0.266c0.557,0.006,1.156-0.048,1.746-0.159c0.141,0.348,0.244,0.839,0.444,1.12   c0.253,0.356,0.671,0.573,1.094,0.935C17.11,25.908,15.586,28.118,15.054,28.997z"/><path class="st0" d="M27.086,21.812c-0.998,0.205-3.067,0.104-4.844-0.085c-0.062-0.194-0.133-0.354-0.201-0.527   c-0.04-0.103-0.078-0.22-0.12-0.315c-0.13-0.293-0.269-0.558-0.42-0.786c-0.145-0.22-0.319-0.422-0.508-0.618   c-0.023-0.024-0.18-0.16-0.204-0.183c0.266-0.49,0.497-1.045,0.676-1.618c0.373,0.038,0.856,0.176,1.197,0.131   c0.433-0.057,0.82-0.326,1.338-0.531C25.316,18.55,26.558,20.931,27.086,21.812z"/><path class="st1" d="M12.079,5.893L12.079,5.893c0.176,0.172,0.326,0.335,0.463,0.497c0.039,0.047,0.071,0.093,0.108,0.14   c0.091,0.115,0.176,0.231,0.25,0.348c0.038,0.06,0.072,0.121,0.106,0.182c0.061,0.108,0.117,0.219,0.167,0.334   c0.03,0.069,0.06,0.139,0.087,0.212c0.015,0.04,0.026,0.085,0.04,0.125c-0.438,0.107-0.859,0.248-1.257,0.423l0,0l0,0   c-0.265,0.117-0.528,0.246-0.785,0.395c-0.373,0.217-0.73,0.469-1.089,0.77c-0.026,0.016-0.052,0.035-0.075,0.057   c-0.002,0.001-0.004,0.002-0.005,0.003c-0.011,0.011-0.022,0.022-0.031,0.034c-0.307,0.267-0.582,0.561-0.84,0.867   C8.806,9.768,8.546,9.198,8.33,8.35c0,0,0-0.001,0-0.001L8.296,8.21l0-0.001c0-0.001,0-0.002,0-0.002   c-0.43-1.808-0.407-4.018-0.366-5.056C8.855,3.601,10.78,4.621,12.079,5.893z"/><path class="st1" d="M21.656,8.064L21.656,8.064c-0.073,0.253-0.15,0.479-0.233,0.69c-0.024,0.061-0.052,0.115-0.077,0.173   c-0.063,0.144-0.128,0.283-0.201,0.413c-0.037,0.066-0.078,0.13-0.118,0.193c-0.071,0.112-0.147,0.222-0.23,0.327   c-0.05,0.064-0.101,0.128-0.156,0.19c-0.03,0.034-0.066,0.068-0.098,0.101c-0.324-0.359-0.671-0.684-1.039-0.97l0,0l0,0   c-0.245-0.191-0.501-0.373-0.772-0.539c-0.395-0.242-0.814-0.45-1.282-0.636c-0.028-0.017-0.06-0.031-0.092-0.041   c-0.002-0.001-0.004-0.003-0.006-0.003c-0.016-0.005-0.032-0.009-0.048-0.012c-0.408-0.154-0.826-0.264-1.245-0.352   c0.274-0.651,0.679-1.186,1.37-1.822l0.001,0l0.114-0.104l0.001-0.001c0.001-0.001,0.001-0.001,0.001-0.001   c1.488-1.326,3.584-2.43,4.584-2.919C22.177,3.855,22.195,6.19,21.656,8.064z"/><path class="st1" d="M24.047,17.19L24.047,17.19c-0.273,0.047-0.52,0.078-0.758,0.096c-0.069,0.005-0.132,0.004-0.198,0.007   c-0.165,0.007-0.326,0.009-0.482,0c-0.079-0.005-0.158-0.014-0.236-0.023c-0.138-0.016-0.277-0.038-0.414-0.067   c-0.083-0.018-0.167-0.037-0.251-0.06c-0.046-0.013-0.094-0.032-0.141-0.046c0.191-0.47,0.338-0.947,0.44-1.425l0,0l0,0   c0.068-0.319,0.122-0.643,0.155-0.976c0.048-0.483,0.052-0.975,0.013-1.5c0.003-0.034,0.002-0.07-0.003-0.106   c0-0.002,0.001-0.005,0-0.007c-0.003-0.017-0.006-0.034-0.011-0.051c-0.041-0.456-0.484-0.906-0.594-1.343   c0.74-0.039,1.785,0.104,2.701,0.465l0.001,0.001l0.15,0.06c0.001,0,0.001,0,0.002,0l0.001,0.001   c1.933,0.796,4.294,1.886,5.215,2.605C28.617,15.371,26.062,16.841,24.047,17.19z"/><path class="st1" d="M17.453,23.835L17.453,23.835c-0.183-0.19-0.339-0.369-0.481-0.547c-0.041-0.051-0.074-0.102-0.111-0.153   c-0.094-0.126-0.181-0.253-0.258-0.381c-0.039-0.065-0.073-0.132-0.108-0.199c-0.062-0.118-0.118-0.238-0.169-0.363   c-0.03-0.075-0.06-0.151-0.087-0.23c-0.015-0.043-0.025-0.091-0.039-0.135c0.473-0.101,0.928-0.24,1.36-0.415l0,0l0,0   c0.288-0.117,0.573-0.247,0.853-0.399c0.407-0.221,0.797-0.48,1.191-0.792c0.029-0.016,0.056-0.036,0.082-0.059   c0.002-0.002,0.004-0.002,0.006-0.004c0.012-0.011,0.024-0.023,0.034-0.036c0.337-0.276,0.456-0.867,0.742-1.187   c0.427,0.563,0.872,1.465,1.078,2.381l0,0.002l0.033,0.15l0.001,0.001c0,0,0,0.001,0,0.002c0.405,1.951,0.808,4.397,0.732,5.508   C21.333,26.469,18.806,25.238,17.453,23.835z"/><path class="st1" d="M8.378,21.905L8.378,21.905c0.077-0.252,0.158-0.476,0.245-0.686c0.025-0.061,0.054-0.114,0.08-0.172   c0.065-0.143,0.133-0.281,0.208-0.41c0.038-0.066,0.08-0.128,0.121-0.191c0.073-0.111,0.151-0.219,0.236-0.323   c0.051-0.063,0.103-0.126,0.159-0.187c0.031-0.034,0.068-0.066,0.1-0.1c0.317,0.365,0.66,0.696,1.022,0.988l0,0l0,0   c0.242,0.195,0.494,0.381,0.763,0.552c0.39,0.249,0.806,0.464,1.27,0.658c0.028,0.017,0.059,0.032,0.091,0.043   c0.002,0.001,0.004,0.003,0.006,0.003c0.016,0.005,0.032,0.01,0.048,0.013c0.405,0.161,0.98-0.021,1.398,0.074   c-0.285,0.646-0.858,1.473-1.56,2.097l-0.001,0.001l-0.115,0.101c0,0-0.001,0.001-0.001,0.001c0,0-0.001,0-0.002,0.001   c-1.51,1.3-3.455,2.838-4.463,3.31C7.955,26.575,7.806,23.769,8.378,21.905z"/><path class="st1" d="M5.877,12.689L5.877,12.689c0.258-0.055,0.493-0.093,0.718-0.119c0.065-0.008,0.126-0.009,0.189-0.014   c0.157-0.013,0.31-0.02,0.459-0.018c0.076,0.001,0.151,0.008,0.226,0.013c0.133,0.01,0.265,0.026,0.397,0.049   c0.08,0.014,0.16,0.029,0.241,0.048c0.044,0.01,0.091,0.027,0.136,0.039c-0.164,0.455-0.287,0.915-0.367,1.374l0,0l0,0   c-0.053,0.306-0.093,0.617-0.112,0.935c-0.028,0.462-0.013,0.93,0.043,1.43c-0.001,0.033,0.001,0.067,0.007,0.101   c0,0.002,0,0.004,0,0.007c0.003,0.016,0.007,0.032,0.012,0.048c0.056,0.433,0.495,0.846,0.615,1.257   c-0.703,0.065-1.705-0.034-2.591-0.343c-0.001,0-0.001-0.001-0.001-0.001l-0.145-0.052c-0.001,0-0.001,0-0.002,0l-0.002-0.001   c-1.87-0.687-4.16-1.639-5.063-2.29C1.59,14.591,3.97,13.096,5.877,12.689z"/><circle class="st2" cx="15.016" cy="14.958" r="6.829"/><ellipse cx="20.853" cy="15.902" rx="0.492" ry="0.492" transform="matrix(0.9649 -0.2624 0.2624 0.9649 -3.4425 6.0303)"/><ellipse cx="14.022" cy="13.289" rx="0.492" ry="0.492" transform="matrix(0.5 -0.866 0.866 0.5 -4.4977 18.7874)"/><ellipse cx="12.447" cy="14.508" rx="0.492" ry="0.492" transform="matrix(0.5 -0.866 0.866 0.5 -6.3413 18.0333)"/><ellipse cx="12.289" cy="16.291" rx="0.492" ry="0.492" transform="matrix(0.5 -0.866 0.866 0.5 -7.9637 18.788)"/><ellipse cx="11.821" cy="18.3" rx="0.492" ry="0.492" transform="matrix(0.5 -0.866 0.866 0.5 -9.9375 19.3874)"/><ellipse cx="13.295" cy="10.208" rx="0.492" ry="0.492" transform="matrix(0.5 -0.866 0.866 0.5 -2.1931 16.618)"/><ellipse cx="12.08" cy="9.789" rx="0.492" ry="0.492" transform="matrix(0.5 -0.866 0.866 0.5 -2.4381 15.3559)"/><ellipse cx="14.229" cy="11.223" rx="0.492" ry="0.492" transform="matrix(0.5 -0.866 0.866 0.5 -2.6052 17.9339)"/><ellipse cx="11.33" cy="10.806" rx="0.492" ry="0.492" transform="matrix(0.5 -0.866 0.866 0.5 -3.6933 15.2141)"/><ellipse cx="10.592" cy="15.312" rx="0.492" ry="0.492" transform="matrix(0.5 -0.866 0.866 0.5 -7.9641 16.8291)"/><ellipse cx="15.79" cy="12.132" rx="0.492" ry="0.492" transform="matrix(0.9649 -0.2625 0.2625 0.9649 -2.6307 4.5695)"/><ellipse cx="18.859" cy="13.263" rx="0.492" ry="0.492" transform="matrix(0.9649 -0.2624 0.2624 0.9649 -2.8198 5.4145)"/><ellipse cx="15.612" cy="14.483" rx="0.492" ry="0.492" transform="matrix(0.9649 -0.2624 0.2624 0.9649 -3.2536 4.6049)"/><ellipse cx="16.237" cy="13.289" rx="0.492" ry="0.492" transform="matrix(0.9649 -0.2624 0.2624 0.9649 -2.9185 4.7271)"/><ellipse cx="15.612" cy="16.021" rx="0.492" ry="0.492" transform="matrix(0.9649 -0.2624 0.2624 0.9649 -3.6575 4.6588)"/><ellipse cx="16.728" cy="15.449" rx="0.492" ry="0.492" transform="matrix(0.965 -0.2624 0.2624 0.965 -3.4676 4.9306)"/><ellipse cx="17.324" cy="11.715" rx="0.492" ry="0.492" transform="matrix(0.9649 -0.2624 0.2624 0.9649 -2.4672 4.9573)"/><ellipse cx="15.612" cy="9.789" rx="0.492" ry="0.492" transform="matrix(0.9649 -0.2624 0.2624 0.9649 -2.0219 4.4403)"/><ellipse cx="17.324" cy="14.017" rx="0.492" ry="0.492" transform="matrix(0.9649 -0.2624 0.2624 0.9649 -3.0713 5.038)"/><ellipse cx="18.465" cy="15.312" rx="0.492" ry="0.492" transform="matrix(0.9649 -0.2624 0.2624 0.9649 -3.3712 5.3829)"/><ellipse cx="19.67" cy="15" rx="0.492" ry="0.492" transform="matrix(0.9649 -0.2624 0.2624 0.9649 -3.2472 5.6881)"/><ellipse cx="18.307" cy="16.68" rx="0.492" ry="0.492" transform="matrix(0.9649 -0.2624 0.2624 0.9649 -3.7357 5.3894)"/><ellipse cx="19.743" cy="16.513" rx="0.492" ry="0.492" transform="matrix(0.9649 -0.2624 0.2624 0.9649 -3.6417 5.7603)"/><ellipse cx="20.555" cy="14.157" rx="0.492" ry="0.492" transform="matrix(0.9649 -0.2625 0.2625 0.9649 -2.995 5.8912)"/><ellipse cx="14.229" cy="9.014" rx="0.492" ry="0.492" transform="matrix(0.9649 -0.2624 0.2624 0.9649 -1.8668 4.0502)"/><ellipse cx="20.123" cy="12.584" rx="0.492" ry="0.492" transform="matrix(0.4092 -0.9125 0.9125 0.4092 0.4068 25.796)"/><ellipse cx="18.859" cy="11.297" rx="0.492" ry="0.492" transform="matrix(0.9649 -0.2624 0.2624 0.9649 -2.3039 5.3456)"/><ellipse cx="17.324" cy="9.789" rx="0.492" ry="0.492" transform="matrix(0.9649 -0.2624 0.2624 0.9649 -1.9619 4.8898)"/><ellipse cx="14.138" cy="15.902" rx="0.492" ry="0.492" transform="matrix(0.9649 -0.2624 0.2624 0.9649 -3.6779 4.2678)"/><ellipse cx="13.358" cy="17.402" rx="0.492" ry="0.492" transform="matrix(0.9649 -0.2624 0.2624 0.9649 -4.099 4.1157)"/><ellipse cx="13.85" cy="14.649" rx="0.492" ry="0.492" transform="matrix(0.9649 -0.2624 0.2624 0.9649 -3.359 4.1482)"/><ellipse cx="15.066" cy="17.894" rx="0.492" ry="0.492" transform="matrix(0.9649 -0.2624 0.2624 0.9649 -4.1681 4.5813)"/><ellipse cx="10.101" cy="17.171" rx="0.492" ry="0.492" transform="matrix(0.9649 -0.2624 0.2624 0.9649 -4.1525 3.2528)"/><ellipse cx="16.103" cy="19.749" rx="0.492" ry="0.492" transform="matrix(0.9649 -0.2624 0.2624 0.9649 -4.6186 4.9185)"/><ellipse cx="17.816" cy="20.241" rx="0.492" ry="0.492" transform="matrix(0.965 -0.2624 0.2624 0.965 -4.6867 5.3839)"/><ellipse cx="15.298" cy="20.925" rx="0.492" ry="0.492" transform="matrix(0.965 -0.2624 0.2624 0.965 -4.9546 4.7472)"/><ellipse cx="16.623" cy="16.882" rx="0.492" ry="0.492" transform="matrix(0.965 -0.2624 0.2624 0.965 -3.8472 4.9532)"/><ellipse cx="13.85" cy="19.05" rx="0.492" ry="0.492" transform="matrix(0.9649 -0.2624 0.2624 0.9649 -4.5141 4.3025)"/><ellipse cx="13.85" cy="20.362" rx="0.492" ry="0.492" transform="matrix(0.9649 -0.2624 0.2624 0.9649 -4.8584 4.3485)"/><ellipse cx="11.821" cy="19.602" rx="0.492" ry="0.492" transform="matrix(0.9649 -0.2624 0.2624 0.9649 -4.73 3.7895)"/><ellipse cx="17.816" cy="17.894" rx="0.492" ry="0.492" transform="matrix(0.965 -0.2624 0.2624 0.965 -4.071 5.3016)"/><ellipse cx="18.934" cy="18.791" rx="0.492" ry="0.492" transform="matrix(0.9649 -0.2624 0.2624 0.9649 -4.2681 5.6278)"/><ellipse cx="20.162" cy="18.169" rx="0.492" ry="0.492" transform="matrix(0.965 -0.2624 0.2624 0.965 -4.0608 5.9268)"/><ellipse cx="12.201" cy="12.238" rx="0.492" ry="0.492" transform="matrix(0.9649 -0.2624 0.2624 0.9649 -2.784 3.6311)"/><ellipse cx="9.21" cy="14.696" rx="0.492" ry="0.492" transform="matrix(0.965 -0.2624 0.2624 0.965 -3.5334 2.9315)"/><ellipse cx="10.592" cy="12.624" rx="0.492" ry="0.492" transform="matrix(0.965 -0.2624 0.2624 0.965 -2.9414 3.2219)"/><ellipse cx="10.199" cy="11.34" rx="0.492" ry="0.492" transform="matrix(0.9649 -0.2624 0.2624 0.9649 -2.6186 3.0743)"/><ellipse cx="11.096" cy="14.017" rx="0.492" ry="0.492" transform="matrix(0.9649 -0.2624 0.2624 0.9649 -3.2897 3.4035)"/><path class="st0" d="M7.812,2.922l3.251,5.745l2.724-0.783C13.787,7.884,11.068,3.598,7.812,2.922z"/><path class="st0" d="M0.593,15.167l7.165-0.027l0.349-2.492C8.108,12.648,3.959,12.28,0.593,15.167z"/><path class="st0" d="M11.311,21.377l-3.327,6.125C7.984,27.502,7.161,16.359,11.311,21.377z"/><path class="st0" d="M18.957,21.005l3.439,6.555C22.396,27.561,12.007,22.48,18.957,21.005z"/><path class="st0" d="M21.941,14.729l7.474,0.125C29.416,14.854,20.3,21.049,21.941,14.729z"/><path class="st0" d="M18.442,8.668l3.533-6.052C21.975,2.615,22.682,13.89,18.442,8.668z"/><path class="st0" d="M7.812,2.848l3.124,5.819l2.549-0.839C13.484,7.828,11.785,4.651,7.812,2.848z"/><path class="st1" d="M14.853,0.827v6.864c0,0-1.282,0.83-2.564-2.219L14.853,0.827z"/><path class="st1" d="M2.942,8.237L3.94,8.79l4.854,2.85c0,0-0.83,1.697-3.426,0.714L2.667,8.129L2.942,8.237z"/><path class="st1" d="M8.851,18.717l-6.018,3.499C2.833,22.217,10.997,22.964,8.851,18.717z"/><path class="st1" d="M15.243,22.213l-0.069,7.518C15.174,29.731,19.858,23.06,15.243,22.213z"/><path class="st1" d="M21.213,18.386l6.507,3.8C27.72,22.185,25.306,14.924,21.213,18.386z"/><path class="st1" d="M27.336,7.692l-6.123,3.606c0,0-1.419-0.511,0.132-2.077l0.5-1.425L27.336,7.692z"/><path d="M29.731,14.821c-0.003-0.127-0.065-0.245-0.17-0.317c-0.099-0.068-2.265-1.559-4.511-2.369   c1.542-1.784,2.593-4.187,2.641-4.297c0.05-0.116,0.041-0.25-0.024-0.358c-0.065-0.109-0.179-0.18-0.304-0.19   c-0.12-0.011-2.742-0.217-5.091,0.204c0.443-2.316,0.151-4.923,0.138-5.042c-0.014-0.126-0.089-0.237-0.2-0.299   c-0.11-0.062-0.243-0.066-0.359-0.012c-0.109,0.051-2.482,1.183-4.307,2.723c-0.774-2.227-2.33-4.339-2.401-4.436   c-0.076-0.102-0.206-0.167-0.323-0.158c-0.126,0.002-0.244,0.065-0.316,0.169c-0.068,0.099-1.559,2.266-2.368,4.512   c-1.784-1.542-4.187-2.594-4.298-2.641c-0.116-0.051-0.25-0.041-0.358,0.024C7.37,2.398,7.3,2.512,7.289,2.638   C7.279,2.758,7.072,5.38,7.494,7.73C5.179,7.286,2.57,7.578,2.452,7.591c-0.126,0.015-0.237,0.089-0.299,0.2   C2.091,7.902,2.087,8.035,2.141,8.15c0.051,0.109,1.183,2.482,2.723,4.307c-2.228,0.774-4.34,2.33-4.436,2.401   c-0.101,0.076-0.16,0.196-0.158,0.323c0.002,0.126,0.065,0.244,0.169,0.316c0.099,0.068,2.266,1.558,4.512,2.368   c-1.542,1.784-2.593,4.188-2.641,4.297c-0.05,0.117-0.041,0.25,0.024,0.359c0.065,0.108,0.179,0.179,0.305,0.189   c0.06,0.005,0.755,0.06,1.731,0.06c0.963,0,2.194-0.064,3.361-0.273c-0.446,2.318-0.154,4.932-0.14,5.051   c0.015,0.126,0.089,0.237,0.2,0.299c0.06,0.033,0.125,0.05,0.191,0.05c0.057,0,0.115-0.012,0.168-0.038   c0.109-0.051,2.483-1.182,4.307-2.722c0.774,2.227,2.33,4.338,2.402,4.435c0.074,0.1,0.191,0.159,0.315,0.159   c0.002,0,0.004,0,0.007,0c0.126-0.003,0.244-0.065,0.316-0.17c0.068-0.098,1.559-2.265,2.368-4.511   c1.784,1.542,4.188,2.593,4.297,2.641c0.05,0.021,0.104,0.033,0.156,0.033c0.07,0,0.14-0.019,0.203-0.057   c0.108-0.065,0.179-0.179,0.189-0.304c0.01-0.12,0.218-2.747-0.205-5.098c0.988,0.189,2.025,0.252,2.904,0.252   c1.183,0,2.071-0.1,2.139-0.108c0.126-0.014,0.237-0.089,0.299-0.2c0.061-0.11,0.066-0.245,0.012-0.359   c-0.051-0.109-1.182-2.482-2.722-4.307c2.227-0.774,4.339-2.329,4.435-2.401C29.673,15.067,29.733,14.947,29.731,14.821z    M26.728,8.041c-0.418,0.853-1.339,2.587-2.495,3.831c-0.079-0.022-0.148-0.03-0.225-0.049c-0.187-0.047-0.373-0.09-0.546-0.119   c-0.093-0.016-0.18-0.024-0.27-0.035c-0.16-0.02-0.322-0.036-0.476-0.039c-0.038-0.001-0.083-0.01-0.12-0.01   c-0.056,0-0.113,0.015-0.169,0.017c-0.171,0.007-0.345,0.024-0.516,0.052c-0.053,0.009-0.103,0.005-0.156,0.016   c-0.224-0.455-0.493-0.886-0.804-1.289c0.054-0.058,0.098-0.118,0.147-0.177c0.039-0.047,0.081-0.094,0.117-0.141   c0.125-0.16,0.24-0.322,0.337-0.489c0.111-0.193,0.211-0.41,0.304-0.643c0.031-0.078,0.057-0.167,0.087-0.25   c0.045-0.126,0.093-0.246,0.132-0.382C23.773,7.973,25.768,8.001,26.728,8.041z M20.406,18.996   c-0.311,0.42-0.663,0.798-1.045,1.124c-0.006,0.005-0.014,0.007-0.02,0.012c-0.009,0.009-0.018,0.017-0.026,0.027   c-0.479,0.401-1.008,0.733-1.575,0.986c-0.011,0.003-0.015,0.014-0.025,0.018c-0.01,0.004-0.02,0.002-0.03,0.007   c-0.461,0.201-0.957,0.35-1.473,0.445c-0.71,0.13-1.345,0.138-1.971,0.069l0,0l0,0c-0.497-0.056-1.001-0.174-1.499-0.351   c-0.622-0.222-1.207-0.534-1.737-0.926l-0.001,0c-0.422-0.313-0.801-0.665-1.127-1.049c-0.431-0.508-0.783-1.069-1.045-1.671   l0-0.002c-0.203-0.464-0.352-0.96-0.445-1.473C8.308,15.787,8.27,15.391,8.27,15c0-0.257,0.018-0.509,0.046-0.759l0,0   c0.056-0.497,0.174-1.001,0.352-1.499c0.222-0.622,0.534-1.206,0.926-1.737c0.313-0.422,0.666-0.802,1.049-1.129   c0.506-0.431,1.069-0.783,1.672-1.046c0.464-0.202,0.96-0.352,1.474-0.446l0,0c0.707-0.128,1.341-0.139,1.97-0.069h0   c0.499,0.056,1.002,0.174,1.497,0.351c0.001,0,0.001,0.001,0.002,0.001c0.623,0.222,1.208,0.534,1.738,0.926   c0.421,0.312,0.801,0.665,1.128,1.049c0.43,0.506,0.782,1.069,1.047,1.672l0,0c0.201,0.463,0.351,0.958,0.444,1.473l0.001,0.001   c0.002,0.008-0.001,0.017,0.001,0.025c0.002,0.01,0.005,0.019,0.008,0.028C21.696,14.25,21.73,14.628,21.73,15   c0,0.239-0.015,0.473-0.04,0.705c-0.004,0.015,0,0.029-0.002,0.043c-0.001,0.004-0.003,0.007-0.004,0.011   c-0.056,0.496-0.174,1.001-0.351,1.499C21.11,17.883,20.799,18.467,20.406,18.996z M21.376,7.901   c-0.134,0.521-0.305,0.963-0.507,1.312c-0.106,0.184-0.242,0.362-0.394,0.54c-0.015,0.018-0.034,0.036-0.05,0.054   c-0.292-0.304-0.614-0.588-0.961-0.845c-0.593-0.439-1.246-0.787-1.941-1.036c-0.001,0-0.003,0-0.004-0.001   c-0.394-0.141-0.794-0.249-1.195-0.321c0.003-0.007,0.005-0.015,0.007-0.022c0.063-0.161,0.135-0.313,0.218-0.457   c0.229-0.397,0.589-0.828,1.071-1.281c1.307-1.228,3.167-2.272,4.055-2.736C21.746,4.099,21.818,6.2,21.376,7.901z M14.836,1.364   c0.53,0.788,1.571,2.454,2.07,4.077c-0.133,0.131-0.236,0.257-0.35,0.384c-0.068,0.076-0.148,0.155-0.209,0.23   c-0.188,0.23-0.35,0.455-0.478,0.678c-0.124,0.213-0.223,0.445-0.311,0.688c-0.011,0.029-0.027,0.053-0.038,0.083   c-0.491-0.037-0.992-0.022-1.518,0.05c-0.106-0.34-0.238-0.644-0.399-0.924c-0.205-0.355-0.488-0.721-0.842-1.091   C13.302,3.889,14.322,2.174,14.836,1.364z M8.041,3.273c0.892,0.436,2.748,1.425,3.999,2.656c0.385,0.378,0.682,0.747,0.883,1.095   c0.119,0.206,0.213,0.44,0.296,0.691c-0.42,0.102-0.831,0.227-1.218,0.395c-0.674,0.294-1.302,0.686-1.867,1.167   C9.822,9.542,9.53,9.838,9.26,10.159c-0.005-0.006-0.011-0.012-0.016-0.018c-0.108-0.136-0.205-0.276-0.289-0.42   c-0.23-0.399-0.423-0.926-0.574-1.567c0-0.001-0.001-0.001-0.001-0.002C7.971,6.407,7.998,4.274,8.041,3.273z M7.674,8.569   C7.72,8.746,7.776,8.894,7.828,9.053c0.033,0.101,0.062,0.213,0.098,0.307c0.105,0.277,0.219,0.53,0.348,0.753   c0.124,0.214,0.275,0.416,0.442,0.614c0.021,0.025,0.034,0.052,0.056,0.077c-0.284,0.42-0.523,0.867-0.717,1.336   c-0.073-0.016-0.141-0.022-0.212-0.035c-0.089-0.016-0.181-0.033-0.269-0.044c-0.141-0.017-0.282-0.024-0.422-0.028   c-0.074-0.002-0.149-0.01-0.224-0.008c-0.206,0.005-0.417,0.025-0.636,0.06c-0.08,0.013-0.169,0.034-0.251,0.051   c-0.117,0.023-0.229,0.041-0.353,0.071c-1.16-1.294-2.135-3.035-2.579-3.885C4.056,8.258,6.016,8.19,7.674,8.569z M5.664,13.028   L5.664,13.028c0.229-0.063,0.438-0.11,0.639-0.146c0.058-0.01,0.112-0.014,0.169-0.022c0.14-0.02,0.278-0.035,0.412-0.04   c0.068-0.003,0.136-0.001,0.204,0c0.12,0.002,0.239,0.009,0.359,0.023c0.072,0.008,0.145,0.018,0.219,0.03   c0.04,0.007,0.083,0.019,0.124,0.027c-0.123,0.417-0.209,0.837-0.256,1.254l0,0l0,0c-0.031,0.278-0.05,0.56-0.05,0.846   c0,0.417,0.038,0.837,0.115,1.283c0,0.03,0.005,0.06,0.012,0.09c0,0.002,0,0.004,0,0.006c0.004,0.014,0.008,0.029,0.013,0.042   c0.074,0.386,0.186,0.758,0.316,1.121c-0.629,0.096-1.23,0.037-2.043-0.194l-0.001-0.001l-0.132-0.038l-0.001,0l-0.002-0.001   c-1.717-0.517-3.551-1.607-4.397-2.144C2.188,14.609,3.972,13.496,5.664,13.028z M3.273,21.96c0.418-0.855,1.345-2.589,2.504-3.834   c0.612,0.167,1.149,0.255,1.629,0.255c0.276,0,0.562-0.037,0.852-0.094c0.223,0.456,0.48,0.895,0.793,1.299   c-0.055,0.059-0.099,0.12-0.15,0.18c-0.038,0.045-0.078,0.091-0.114,0.137c-0.125,0.16-0.24,0.323-0.337,0.49   c-0.111,0.192-0.212,0.409-0.305,0.643c-0.031,0.077-0.057,0.165-0.085,0.247c-0.045,0.127-0.093,0.247-0.133,0.385   C6.226,22.026,4.231,21.999,3.273,21.96z M8.624,22.1c0.135-0.523,0.306-0.965,0.507-1.312c0.107-0.186,0.242-0.364,0.394-0.542   c0.015-0.017,0.033-0.035,0.048-0.052c0.292,0.303,0.613,0.586,0.96,0.843c0.001,0.001,0.001,0.001,0.002,0.002   c0.593,0.44,1.246,0.787,1.942,1.036c0.398,0.142,0.8,0.237,1.202,0.31c-0.067,0.173-0.141,0.338-0.229,0.49   c-0.227,0.393-0.579,0.816-1.048,1.26c-0.003,0.003-0.004,0.006-0.007,0.009c-0.002,0.001-0.004,0.002-0.005,0.003   c-0.006,0.005-0.007,0.014-0.013,0.02c-0.008,0.008-0.022,0.01-0.029,0.019c-1.305,1.215-3.143,2.247-4.025,2.707   C8.255,25.901,8.183,23.802,8.624,22.1z M15.164,28.636c-0.532-0.789-1.573-2.461-2.071-4.088c0.447-0.443,0.799-0.865,1.039-1.28   c0.139-0.24,0.247-0.503,0.342-0.781c0.493,0.036,0.994,0.033,1.523-0.04c0.012,0.038,0.032,0.067,0.045,0.104   c0.099,0.294,0.211,0.571,0.354,0.818c0.113,0.195,0.25,0.391,0.405,0.588c0.049,0.062,0.11,0.125,0.163,0.188   c0.09,0.105,0.171,0.209,0.274,0.316C16.698,26.112,15.678,27.826,15.164,28.636z M21.96,26.728c-0.893-0.436-2.749-1.425-4-2.656   c-0.385-0.38-0.683-0.749-0.882-1.096c-0.119-0.205-0.213-0.44-0.296-0.69c0.396-0.096,0.783-0.214,1.149-0.37   c0.008-0.002,0.016-0.001,0.024-0.003c0.036-0.011,0.069-0.026,0.099-0.045c0.637-0.284,1.231-0.657,1.769-1.107   c0.024-0.014,0.047-0.032,0.067-0.053c0.008-0.007,0.01-0.017,0.017-0.025c0.296-0.256,0.576-0.534,0.834-0.84   c0.005,0.007,0.012,0.013,0.018,0.02c0.108,0.136,0.204,0.274,0.286,0.417c0.23,0.398,0.423,0.926,0.574,1.568   C22.029,23.593,22.002,25.727,21.96,26.728z M22.326,21.432c-0.046-0.176-0.101-0.323-0.153-0.481   c-0.033-0.102-0.063-0.216-0.099-0.312c-0.105-0.277-0.219-0.529-0.348-0.752c-0.123-0.213-0.275-0.415-0.442-0.614   c-0.021-0.025-0.034-0.052-0.056-0.077c0.283-0.42,0.523-0.867,0.716-1.336c0.068,0.015,0.132,0.02,0.198,0.033   c0.082,0.015,0.166,0.03,0.246,0.041c0.132,0.017,0.265,0.026,0.396,0.031c0.053,0.002,0.108,0.013,0.16,0.013   c0.019,0,0.042-0.005,0.061-0.005c0.225-0.003,0.455-0.019,0.695-0.057c0.006-0.001,0.012-0.003,0.018-0.004   c0.19-0.03,0.385-0.068,0.593-0.119c1.16,1.293,2.135,3.034,2.579,3.885C25.943,21.743,23.983,21.812,22.326,21.432z    M24.337,16.972c-0.229,0.063-0.438,0.11-0.64,0.146c-0.057,0.01-0.111,0.014-0.167,0.022c-0.142,0.02-0.281,0.035-0.417,0.041   c-0.066,0.003-0.131,0.001-0.196,0c-0.123-0.002-0.245-0.009-0.368-0.023c-0.07-0.008-0.141-0.017-0.213-0.029   c-0.041-0.007-0.084-0.019-0.125-0.028c0.116-0.395,0.196-0.794,0.244-1.189c0.001-0.002,0.003-0.003,0.004-0.005   c0.011-0.039,0.014-0.079,0.013-0.117c0.027-0.26,0.045-0.523,0.045-0.79c0-0.423-0.04-0.853-0.121-1.311   c-0.002-0.022-0.006-0.044-0.012-0.066c-0.001-0.006-0.005-0.009-0.007-0.015c-0.074-0.395-0.175-0.781-0.308-1.152   c0.033-0.005,0.067-0.014,0.099-0.019c0.066-0.008,0.133-0.012,0.2-0.016c0.119-0.008,0.24-0.011,0.362-0.007   c0.076,0.002,0.152,0.006,0.23,0.013c0.126,0.011,0.256,0.031,0.389,0.054c0.073,0.013,0.143,0.022,0.219,0.038   c0.211,0.045,0.43,0.1,0.67,0.173c0.006,0.002,0.012,0.001,0.017,0.003c0.005,0.001,0.009,0.006,0.013,0.007   c1.709,0.521,3.525,1.601,4.366,2.135C27.813,15.392,26.028,16.505,24.337,16.972z"/></g></svg>