<?xml version="1.0" ?><svg id="Layer_1" style="enable-background:new 0 0 30 30;" version="1.1" viewBox="0 0 30 30" xml:space="preserve" xmlns="http://www.w3.org/2000/svg" xmlns:xlink="http://www.w3.org/1999/xlink"><style type="text/css">
	.st0{fill:#78CA4A;}
	.st1{fill:#2BB85A;}
	.st2{fill:#04427F;}
	.st3{opacity:0.78;fill:#22225B;}
	.st4{opacity:0.2;fill:#9FC8E2;}
</style><g><path class="st0" d="M14.856,1.111l0.304,8.842l3.204,0.545c0,0-0.24-4.117-1.906-5.831L14.856,1.111z"/><path class="st0" d="M27.608,6.713l-5.248,8.424l2.428,1.833c0,0,2.687-3.218,2.145-5.902L27.608,6.713z"/><path class="st0" d="M1.824,6.717l6.688,7.482l1.554-2.051c0,0-2.103-3.359-4.555-3.637L1.824,6.717z"/><path class="st1" d="M14.856,1.111l0.529,8.955c0,0-2.99-0.15-3.183,0.598C12.202,10.664,12.207,3.14,14.856,1.111z"/><path class="st1" d="M27.669,6.841l-5.222,8.124c0,0-2.281-1.844-2.905-1.301C19.542,13.664,24.286,7.096,27.669,6.841z"/><path class="st1" d="M2.131,6.744l5.847,7.561c0,0-2.515,1.541-2.219,2.304C5.76,16.609,1.211,10.005,2.131,6.744z"/><path class="st2" d="M22.391,15.513c0,0,8.544,5.254,0.342,13.072c0,0-4.315,1.837-7.476-1.623c0,0,1.639-2.884,1.578-3.546   l1.498-0.427l2.115,0.534l-0.534-1.633l1.452,0.309l-0.513-1.589l1.837,0.03l-1.242-1.651c0,0,0.9-2.301,0.601-3.476H22.391z"/><path class="st2" d="M8.934,14.421c0,0,8.458-0.745,8.031,8.994l1.41-0.555l1.965,0.555l-0.249-1.751l1.189,0.352l-0.256-1.019   l-0.171-0.387h1.538l-0.812-1.508c0,0,1.922-5.682-3.204-8.287c0,0-5.881-3.118-9.199,2.52L8.934,14.421z"/><ellipse class="st2" cx="9.84" cy="21.889" rx="7.207" ry="7.468"/><path d="M13.525,24.219c-0.875,0.064-1.605-0.257-1.994-0.472c0.562-1.015-0.191-2.488-0.227-2.558   c-0.072-0.136-0.221-0.213-0.376-0.188c-0.153,0.025-0.272,0.145-0.297,0.297c-0.192,1.199-1.137,1.902-1.352,2.048   c-0.731,0.148-1.717-0.62-2.04-0.932c-0.104-0.1-0.259-0.131-0.39-0.072c-0.133,0.056-0.219,0.187-0.218,0.331   c0.009,1.356,0.849,2.018,1.496,2.263c-0.276,1.004-1.197,1.495-1.207,1.5c-0.126,0.066-0.202,0.2-0.193,0.341   c0.009,0.142,0.1,0.265,0.233,0.314c1.253,0.466,2.16-0.155,2.605-0.716c0.755,0.498,1.122,1.589,1.126,1.601   c0.045,0.138,0.168,0.235,0.312,0.246c0.01,0.001,0.019,0.001,0.029,0.001c0.134,0,0.257-0.074,0.319-0.194   c0.441-0.856,0.365-1.654,0.222-2.177c1.099-0.004,2.012-0.766,2.231-1.015c0.092-0.106,0.131-0.279,0.074-0.407   C13.814,24.294,13.677,24.217,13.525,24.219z M11.116,25.071c-0.141-0.043-0.294,0.007-0.385,0.124   c-0.091,0.116-0.101,0.276-0.026,0.403c0.005,0.007,0.316,0.546,0.25,1.273c-0.289-0.481-0.737-1.028-1.37-1.295   c-0.045-0.018-0.091-0.027-0.137-0.027c-0.128,0-0.25,0.068-0.316,0.185c-0.051,0.091-0.424,0.716-1.157,0.794   c0.393-0.383,0.819-0.977,0.923-1.803c0.024-0.189-0.107-0.365-0.295-0.398c-0.094-0.017-0.722-0.151-1.053-0.773   c0.538,0.337,1.266,0.652,1.958,0.476c0.033-0.008,0.066-0.021,0.095-0.039c0.046-0.027,0.871-0.53,1.381-1.511   c0.072,0.4,0.058,0.834-0.224,1.101c-0.076,0.072-0.117,0.173-0.112,0.278c0.006,0.104,0.056,0.202,0.139,0.266   c0.037,0.028,0.725,0.551,1.758,0.746C12.147,25.074,11.632,25.225,11.116,25.071z"/><path d="M10.438,24.2c-0.084,0.054-0.15,0.116-0.203,0.182c0-0.002,0-0.004-0.001-0.005c-0.011-0.128-0.114-0.229-0.242-0.235   c-0.134-0.028-0.242,0.081-0.265,0.208l-0.02,0.105c-0.029-0.034-0.059-0.067-0.091-0.1c-0.098-0.101-0.261-0.103-0.362-0.006   c-0.102,0.098-0.105,0.26-0.007,0.362c0.113,0.117,0.264,0.307,0.34,0.548c0.034,0.107,0.133,0.179,0.244,0.179   c0.005,0,0.01,0,0.016,0c0.108-0.007,0.2-0.081,0.23-0.183c0.052,0.046,0.112,0.085,0.181,0.112   c0.091,0.037,0.197,0.016,0.269-0.053c0.073-0.068,0.099-0.173,0.068-0.267c-0.01-0.029-0.086-0.284,0.119-0.415   c0.119-0.077,0.154-0.235,0.078-0.354C10.715,24.159,10.555,24.125,10.438,24.2z"/><path class="st3" d="M12.63,16.175c0,0,5.571,6.19,0.343,11.479c-0.579,0.586-1.513,1.027-2.663,1.943   c0,0,12.657-5.46,3.371-13.879c-0.676-0.613-2.05-0.985-3.415-1.284C10.266,14.435,12.026,15.196,12.63,16.175z"/><path class="st3" d="M14.794,10.081c0,0,5.677,2.483,6.485,8.757c0.097,0.756,0.036,0.422,0.169,0.151c0,0,2.731-9.146-7.297-9.275   c-0.817-0.01-0.608-0.044-1.722,0.449C12.429,10.161,13.833,9.647,14.794,10.081z"/><path class="st3" d="M23.859,27.109c0,0-4.36,2.489-7.979-1.289c-0.43-0.449-0.451-0.002-0.422,0.277c0,0,2.304,7.172,9.36,0.663   c0.575-0.53,0.098-0.183,0.655-1.265C25.474,25.495,24.724,26.783,23.859,27.109z"/><path d="M28.475,6.113c-0.109-0.116-0.271-0.16-0.424-0.111c-0.179,0.057-4.428,1.439-7.044,5.255   c-0.171,0.249-0.318,0.504-0.451,0.762c-0.54-0.608-1.175-1.126-1.894-1.524c-0.005-0.003-0.008-0.007-0.013-0.01   c0.024-0.105,0.045-0.206,0.057-0.281c0.027-0.083,0.65-2.076-1.712-5.727c-0.498-0.769-1.068-1.837-1.521-3.918   c-0.034-0.154-0.153-0.276-0.306-0.312c-0.153-0.038-0.314,0.018-0.414,0.142c-0.118,0.147-2.896,3.646-2.967,8.273l-0.006,0.313   c-0.011,0.52-0.014,0.928,0.096,1.378c-0.536,0.27-1.029,0.605-1.477,0.992c-0.233-0.489-1.24-2.119-4.74-3.413   c-0.859-0.317-1.954-0.83-3.564-2.226c-0.12-0.104-0.288-0.129-0.433-0.066c-0.145,0.063-0.24,0.203-0.246,0.361   c-0.007,0.188-0.134,4.654,2.581,8.402c0.37,0.51,0.797,0.922,1.249,1.283c-1.597,1.232-2.752,3.078-3.075,5.24   c-0.318,2.131,0.203,4.224,1.467,5.897c1.204,1.592,2.95,2.607,4.916,2.859c0.316,0.041,0.631,0.061,0.944,0.061   c2.178,0,4.216-0.967,5.669-2.54c1.251,1.625,3.021,2.559,4.916,2.559c3.633,0,6.59-3.415,6.59-7.613c0-1.897-0.605-3.649-1.625-5   c0.31-0.251,0.612-0.515,0.874-0.784c0.069-0.054,1.689-1.372,1.738-5.719c0.01-0.915,0.124-2.119,0.897-4.106   C28.615,6.395,28.583,6.228,28.475,6.113z M21.395,15.303L21.395,15.303c0.122,0.497,0.183,1.012,0.183,1.532   c0,0.745-0.126,1.477-0.375,2.173c-0.068,0.191,0.019,0.393,0.191,0.49l0.58,0.863l-1.108,0.014   c-0.124,0.001-0.239,0.067-0.303,0.173c-0.064,0.106-0.069,0.238-0.012,0.348l0.368,0.72l-0.843-0.271   c-0.124-0.041-0.263-0.009-0.359,0.083c-0.095,0.092-0.132,0.228-0.096,0.355l0.341,1.208l-1.29-0.443   c-0.124-0.102-0.302-0.127-0.45-0.047c-0.302,0.159-0.643,0.294-0.984,0.411c0.002-0.011,0.005-0.022,0.007-0.034v0.001   c0.318-2.131-0.202-4.224-1.466-5.896c-1.204-1.592-2.95-2.609-4.917-2.861c-0.519-0.067-1.034-0.077-1.539-0.036   c0.312-0.661,0.727-1.257,1.23-1.769c0.003-0.003,0.005-0.006,0.008-0.008c0.641-0.649,1.421-1.158,2.296-1.49   c1.52-0.63,3.112-0.698,5.292,0.333C19.754,12.001,20.954,13.493,21.395,15.303z M12.601,8.993l0.006-0.318   c0.049-3.162,1.492-5.826,2.282-7.051c0.449,1.662,0.983,2.627,1.417,3.299c2.119,3.274,1.626,5.01,1.609,5.074   c-0.008,0.041-0.018,0.08-0.026,0.121c-0.29-0.118-0.589-0.221-0.897-0.302c-0.022-0.006-0.043-0.002-0.064-0.004   c-0.468-0.132-0.912-0.205-1.343-0.242L15.496,8.44c0.005-0.006,0.012-0.008,0.016-0.014l1.222-1.668   c0.134-0.182,0.095-0.439-0.088-0.573c-0.182-0.134-0.439-0.095-0.573,0.089l-0.675,0.92l-0.24-3.071   c-0.018-0.226-0.22-0.394-0.441-0.377c-0.226,0.018-0.394,0.215-0.377,0.441l0.227,2.894l-0.9-0.808   c-0.168-0.151-0.428-0.138-0.579,0.032c-0.151,0.168-0.137,0.428,0.032,0.579l1.541,1.383l0.101,1.285   c-0.701,0.034-1.365,0.188-2.011,0.435c-0.011,0.003-0.022,0.001-0.033,0.005c-0.025,0.009-0.048,0.021-0.073,0.03   C12.589,9.725,12.592,9.427,12.601,8.993z M4.662,13.923c-1.855-2.561-2.295-5.558-2.397-7.012C3.62,7.974,4.627,8.426,5.376,8.702   c3.657,1.353,4.304,3.037,4.327,3.097c0.026,0.053,0.048,0.105,0.072,0.157c-0.521,0.573-0.949,1.229-1.268,1.952l-1.673-1.905   c0-0.007,0.004-0.013,0.004-0.02l-0.02-2.069c-0.002-0.225-0.185-0.406-0.41-0.406c-0.001,0-0.003,0-0.004,0   C6.178,9.51,5.996,9.696,5.998,9.922l0.011,1.142L3.977,8.749c-0.15-0.17-0.409-0.186-0.579-0.038   c-0.17,0.15-0.187,0.409-0.038,0.579l1.915,2.181l-1.204-0.108c-0.229-0.018-0.425,0.146-0.445,0.372   c-0.02,0.226,0.146,0.425,0.372,0.445l2.062,0.185l1.758,2.002c-0.658,0.193-1.283,0.479-1.866,0.837   C5.48,14.866,5.042,14.447,4.662,13.923z M8.659,28.871c-1.745-0.224-3.296-1.126-4.365-2.541c-1.13-1.496-1.596-3.371-1.311-5.281   c0.531-3.554,3.549-6.166,6.933-6.166c0.278,0,0.559,0.018,0.841,0.054c1.746,0.224,3.297,1.127,4.366,2.542   c1.13,1.495,1.595,3.37,1.31,5.279v0.001C15.859,26.606,12.372,29.349,8.659,28.871z M20.084,28.943   c-1.693,0-3.281-0.87-4.381-2.383c0.6-0.801,1.059-1.721,1.334-2.729c0.5-0.137,1.034-0.335,1.496-0.571l1.844,0.633   c0.038,0.013,0.077,0.019,0.116,0.019c0.09,0,0.179-0.034,0.246-0.098c0.097-0.091,0.135-0.229,0.099-0.357l-0.345-1.223   l1.028,0.331c0.137,0.046,0.29,0.003,0.383-0.109c0.094-0.11,0.112-0.266,0.046-0.395l-0.499-0.975l1.194-0.015   c0.132-0.001,0.252-0.075,0.313-0.192c0.062-0.116,0.054-0.257-0.02-0.366l-0.925-1.375c0.247-0.741,0.385-1.513,0.385-2.301   c0-0.308-0.022-0.613-0.06-0.916c0.678,0.339,1.29,0.801,1.797,1.386c0.005,0.008,0.006,0.017,0.011,0.024   c0.005,0.007,0.014,0.009,0.019,0.016c1.056,1.241,1.686,2.947,1.686,4.805C25.853,25.896,23.265,28.943,20.084,28.943z    M26.84,10.638c-0.043,3.899-1.413,5.074-1.462,5.117c-0.277,0.281-0.569,0.536-0.865,0.774c-0.575-0.603-1.236-1.108-1.985-1.452   c0.223-0.353,0.576-0.907,0.977-1.528l2.759-1.496c0.199-0.108,0.273-0.357,0.165-0.556c-0.108-0.199-0.356-0.272-0.556-0.165   l-1.415,0.767c0.743-1.113,1.309-1.913,1.663-2.341c0.144-0.174,0.119-0.433-0.055-0.577c-0.173-0.145-0.434-0.12-0.578,0.055   c-0.371,0.449-0.956,1.275-1.719,2.418l0.086-0.968c0.02-0.226-0.146-0.425-0.372-0.445c-0.221-0.012-0.425,0.147-0.445,0.372   l-0.221,2.49c-0.331,0.512-0.624,0.97-0.843,1.316c-0.211-0.6-0.498-1.16-0.85-1.675c0.15-0.346,0.331-0.69,0.56-1.023   c1.787-2.608,4.462-4.031,5.797-4.615C26.937,8.74,26.849,9.84,26.84,10.638z"/><ellipse class="st4" cx="9.774" cy="17.946" rx="3.35" ry="2.624" transform="matrix(0.9907 -0.1357 0.1357 0.9907 -2.345 1.4924)"/><ellipse class="st4" cx="14.097" cy="12.809" rx="2.317" ry="1.785" transform="matrix(0.9907 -0.1357 0.1357 0.9907 -1.6079 2.0316)"/><ellipse class="st4" cx="18.411" cy="25.856" rx="1.218" ry="0.904" transform="matrix(0.6361 -0.7716 0.7716 0.6361 -13.251 23.6146)"/><path d="M23.445,25.41l0.05-1.389c0.005-0.134-0.066-0.26-0.183-0.326c-0.117-0.065-0.261-0.059-0.373,0.014l-1.236,0.818   l-1.22-0.11c-0.143-0.017-0.273,0.057-0.343,0.179c-0.07,0.122-0.062,0.273,0.02,0.387l0.823,1.146l-0.123,1.298   c-0.013,0.14,0.056,0.274,0.177,0.344c0.056,0.032,0.118,0.048,0.18,0.048c0.073,0,0.145-0.022,0.207-0.065l1.142-0.809   l1.287,0.057c0.168,0.005,0.265-0.065,0.33-0.185c0.066-0.12,0.058-0.266-0.02-0.378L23.445,25.41z M22.475,26.224   c-0.084-0.006-0.158,0.02-0.223,0.065l-0.604,0.428l0.062-0.653c0.008-0.086-0.015-0.173-0.066-0.243l-0.445-0.619l0.565,0.051   c0.082,0.006,0.162-0.013,0.23-0.058l0.759-0.503l-0.029,0.812c-0.003,0.078,0.02,0.154,0.064,0.218l0.37,0.532L22.475,26.224z"/></g></svg>