<?xml version="1.0" ?><svg id="Layer_1" style="enable-background:new 0 0 30 30;" version="1.1" viewBox="0 0 30 30" xml:space="preserve" xmlns="http://www.w3.org/2000/svg" xmlns:xlink="http://www.w3.org/1999/xlink"><style type="text/css">
	.st0{fill:#2CC0FE;}
	.st1{opacity:0.33;fill:#B5E7FE;}
	.st2{fill:#2E94B3;}
	.st3{fill:#267C91;}
	.st4{opacity:0.15;fill:#FFFFFF;}
</style><path d="M447.894,207.354"/><path class="st0" d="M456.389,198.592c0,0-1.19-1.19-4.212,0c0,0-5.861-5.448-11.538,1.282c0,0-8.012-0.183-7.6,7.417  c0,0-9.478,5.54,0.504,10.027c0,0,4.395,6.685,10.256,1.557c0,0,7.509,5.586,10.256-0.824c0,0,6.227,7.326,9.981,0.275  c0,0,6.685,6.501,11.629-0.641c0,0,12.091,4.53,11.355-9.731c0,0-2.198-4.005-5.036-3.73c0,0-1.74-9.615-8.791-7.142  c0,0-8.516-4.212-12.362,1.19C460.83,198.272,457.382,198.106,456.389,198.592z"/><path class="st1" d="M462.395,200.646c0,0,4.891-6.325,9.298,0c0,0,6.838-2.806,8.459,4.196c0.101,0.435,0,1.786,0,1.786  s3.022-0.069,4.739,2.335c0,0,1.648,8.104-8.104,7.211c0,0,0.036-0.57-2.974,2.383l1.852-0.873c0,0,7.917,3.022,11.387-4.327  c0,0,1.959-6.387-4.359-9.134c0,0-2.083-9.546-10.382-7.005c0,0-6.444-4.876-11.046,0.893c0,0-2.678,1.292,0.824,2.535"/><path class="st1" d="M454.02,201.805c0,0-5.002-7.52-9.409-0.939c0,0-6.726-1.981-8.348,5.305c-0.101,0.453,0,1.858,0,1.858  s-3.421-0.391-4.229,2.533c-0.807,2.918-0.129,6.035,9.658,6.478c0.88,0.04,5.185,0.973,0.911,3.402c0,0-0.538-0.348-0.739-0.414  c-3.054-1.017-7.005-0.927-11.69-5.391c0,0-0.932-5.626,3.62-7.978c0,0-0.137-7.337,10.31-8.421c0,0,0.61-4.583,13.693,0.98  c0,0,0.031,1.293-3.471,2.586"/><ellipse class="st1" cx="468.287" cy="202.789" rx="11.538" ry="6.288"/><path class="st1" d="M453.524,203.267c-2.015,1.899-4.165,5.453-9.304,5.453s-9.304-2.441-9.304-5.453  c0-1.815,2.792-2.729,5.723-4.033c1.934-0.86,3.635-2.503,5.677-2.503C451.455,196.73,456.079,200.859,453.524,203.267z"/><path d="M486.513,206.083c-0.927-1.055-1.867-1.767-2.96-2.242c-0.2-0.086-0.401-0.162-0.607-0.229  c-0.564-2.941-1.856-5.064-3.85-6.311c-1.912-1.199-3.968-1.531-6.076-0.942c-0.725-0.672-1.567-1.218-2.462-1.595  c-2.402-1.011-5.142-0.754-7.522,0.696c-0.266,0.163-0.522,0.34-0.723,0.502c-0.76,0.533-1.406,1.203-1.893,1.959  c-0.547-0.068-1.1-0.083-1.685-0.047c-0.356,0.022-0.711,0.091-1.069,0.183c-1.679-0.891-3.461-1.122-5.28-0.618  c-0.694-0.638-1.496-1.158-2.346-1.515c-2.303-0.969-4.936-0.725-7.224,0.669c-0.255,0.155-0.499,0.325-0.693,0.48  c-0.724,0.508-1.339,1.145-1.805,1.864c-0.52-0.064-1.039-0.077-1.594-0.043c-1.002,0.061-1.988,0.403-3.103,1.074  c-1.453,0.876-2.538,2.413-3.138,4.448c-0.205,0.696-0.296,1.459-0.27,2.242c-1.261,0.403-2.368,1.195-3.112,2.244  c-1.852,2.614-1.579,6.073,0.635,8.046c1.068,0.952,2.462,1.451,3.98,1.372c0.954,1.484,2.315,2.565,3.803,3.004  c1.287,0.378,2.42,0.45,3.469,0.221c1.19-0.261,2.226-0.786,3.152-1.599c1.374,1.15,3.248,1.805,5.119,1.805  c0.403,0,0.806-0.03,1.204-0.093c1.572-0.247,3.051-0.961,4.279-2.065c0.812,0.786,1.741,1.383,2.74,1.676  c1.34,0.395,2.522,0.471,3.61,0.231c1.251-0.273,2.339-0.827,3.307-1.687c1.434,1.212,3.397,1.902,5.359,1.902  c0.421,0,0.839-0.031,1.253-0.097c1.919-0.3,3.696-1.269,5.069-2.754c2.938,1.219,6.466,0.786,8.812-1.141  c1.803-1.479,2.994-3.512,3.271-5.579C488.472,209.838,487.871,207.63,486.513,206.083z M450.19,219.922  c-1.926,0.297-4-0.348-5.421-1.802c-0.171-0.181-0.476-0.215-0.724-0.206c-0.249,0.005-0.548,0.187-0.711,0.376  c-0.798,0.818-1.663,1.306-2.721,1.539c-0.752,0.163-1.602,0.1-2.597-0.191c-1.208-0.356-2.323-1.327-3.057-2.666  c-0.176-0.321-0.525-0.509-0.895-0.447c-1.183,0.17-2.334-0.153-3.157-0.889c-1.76-1.569-1.504-4.116-0.371-5.716  c0.631-0.89,1.642-1.518,2.774-1.727c0.46-0.085,0.774-0.516,0.713-0.98c-0.106-0.811-0.056-1.605,0.149-2.3  c0.329-1.119,1.007-2.625,2.359-3.438c0.863-0.52,1.595-0.782,2.303-0.825c0.621-0.035,1.189-0.003,1.775,0.113  c0.39,0.078,0.775-0.114,0.953-0.464c0.355-0.695,0.898-1.313,1.611-1.815c0.179-0.141,0.365-0.27,0.559-0.388  c1.801-1.097,3.853-1.298,5.628-0.55c0.795,0.335,1.539,0.852,2.15,1.497c0.239,0.252,0.7,0.305,1.024,0.188  c0.956-0.34,1.914-0.369,2.865-0.152c-1.453,0.923-2.548,2.484-3.157,4.548c-0.216,0.734-0.31,1.54-0.28,2.364  c-1.324,0.416-2.487,1.245-3.265,2.344c-1.926,2.717-1.643,6.314,0.659,8.366c1.116,0.995,2.61,1.491,4.158,1.424  c0.03,0.048,0.069,0.086,0.1,0.133c-0.009,0.008-0.021,0.01-0.03,0.018C452.604,219.157,451.431,219.727,450.19,219.922z   M486.42,211.911c-0.219,1.631-1.183,3.255-2.644,4.454c-1.987,1.628-5.084,1.896-7.527,0.642c-0.365-0.189-0.826-0.096-1.088,0.233  c-1.15,1.437-2.721,2.375-4.421,2.642c-2.045,0.313-4.217-0.367-5.713-1.899c-0.157-0.167-0.429-0.204-0.665-0.204  c-0.021,0-0.043,0-0.062,0.001c-0.251,0.006-0.552,0.191-0.715,0.381c-0.843,0.864-1.756,1.379-2.869,1.623  c-0.792,0.174-1.689,0.108-2.737-0.201c-1.275-0.374-2.451-1.398-3.225-2.809c-0.175-0.321-0.524-0.499-0.895-0.447  c-1.257,0.175-2.468-0.164-3.336-0.938c-1.86-1.659-1.591-4.349-0.394-6.038c0.665-0.939,1.733-1.604,2.928-1.823  c0.46-0.085,0.775-0.516,0.713-0.981c-0.114-0.853-0.059-1.691,0.157-2.422c0.347-1.178,1.06-2.763,2.487-3.624  c0.906-0.546,1.677-0.822,2.428-0.868c0.654-0.044,1.251-0.003,1.867,0.118c0.401,0.077,0.775-0.114,0.953-0.463  c0.376-0.734,0.949-1.386,1.7-1.914c0.187-0.148,0.382-0.284,0.588-0.409c1.897-1.155,4.056-1.367,5.926-0.578  c0.841,0.354,1.625,0.898,2.262,1.575c0.238,0.251,0.702,0.3,1.03,0.188c1.661-0.588,3.385-0.367,4.996,0.643  c1.663,1.043,2.721,2.946,3.142,5.654c0.056,0.354,0.32,0.64,0.67,0.721c0.298,0.07,0.592,0.164,0.878,0.288  c0.856,0.372,1.577,0.924,2.337,1.79C486.214,208.408,486.663,210.109,486.42,211.911z"/><g><path class="st2" d="M17.254,20.713l-6.362,2.347L9.75,20.373L6.816,17.44l-2.625-2.162l-3.15-2.131c0,0-0.618-1.791,1.668-1.76   l2.162,1.359l1.173,0.556l-0.525-2.131L4.747,9.38L3.543,6.117c0,0-1.328-3.223,0.679-2.79l1.112,1.482c0,0,1.019,2.223,1.05,2.316   c0.031,0.093,1.235,1.729,1.235,1.729L7.311,7.774c0,0-1.266-4.107-1.266-4.2S5.303,0.98,6.477,1.258c0,0,0.988-0.834,1.791,1.606   l2.131,5.651L9.11,1.505c0,0,0.177-1.541,1.721-0.384l1.328,2.979l-0.062,0.679l-0.679,1.339l2.316,5.486l1.019,3.026l-3.212-1.668   c0,0-3.119-0.093-2.007,1.791C9.534,14.753,16.544,19.416,17.254,20.713z"/><path class="st2" d="M27.023,21.928l-7.729,2.682l-1.124-2.682c0,0-2.908-3.192-4.406-4.396l-3.439-2.245   c0,0-2.737-2.726,1.71-1.908l2.548,1.436l0.077-1.096l-1.494-3.46l-1.638-4.359c0,0,0.569-2.155,1.65-0.719   s2.857,5.034,2.857,5.034s-1.714-6.392-1.714-6.439s1.158-2.656,2.316,0.309l2.44,5.404L17.47,3.342c0,0,1.158-3.119,2.795,0.741   c0,0,1.127,4.771,1.189,4.725c0.062-0.046,0.17-4.802,0.17-4.802s1.683-1.405,2.131,1.915c0.448,3.32,0.448,5.065,0.448,5.065   l1.436,4.231l-0.015,2.887L27.023,21.928z"/><path class="st3" d="M16.976,21.207c0,0,0.802-0.896,1.281,1.235l0.942,1.987l-0.942,0.762v0.679l-6.191,1.946   c0,0-1.359,0.216-1.482-0.71l-0.741-2.841c0,0-0.587-1.235,1.76-1.204L16.976,21.207z"/><path class="st3" d="M24.785,22.705l2.855-0.777c0,0,1.976,3.118,1.4,4.395L21.3,29.041c0,0-1.4,0.906-2.1-0.412l-0.942-2.993   C18.258,25.636,19.048,23.575,24.785,22.705z"/><path class="st4" d="M17.923,2.152c0,0,6.506,18.283,3.829,21.371l-2.458,1.087l-1.124-2.682l-2.018-2.481l-2.923-2.306L9.902,15   c0,0-1.614-1.935,1.063-2.182l2.965,1.647l0.823,0.165l-1.019-3.026l-1.781-4.015c0,0-1.523-3.047,0.535-2.965   c0,0,1.4,0.329,1.935,2.429l1.647,2.965l-0.823-3.376c0,0-1.853-3.5-0.247-4.117c0,0,0.906-1.071,1.729,1.276l1.528,4.447   L19.2,9.812C19.2,9.812,16.935,2.069,17.923,2.152z"/><path class="st4" d="M9.469,0.999l5.02,13.023L10.594,12.9l-1.296,1.123c0,0,4.912,7.296,4,8.348l-2.458,1.087l-1.124-2.682   l-2.018-2.481l-2.923-2.306l-3.327-2.141c0,0-1.614-1.935,1.063-2.182l2.965,1.647l0.823,0.165L5.28,10.45L3.499,6.436   c0,0-1.523-3.047,0.535-2.965c0,0,1.4,0.329,1.935,2.429l1.647,2.965L6.793,5.489c0,0-1.853-3.5-0.247-4.117   c0,0,0.906-1.071,1.729,1.276l1.528,4.447l0.942,1.565C10.746,8.659,8.481,0.916,9.469,0.999z"/><path class="st4" d="M10.201,25.636l8.35-2.576l-0.792-2.254l-7.378,2.415C10.381,23.221,8.942,23.755,10.201,25.636z"/><path class="st4" d="M19.133,26.844l9.362-3.074l-0.833-1.757l-8.326,2.415C19.336,24.429,17.713,24.963,19.133,26.844z"/><path d="M29.47,25.162l-0.922-2.719c-0.119-0.35-0.367-0.633-0.698-0.796c-0.221-0.109-0.458-0.133-0.696-0.118l-1.107-3.427   c0.079-0.516,0.337-2.814-0.834-5.435c-0.01-0.028-0.991-2.777-1.042-5.878c0.004-0.263,0.015-2.594-0.991-3.391   c-0.311-0.246-0.69-0.33-1.099-0.242c-0.137,0.003-0.303,0.054-0.451,0.192c-0.416,0.388-0.51,1.276-0.298,2.729L21.32,6.796   c-0.223-0.992-0.453-1.969-0.617-2.551c-0.041-0.199-0.427-1.957-1.449-2.446c-0.259-0.125-0.666-0.217-1.172,0.014   c-0.183,0.03-0.412,0.138-0.58,0.371c-0.386,0.536-0.323,1.498,0.18,2.899c0.002,0.01,0.061,0.255,0.151,0.637L17.25,4.189   l-0.661-1.416c-0.014-0.041-0.355-0.988-1.918-0.484c-0.052,0.026-0.517,0.27-0.712,0.859c-0.165,0.499-0.084,1.075,0.217,1.653   l0.508,1.553c0.012,0.05,0.122,0.496,0.278,1.101l-0.179-0.278l-0.742-1.765c-0.035-0.081-0.359-0.796-1.043-1.041   c-0.139-0.05-0.284-0.067-0.43-0.07c-0.139-0.594-0.259-1.083-0.361-1.444c-0.041-0.199-0.427-1.957-1.449-2.446   C10.5,0.287,10.09,0.194,9.586,0.426c-0.183,0.03-0.411,0.138-0.579,0.371C8.62,1.333,8.683,2.294,9.186,3.696   c0.002,0.01,0.061,0.255,0.151,0.636l-0.584-1.53L8.091,1.387C8.078,1.346,7.739,0.399,6.173,0.903   c-0.052,0.026-0.517,0.27-0.712,0.859C5.296,2.26,5.377,2.836,5.678,3.414l0.508,1.553c0.012,0.05,0.122,0.496,0.278,1.101   L6.285,5.79L5.543,4.025C5.508,3.944,5.184,3.229,4.5,2.984c-0.377-0.135-0.79-0.095-1.203,0.118   C3.183,3.165,2.199,3.777,2.996,6.081C3.155,6.415,3.585,7.396,3.67,7.92c0.007,0.04,0.019,0.079,0.037,0.115   c0,0,0.746,1.486,1.084,2.101c0.207,0.375,0.54,1.546,0.777,2.45l-0.865-0.469c-0.809-0.676-2.662-1.597-3.848-0.284   c-0.046,0.036-0.449,0.371-0.394,0.941c0.06,0.614,0.611,1.178,1.661,1.711c0.77,0.46,2.899,1.828,3.491,2.624   c0.289,0.389,1.201,1.209,1.431,1.307l1.186,0.902c0,0,0.569,0.541,0.979,0.985c0.256,0.513,0.613,1.293,0.656,1.562l0.292,1.094   c-0.348,0.145-0.608,0.42-0.741,0.748c-0.118,0.29-0.136,0.62-0.028,0.939l0.938,2.765c0.192,0.566,0.722,0.923,1.288,0.923   c0.144,0,0.291-0.023,0.435-0.072l5.913-2.005l0.854,2.518c0.119,0.35,0.367,0.633,0.698,0.796   c0.194,0.096,0.401,0.144,0.611,0.144c0.151,0,0.3-0.025,0.447-0.074l8.034-2.724C29.327,26.672,29.715,25.885,29.47,25.162z    M13.313,5.722l0.772,1.821l0.564,0.88l1.3,2.71c0.071,0.147,0.215,0.236,0.387,0.223c0.162-0.013,0.3-0.124,0.347-0.28   l0.044-0.147c0.026-0.086,0.022-0.178-0.011-0.261C16.31,9.643,15.46,6.2,15.443,6.137l-0.54-1.639   c-0.549-1.074,0.006-1.44,0.063-1.478c0.59-0.191,0.835-0.065,0.889,0.047l0.666,1.43l2.301,6.032   c0.07,0.184,0.261,0.29,0.457,0.245c0.192-0.044,0.322-0.222,0.306-0.418c-0.091-1.105-1.091-5.28-1.146-5.498   c-0.561-1.566-0.379-2.072-0.31-2.19c0.037-0.062,0.07-0.072,0.053-0.073c0.061-0.001,0.13-0.014,0.189-0.043   c0.271-0.138,0.437-0.09,0.54-0.041c0.506,0.242,0.892,1.29,1.023,1.92c0.427,1.518,1.319,5.814,1.328,5.857   c0.041,0.197,0.21,0.33,0.424,0.314c0.201-0.019,0.355-0.185,0.359-0.386l0.073-4.184c-0.221-1.554-0.027-1.989,0.034-2.082   c0.021-0.002,0.041-0.005,0.062-0.011c0.196-0.05,0.341-0.024,0.474,0.081c0.53,0.419,0.705,1.914,0.691,2.771   c0.054,3.25,1.048,6.03,1.101,6.173c1.207,2.705,0.776,5.07,0.772,5.094c-0.013,0.065-0.009,0.133,0.012,0.196l1.119,3.462   l-6.982,2.368l-0.267-0.994c-0.069-0.442-0.634-1.58-0.746-1.804c-0.008-0.016-0.023-0.027-0.033-0.042   c-0.011-0.016-0.016-0.034-0.029-0.048c-0.428-0.467-1.055-1.064-1.088-1.092l-1.289-0.973c-0.163-0.084-0.96-0.776-1.206-1.106   c-0.806-1.085-3.601-2.761-3.743-2.845c-1.079-0.549-1.237-0.944-1.255-1.089c-0.018-0.148,0.088-0.245,0.142-0.295   c1.033-1.137,2.733,0.254,2.868,0.357l1.723,0.944c0.139,0.076,0.306,0.062,0.43-0.032c0.124-0.096,0.18-0.255,0.144-0.407   c-0.069-0.286-0.684-2.808-1.073-3.516c-0.296-0.539-0.911-1.758-1.044-2.023c-0.141-0.748-0.704-1.937-0.713-1.949   c-0.546-1.584-0.053-1.982-0.059-1.982c0.211-0.109,0.395-0.131,0.563-0.073C13.036,5.223,13.256,5.593,13.313,5.722z    M8.742,18.718l-1.289-0.973c-0.163-0.084-0.96-0.776-1.206-1.106c-0.806-1.085-3.601-2.761-3.743-2.845   c-1.079-0.549-1.237-0.944-1.255-1.089c-0.018-0.148,0.088-0.245,0.142-0.295c1.034-1.138,2.733,0.253,2.868,0.357l1.723,0.944   c0.138,0.077,0.307,0.063,0.43-0.032c0.124-0.096,0.18-0.255,0.144-0.407c-0.069-0.286-0.684-2.808-1.073-3.516   C5.188,9.215,4.573,7.997,4.439,7.731C4.299,6.984,3.735,5.795,3.727,5.783C3.181,4.199,3.674,3.801,3.668,3.801   c0.211-0.109,0.395-0.131,0.563-0.073c0.307,0.109,0.528,0.478,0.585,0.607l0.772,1.821l0.564,0.88l1.3,2.71   c0.07,0.147,0.23,0.23,0.387,0.223c0.163-0.013,0.301-0.124,0.348-0.28l0.044-0.147C8.257,9.457,8.253,9.366,8.22,9.282   C7.812,8.256,6.962,4.813,6.946,4.75l-0.54-1.639c-0.549-1.073,0.006-1.44,0.063-1.478c0.589-0.188,0.834-0.065,0.889,0.046   L8.025,3.11l2.302,6.032c0.07,0.184,0.262,0.289,0.457,0.245c0.192-0.044,0.322-0.222,0.306-0.418   c-0.092-1.104-1.092-5.28-1.147-5.498C9.383,1.904,9.564,1.399,9.633,1.281c0.037-0.062,0.07-0.072,0.053-0.073   c0.061-0.004,0.13-0.014,0.189-0.043c0.271-0.139,0.438-0.089,0.54-0.041c0.506,0.242,0.892,1.289,1.023,1.919   c0.106,0.376,0.224,0.86,0.361,1.444c-0.001,0.001-0.003,0.001-0.004,0.002c-0.114,0.063-1.098,0.675-0.301,2.979   c0.159,0.334,0.589,1.315,0.674,1.838c0.007,0.04,0.019,0.079,0.037,0.115c0,0,0.746,1.486,1.084,2.101   c0.207,0.375,0.54,1.546,0.777,2.45l-0.865-0.469c-0.809-0.677-2.662-1.597-3.848-0.284c-0.046,0.036-0.449,0.371-0.394,0.941   c0.06,0.614,0.611,1.178,1.661,1.711c0.77,0.461,2.899,1.829,3.491,2.624c0.289,0.389,1.202,1.209,1.431,1.307l1.186,0.902   c0,0,0.009,0.009,0.014,0.013l-5.836,1.978l-0.267-0.994c-0.069-0.442-0.634-1.581-0.746-1.804   c-0.008-0.017-0.023-0.027-0.033-0.042c-0.011-0.016-0.016-0.033-0.029-0.048C9.402,19.344,8.775,18.746,8.742,18.718z    M11.795,27.514c-0.298,0.099-0.621-0.058-0.721-0.356l-0.938-2.765c-0.101-0.296,0.059-0.62,0.356-0.721l6.879-2.332   c0.115,0.117,0.23,0.236,0.336,0.351c0.256,0.512,0.611,1.293,0.655,1.562l0.292,1.097c-0.466,0.202-0.771,0.634-0.823,1.117   L11.795,27.514z M28.35,26.169l-8.034,2.724c-0.15,0.05-0.311,0.041-0.453-0.03c-0.142-0.069-0.248-0.191-0.299-0.342l-0.922-2.719   c-0.105-0.309,0.062-0.647,0.372-0.752l8.034-2.724c0.063-0.021,0.126-0.032,0.191-0.032c0.09,0,0.179,0.02,0.262,0.062   c0.142,0.069,0.248,0.191,0.299,0.342l0.922,2.719C28.826,25.726,28.66,26.064,28.35,26.169z"/></g></svg>