<?xml version="1.0" ?><svg id="Layer_1" style="enable-background:new 0 0 30 30;" version="1.1" viewBox="0 0 30 30" xml:space="preserve" xmlns="http://www.w3.org/2000/svg" xmlns:xlink="http://www.w3.org/1999/xlink"><style type="text/css">
	.st0{fill:none;stroke:#000000;stroke-width:0.7;stroke-linecap:round;stroke-linejoin:round;stroke-miterlimit:10;}
	.st1{fill:#69AA45;}
	.st2{fill:#78CA4A;}
	.st3{fill:#E04951;}
	.st4{fill:#E49F57;}
	.st5{opacity:0.41;fill:#B50D0A;}
	.st6{opacity:0.38;fill:#FFB5B7;}
	.st7{opacity:0.26;fill:#F6F9F4;}
</style><g><path class="st0" d="M18.968,2.258"/><ellipse class="st1" cx="20.109" cy="2.015" rx="0.351" ry="0.584" transform="matrix(0.473 -0.881 0.881 0.473 8.8214 18.7783)"/><path class="st2" d="M3.324,4.498l2.06-0.033L9.566,3.75l0.932-0.054L9.794,2.208l1.085-1.614l1.597,2.283l1.037,1.52l2.176,0.899   l0.889,0.131l0.345,0.262l2.045-3.431l0.395-1.115l0.978,0.294l0.75,0.827l-2.144,4.524l1.284,1.025l1.868,2.218l3.233,1.629   l1.584,2.863l0.709,2.268l-2.481-1.91l-2.325-1.438l-0.377-0.203l0.471,2.138l-1.335,2.558c0,0-0.659-1.356-0.563-1.535   c0.096-0.179-1.371-2.47-1.371-2.47l-1.404-2.947l-2.206,2.781L13.95,15.19l-0.581,0.241l-0.305-2.951c0,0-0.169-0.977-0.027-1.17   c0.142-0.193,0.83-1.905,0.878-1.994c0.048-0.09,0.389-0.443,0.389-0.443s-0.902-0.179-1.072-0.078   C13.062,8.895,10.135,9.153,9.9,9.21C9.664,9.267,6.545,9.981,6.545,9.981l1.716-3.124l1.758-0.906L5.704,6.524   c0,0-1.228-0.081-2.437-1.347L3.324,4.498z"/><path class="st3" d="M7.034,7.391L8.249,7.1L6.2,10.323l3.21-1.062l4.502-0.469l0.392,0.08c0,0-1.868,1.907-1.255,3.814   c0,0,0.578,2.297,0.228,3.128c0,0,2.511-1.698,3.236-2.368c0,0,1.662-2.126,1.726-2.461l1.38,2.761l1.395,2.656l0.059,2.151   l1.315-1.875l0.369-0.149l-0.004,1.192c0,0-1.636,5.021-3.269,6.088s-9.134,4.92-9.134,4.92S5.158,31.161,3.4,25.748l-0.839-6.731   l-0.017-4.884l0.439-2.539C2.983,11.593,6.003,7.202,7.034,7.391z"/><ellipse class="st4" cx="4.502" cy="12.471" rx="1.505" ry="0.336" transform="matrix(0.473 -0.881 0.881 0.473 -8.6147 10.5384)"/><ellipse class="st4" cx="12.805" cy="18.229" rx="1.145" ry="0.428" transform="matrix(0.473 -0.881 0.881 0.473 -9.3123 20.8877)"/><ellipse class="st4" cx="15.685" cy="21.075" rx="1.145" ry="0.428" transform="matrix(0.473 -0.881 0.881 0.473 -10.3023 24.9249)"/><ellipse class="st4" cx="10.482" cy="21.687" rx="1.145" ry="0.428" transform="matrix(0.473 -0.881 0.881 0.473 -13.5837 20.663)"/><ellipse class="st4" cx="19.267" cy="16.527" rx="1.145" ry="0.428" transform="matrix(0.473 -0.881 0.881 0.473 -4.4082 25.6845)"/><ellipse class="st4" cx="7.765" cy="11.652" rx="1.145" ry="0.428" transform="matrix(0.473 -0.881 0.881 0.473 -6.1739 12.9809)"/><ellipse class="st4" cx="10.651" cy="16.465" rx="1.145" ry="0.428" transform="matrix(0.473 -0.881 0.881 0.473 -8.8941 18.0605)"/><ellipse class="st4" cx="5.915" cy="26.192" rx="1.145" ry="0.428" transform="matrix(0.473 -0.881 0.881 0.473 -19.9599 19.0135)"/><ellipse class="st4" cx="5.551" cy="14.273" rx="1.145" ry="0.428" transform="matrix(0.473 -0.881 0.881 0.473 -9.6495 12.4122)"/><ellipse class="st4" cx="17.377" cy="22.677" rx="1.145" ry="0.428" transform="matrix(0.473 -0.881 0.881 0.473 -10.8222 27.2592)"/><ellipse class="st4" cx="13.439" cy="22.507" rx="1.059" ry="0.336" transform="matrix(0.473 -0.881 0.881 0.473 -12.7477 23.7003)"/><ellipse class="st4" cx="17.149" cy="14.886" rx="1.059" ry="0.336" transform="matrix(0.473 -0.881 0.881 0.473 -4.0789 22.9532)"/><ellipse class="st4" cx="10.707" cy="11.428" rx="1.059" ry="0.336" transform="matrix(0.473 -0.881 0.881 0.473 -4.4263 15.4554)"/><ellipse class="st4" cx="11.39" cy="25.813" rx="1.059" ry="0.336" transform="matrix(0.473 -0.881 0.881 0.473 -16.7407 23.6374)"/><ellipse class="st4" cx="8.433" cy="19.175" rx="1.059" ry="0.336" transform="matrix(0.473 -0.881 0.881 0.473 -12.4499 17.5345)"/><ellipse class="st4" cx="16.488" cy="17.537" rx="1.059" ry="0.336" transform="matrix(0.473 -0.881 0.881 0.473 -6.7624 23.7684)"/><ellipse class="st4" cx="5.583" cy="17.96" rx="1.059" ry="0.336" transform="matrix(0.473 -0.881 0.881 0.473 -12.8815 14.3837)"/><ellipse class="st4" cx="7.292" cy="22.721" rx="1.165" ry="0.336" transform="matrix(0.473 -0.881 0.881 0.473 -16.1756 18.3979)"/><ellipse class="st4" cx="5.288" cy="21.521" rx="1.165" ry="0.336" transform="matrix(0.473 -0.881 0.881 0.473 -16.1744 15.9997)"/><ellipse class="st4" cx="8.329" cy="27.081" rx="1.505" ry="0.336" transform="matrix(0.473 -0.881 0.881 0.473 -19.4699 21.6089)"/><ellipse class="st4" cx="18.146" cy="19.326" rx="1.505" ry="0.336" transform="matrix(0.473 -0.881 0.881 0.473 -7.4651 26.1716)"/><ellipse class="st4" cx="9.08" cy="14.459" rx="1.505" ry="0.336" transform="matrix(0.473 -0.881 0.881 0.473 -7.9541 15.6189)"/><path class="st1" d="M10.169,3.9c0,0,1.67,1.07,0.521-3.109c0,0-0.934,1.369-0.648,2.105L10.169,3.9z"/><path class="st1" d="M14.685,8.49l-8.224,1.581C6.461,10.072,12.329,4.339,14.685,8.49z"/><path class="st1" d="M10.524,6.088L5.325,6.261L3.912,5.736C3.886,5.658,10.687,4.133,10.524,6.088z"/><path class="st1" d="M18.504,10.648l-1.99,2.798l-3.145,1.985C13.37,15.431,14.588,11.148,18.504,10.648z"/><path class="st1" d="M27.301,16.223l-3.101-1.474l-2.026-1.906C22.174,12.843,26.129,12.454,27.301,16.223z"/><path class="st1" d="M21.727,17.574l-2.509-3.646l-0.939-3.244C18.279,10.685,23.164,13.261,21.727,17.574z"/><path class="st5" d="M21.434,20.686c0.553-1.133,1.779-3.038,1.152-3.143c-0.245-0.041-0.732-0.191-1.561-0.396   c-0.041-0.715-0.242-1.548-0.858-2.296l-1.725-3.465l-2.219,2.283l-2.817,2.027l0,0L4.975,27.943c0,0-0.653,3.475,6.568,0.423   C18.761,25.314,19.982,23.661,21.434,20.686z"/><path class="st6" d="M3.603,15.225c0.413-2.604,2.677-4.41,5.056-4.032c2.379,0.377,3.973,2.795,3.56,5.399   c-0.413,2.604-2.082,0.617-4.461,0.239S3.189,17.83,3.603,15.225z"/><polygon class="st1" points="19.943,2.324 18.186,6.83 18.861,6.985 20.834,2.404  "/><path class="st7" d="M17.66,7.626C17.4,8.51,15.319,8.997,13.248,8.069c-3.926-1.759-3.117-1.331-2.858-2.215   c0.259-0.883-0.445-3.432,4.453-0.615C16.81,6.37,17.919,6.743,17.66,7.626z"/><path class="st7" d="M22.139,16.941c-0.722,0.244-0.712-2.309-1.269-3.482c-0.706-1.488-2.167-2.441-1.807-3.112   c0.36-0.671,0.438-1.803,1.437-1.702C22.138,8.811,23.519,16.475,22.139,16.941z"/><ellipse class="st1" cx="17.425" cy="7.141" rx="1.046" ry="3.174" transform="matrix(0.473 -0.881 0.881 0.473 2.8904 19.1153)"/><path d="M16.374,7.122c0.261,0.328,0.578,0.593,0.942,0.788c0.02,0.011,0.039,0.021,0.059,0.031   c0.262,0.133,0.541,0.227,0.831,0.28c0.206,0.037,0.404-0.1,0.442-0.307c0.038-0.207-0.101-0.405-0.307-0.442   c-0.216-0.039-0.426-0.109-0.621-0.209c-0.289-0.149-0.545-0.355-0.751-0.615c-0.131-0.161-0.369-0.191-0.535-0.061   C16.27,6.719,16.243,6.958,16.374,7.122z"/><path d="M19.699,9.241c-0.887,0.006-1.888-0.266-2.82-0.766c-1.172-0.629-2.108-1.562-2.504-2.497   c-0.082-0.192-0.304-0.284-0.499-0.202c-0.193,0.082-0.283,0.305-0.202,0.499c0.468,1.104,1.505,2.15,2.844,2.87   c1.042,0.559,2.173,0.863,3.186,0.857c0.209-0.002,0.378-0.173,0.378-0.382C20.082,9.409,19.91,9.24,19.699,9.241z"/><ellipse class="st1" cx="20.194" cy="1.857" rx="0.531" ry="0.626" transform="matrix(0.473 -0.881 0.881 0.473 9.0056 18.7697)"/><path d="M28.023,16.813l-0.676-1.93c-0.411-2.79-2.712-4.034-2.846-4.108l-2.115-0.953l-1.179-1.54   c-0.723-0.751-1.466-1.31-1.856-1.584l1.947-4.326c0.166-0.475-0.326-0.951-0.591-1.167c-0.78-0.478-1.369-0.23-1.601-0.014   c-0.045,0.041-0.079,0.094-0.1,0.151c-0.412,1.16-1.707,3.099-2.229,3.857c-0.642-0.395-1.487-0.546-1.635-0.568   c-0.918-0.043-1.552-0.546-1.733-0.706c-0.625-1.692-2.301-3.533-2.373-3.612c-0.12-0.131-0.314-0.161-0.468-0.074   C10.01,0.555,9.673,1.228,9.642,1.292C9.252,2.04,9.416,2.749,9.716,3.276C7.936,3.319,5.536,3.98,5.373,4.029   C4.38,4.466,3.155,4.151,3.142,4.148c-0.154-0.041-0.317,0.019-0.409,0.15c-0.091,0.13-0.092,0.304,0,0.435l0.659,0.939   C4.745,7.285,7.118,6.721,7.23,6.692c0.034-0.009,0.08-0.016,0.116-0.025C7.339,6.672,7.331,6.675,7.324,6.679L6.96,6.902   C6.186,7.375,5.387,7.863,4.715,8.506c-0.76,0.728-1.407,1.68-1.924,2.832c-0.418,0.932-0.557,1.902-0.69,2.839l-0.037,0.256   c-0.187,1.289-0.093,2.563-0.002,3.797l0.013,0.18c0.017,0.23,0.053,0.457,0.089,0.685c0.032,0.2,0.064,0.401,0.079,0.602   l0.033,0.433c0.057,0.725,0.116,1.477,0.115,2.21c-0.001,1.882,0.344,3.473,1.053,4.864c0.352,0.693,0.869,1.535,1.778,2.023   c0.05,0.027,0.103,0.053,0.156,0.078c0.05,0.031,0.1,0.06,0.151,0.087c0.908,0.488,1.896,0.453,2.669,0.365   c1.552-0.177,3.069-0.77,4.636-1.811c0.606-0.403,1.262-0.766,1.895-1.119l0.39-0.217c0.176-0.099,0.36-0.182,0.544-0.267   c0.21-0.095,0.421-0.192,0.621-0.305l0.153-0.087c1.08-0.605,2.197-1.232,3.168-2.102l0.19-0.17   c0.709-0.63,1.442-1.281,1.989-2.145c0.674-1.067,1.11-2.133,1.297-3.168c0.127-0.703,0.106-1.166,0.08-1.752l-0.015-0.378   c-0.002-0.063-0.019-0.122-0.046-0.175c0.288-0.895,0.153-1.57,0.018-1.924l0.523,0.396l1.813,1.13   c1.389,0.669,1.876,1.459,1.878,1.464c0.098,0.169,0.309,0.236,0.487,0.154C28,17.201,28.087,16.998,28.023,16.813z M22.227,18.213   c-0.167,0.925-0.563,1.886-1.177,2.858c-0.481,0.761-1.136,1.344-1.831,1.961l-0.192,0.171c-0.901,0.806-1.927,1.382-3.014,1.993   l-0.153,0.086c-0.18,0.101-0.368,0.187-0.555,0.271c-0.206,0.094-0.412,0.188-0.609,0.299l-0.388,0.216   c-0.647,0.36-1.318,0.732-1.953,1.154c-1.451,0.964-2.842,1.51-4.255,1.671c-1.027,0.118-1.714,0.01-2.285-0.341   c-0.008-0.004-0.018-0.004-0.027-0.008c-0.008-0.005-0.014-0.013-0.022-0.018C4.995,28.18,4.53,27.422,4.219,26.81   c-0.646-1.266-0.96-2.728-0.959-4.469c0.001-0.767-0.059-1.535-0.117-2.278l-0.034-0.43c-0.017-0.227-0.052-0.451-0.088-0.675   c-0.032-0.203-0.065-0.407-0.079-0.612l-0.014-0.181c-0.092-1.24-0.178-2.412-0.004-3.607l0.037-0.258   c0.131-0.918,0.255-1.785,0.623-2.605c0.471-1.049,1.054-1.91,1.732-2.56C5.873,8.601,6.562,8.166,7.242,7.75   c-0.973,1.265-1.574,2.641-1.618,2.745c-0.072,0.169-0.012,0.367,0.142,0.468c0.156,0.103,0.359,0.076,0.486-0.059   c1.124-1.204,5.18-1.6,7.356-1.684c-1.459,2.364-0.915,4.361-0.879,4.482c0.41,1.071,0.183,2.311,0.181,2.323   c-0.032,0.167,0.051,0.329,0.194,0.406c0.03,0.016,0.062,0.028,0.097,0.036c0.2,0.045,0.4-0.077,0.451-0.276   c0.05-0.194,0.3-0.461,0.345-0.513c2.496-1.357,3.663-2.749,4.205-3.703c0.524,1.285,1.572,2.792,1.736,3.024   c1.51,2.004,0.555,3.82,0.513,3.897c-0.085,0.156-0.051,0.351,0.083,0.468c0.14,0.119,0.33,0.127,0.474,0.022   c0.318-0.232,0.962-1.244,1.294-1.786C22.288,17.788,22.269,17.982,22.227,18.213z M25.823,15l-1.748-1.09L22.6,12.788   c-0.103-0.081-0.244-0.1-0.367-0.052l-0.132,0.051c-0.097,0.038-0.176,0.114-0.215,0.212c-0.04,0.097-0.038,0.206,0.005,0.302   l0.429,0.926c0.027,0.042,0.658,1.045-0.511,2.717c-0.083,0.139-0.172,0.284-0.262,0.427c-0.001-0.806-0.226-1.796-0.998-2.819   c-0.761-1.079-1.947-3.062-1.884-3.793c0.018-0.205-0.134-0.384-0.337-0.408c-0.205-0.023-0.39,0.124-0.419,0.328   c-0.003,0.021-0.332,2.132-4.176,4.287c-0.016-0.459-0.089-0.994-0.284-1.504c-0.006-0.02-0.567-2.081,1.196-4.409   c0.087-0.116,0.102-0.27,0.037-0.4c-0.036-0.072-0.092-0.128-0.16-0.165c-0.055-0.03-0.118-0.046-0.182-0.045   C14.105,8.443,9.494,8.489,6.94,9.583c0.724-1.27,2.014-3.099,3.486-3.205c0.205-0.015,0.361-0.19,0.353-0.395   c-0.009-0.205-0.178-0.368-0.383-0.365C10.304,5.62,8.144,5.644,7.035,5.958c-0.02,0.004-2.01,0.476-3.04-0.747L3.86,5.017   c0.515,0.029,1.172-0.009,1.769-0.274c0.033-0.009,3.297-0.909,4.863-0.671c0.168,0.026,0.333-0.064,0.403-0.22   c0.07-0.156,0.027-0.339-0.103-0.449c-0.04-0.033-0.965-0.822-0.47-1.77c0.047-0.098,0.193-0.348,0.384-0.543   c0.483,0.568,1.593,1.957,2.017,3.173c0.018,0.051,0.046,0.098,0.084,0.137c0.037,0.037,0.897,0.926,2.255,0.984   c0.296,0.05,1.147,0.261,1.543,0.629c0.08,0.074,0.189,0.111,0.298,0.101c0.109-0.011,0.208-0.068,0.272-0.158   c0.079-0.111,1.895-2.664,2.502-4.237c0.096-0.039,0.291-0.068,0.589,0.1c0.121,0.101,0.254,0.255,0.295,0.338l-2.034,4.517   c-0.077,0.172-0.017,0.375,0.143,0.477c0.01,0.006,1.035,0.663,1.961,1.622l1.21,1.584c0.037,0.049,0.09,0.092,0.146,0.116   l2.181,0.982c0,0,0,0,0.001,0.001c0.041,0.022,2.074,1.134,2.443,3.604l0.171,0.493C26.514,15.368,26.195,15.177,25.823,15z"/></g></svg>