<?xml version="1.0" ?><svg id="Layer_1" style="enable-background:new 0 0 30 30;" version="1.1" viewBox="0 0 30 30" xml:space="preserve" xmlns="http://www.w3.org/2000/svg" xmlns:xlink="http://www.w3.org/1999/xlink"><style type="text/css">
	.st0{fill:#39B54A;}
	.st1{fill:#5B4531;}
	.st2{fill:#6B6256;}
	.st3{fill:#009245;}
</style><g><path class="st0" d="M14.425,1.234l-1.952,2.897c0,0-1.397,1.171,0.185,1.438l-1.87,2.527c0,0-0.473,1.048,1.253,0.555   l-2.507,3.082c0,0-0.205,1.233,1.685,0.103L8.61,15c0,0-0.247,0.842,2.219,0l-2.753,3.431l2.409-0.164   c0,0,3.791-1.505,10.586,0.164c0,0,1.865,0.098,0-1.212L19.13,15.77c0,0-0.94-1.294,1.171-0.354c0,0,1.603,0.277-0.062-1.341   s-2.204-1.818-2.204-1.818s-1.125-1.264,1.433-0.062c0,0,1.88,0.231-1.402-2.62l-0.94-1.202l1.125,0.37l-1.587-2.928l-0.17-0.231   l0.632-0.262L14.425,1.234z"/><path class="st1" d="M12.863,18.205c0.041,0.699,1.89,3.581,0,10.995h4.684c0,0-2.589-5.158-1.438-8.714l1.438-2.816h-1.068   l-1.139,2.494l-1.943-2.741L12.863,18.205z"/><path class="st2" d="M16.824,29.526c-0.907-1.282-1.989-3.93-1.989-6.141c0-2.336,1.136-4.69,2.132-5.961l-1.088,4.637   L16.824,29.526z"/><path class="st3" d="M14.385,3.149L15.7,4.96c0,0-1.418-0.407-0.657,0.672l1.637,2.219c0,0-2.17,0.356-1.009,1.816l1.237,1.368   c0,0-1.094,0.183-0.385,1.129l1.479,1.664c0,0-1.865-0.137-0.909,1.206l2.049,2.335l0.94,1.065c0,0,2.558,0.828,0.894-1.279   l-1.71-1.923c0,0-0.17-0.58,1.51,0.336c1.68,0.916-1.094-1.755-1.094-1.755l-1.556-1.74c0,0-0.385-0.626,1.109,0.076   c0,0,1.587,0.153-0.231-1.404l-2.065-1.709c0,0-0.709-0.778,1.233-0.305s-2.019-3.129-2.019-3.129s1.541,0.519,0.37-1.145   c0,0-1.89-1.918-2.239-3.058C14.282,1.399,13.419,1.612,14.385,3.149z"/><path d="M22.153,17.973c-0.695-0.909-1.425-1.648-2.058-2.213c1.137,0.271,1.377,0.109,1.528-0.129   c0.109-0.172,0.158-0.459-0.224-0.85c-0.182-0.186-1.285-1.287-2.189-2.19c0.019,0.004,0.038,0.007,0.055,0.01   c0.791,0.118,1.053-0.267,1.13-0.438c0.126-0.282,0.052-0.634-0.172-0.82c-0.168-0.139-1.239-1.245-2.181-2.227   c0.12,0.001,0.212-0.002,0.268-0.014c0.417-0.088,0.658-0.274,0.716-0.554c0.083-0.402-0.294-0.692-0.383-0.754   c-0.446-0.291-1.112-1.125-1.578-1.762c0.152-0.05,0.274-0.135,0.364-0.255c0.317-0.421,0.037-0.996-0.023-1.107   c-0.02-0.039-0.047-0.073-0.079-0.103c-1.856-1.728-2.473-3.854-2.479-3.875c-0.05-0.177-0.205-0.302-0.401-0.287   c-0.184,0.01-0.337,0.146-0.368,0.328c-0.293,1.734-1.731,2.87-1.784,2.915c-0.474,0.477-1.072,1.18-0.791,1.772   c0.11,0.232,0.315,0.362,0.533,0.433c-0.556,0.717-1.327,1.671-1.332,1.679c-0.144,0.17-0.582,0.689-0.307,1.164   c0.146,0.252,0.436,0.36,0.742,0.397L9.616,11.05c-0.374,0.515-0.71,1.093-0.368,1.477c0.074,0.084,0.246,0.273,0.796,0.159   l-1.517,1.961c-0.109,0.141-0.442,0.571-0.238,0.962c0.132,0.253,0.419,0.328,0.698,0.31l0.899-0.23L8.132,17.77   c-0.173,0.181-0.635,0.659-0.367,1.089c0.054,0.087,0.178,0.287,0.678,0.287c0.287,0,0.699-0.066,1.291-0.257   c0.861-0.35,1.768-0.605,2.712-0.769c0.723,1.548,1.114,3.363,1.114,5.278c0,1.969-0.408,3.834-1.171,5.408h-1.699   c-0.218,0-0.394,0.177-0.394,0.394s0.177,0.394,0.394,0.394h8.618c0.218,0,0.394-0.177,0.394-0.394s-0.177-0.394-0.394-0.394H17.58   c-0.836-1.584-1.3-3.563-1.3-5.595c0-1.959,0.681-3.661,1.377-5.085c1.651,0.265,2.75,0.68,2.815,0.7   c1.101,0.207,1.565,0.164,1.769-0.168C22.314,18.54,22.399,18.293,22.153,17.973z M15.491,23.21c0,2.039,0.434,3.953,1.223,5.595   h-3.47c0.713-1.607,1.106-3.457,1.106-5.408c0-1.937-0.387-3.777-1.092-5.378c0.054-0.006,0.108-0.013,0.163-0.019l1.237,2.159   c0.07,0.123,0.179,0.194,0.342,0.198c0.139,0,0.268-0.073,0.339-0.193l1.289-2.175c0.071,0.007,0.136,0.017,0.205,0.025   C16.139,19.473,15.491,21.202,15.491,23.21z M14.291,17.932c0.407-0.018,0.816-0.031,1.236-0.017   c0.076,0.003,0.146,0.011,0.221,0.014l-0.741,1.251L14.291,17.932z M13.491,17.202c-1.424,0.132-2.778,0.439-4.025,0.946   c-0.266,0.085-0.559,0.154-0.784,0.188c0.011-0.012,0.023-0.025,0.036-0.038l2.565-3.043c0.111-0.131,0.124-0.319,0.033-0.464   c-0.073-0.117-0.201-0.185-0.334-0.185c-0.032,0-0.065,0.004-0.098,0.012L9.21,15.054l2.383-3.08   c0.115-0.148,0.109-0.357-0.014-0.499c-0.123-0.143-0.33-0.178-0.492-0.085c-0.371,0.21-0.791,0.398-1.073,0.489   c0.052-0.09,0.126-0.206,0.234-0.354l2.042-2.62c0.101-0.129,0.111-0.307,0.026-0.446c-0.084-0.14-0.247-0.212-0.407-0.184   c-0.282,0.051-0.614,0.057-0.778,0.022c0.028-0.054,0.081-0.139,0.183-0.26c0.054-0.067,1.332-1.65,1.781-2.271   c0.091-0.125,0.099-0.292,0.022-0.427c-0.076-0.134-0.228-0.215-0.379-0.197c-0.207,0.018-0.472-0.018-0.515-0.044   c0-0.002-0.017-0.237,0.595-0.857c0.055-0.042,1.104-0.865,1.7-2.237c0.391,0.835,1.085,2.02,2.218,3.092   c0.035,0.081,0.067,0.183,0.085,0.188c0,0.001-0.097,0.048-0.427-0.023c-0.156-0.033-0.318,0.031-0.409,0.164   c-0.09,0.132-0.091,0.307-0.002,0.44c0.126,0.188,1.163,1.728,2.04,2.464c-0.216-0.01-0.611-0.047-0.942-0.087   c-0.169-0.02-0.326,0.066-0.4,0.215c-0.075,0.149-0.048,0.328,0.067,0.449c0.247,0.259,2.252,2.361,2.844,2.929   c-0.048,0.002-0.117,0.001-0.209-0.013c-0.28-0.042-1.083-0.352-1.524-0.537c-0.173-0.073-0.375-0.013-0.481,0.144   c-0.105,0.156-0.085,0.365,0.049,0.499c0,0,2.292,2.284,3.131,3.126c-0.404-0.08-1.102-0.265-2.3-0.679   c-0.192-0.066-0.401,0.022-0.486,0.205c-0.086,0.183-0.02,0.401,0.152,0.505c0.018,0.011,1.752,1.078,3.365,3.07   c-0.145-0.012-0.34-0.037-0.601-0.084c-0.079-0.031-1.767-0.675-4.21-0.886c-0.009-0.001-0.018-0.001-0.027-0.002   c-0.291-0.025-0.588-0.047-0.899-0.057c-0.639-0.021-1.262,0.005-1.875,0.054"/><path d="M20.987,28.806h-0.474c-0.218,0-0.394,0.177-0.394,0.394s0.177,0.394,0.394,0.394h0.474c0.218,0,0.394-0.177,0.394-0.394   S21.205,28.806,20.987,28.806z"/><path d="M9.344,28.806H8.396c-0.218,0-0.394,0.177-0.394,0.394s0.177,0.394,0.394,0.394h0.948c0.218,0,0.394-0.177,0.394-0.394   S9.562,28.806,9.344,28.806z"/></g></svg>