<?xml version="1.0" ?><svg id="Layer_1" style="enable-background:new 0 0 30 30;" version="1.1" viewBox="0 0 30 30" xml:space="preserve" xmlns="http://www.w3.org/2000/svg" xmlns:xlink="http://www.w3.org/1999/xlink"><style type="text/css">
	.st0{fill:#6E5B40;}
	.st1{fill:#DBB67E;}
	.st2{fill:#A3875E;}
</style><g><path class="st0" d="M10.554,8.587l4.055,4.78L15,18.907c0,0-4.362,6.472-8.465,6.472L10.554,8.587z"/><path class="st0" d="M19.156,9.011L15,13.366l-0.392,5.541c0,0,4.574,6.472,8.677,6.472L19.156,9.011z"/><path class="st1" d="M11.696,23.053c0,0,2.695-2.073,2.913-3.891c0,0,2.385,3.079,2.755,3.553c0,0-0.9,4.864-2.755,6.387   C14.608,29.101,11.907,26.267,11.696,23.053z"/><polygon class="st2" points="17.829,6.281 19.156,9.011 15,13.366 10.768,8.839 11.801,6.281  "/><path class="st1" d="M12.341,5.71c0,0,2.03-3.622,4.759-1.018l1.237,1.843h-6.25L12.341,5.71z"/><path d="M15.952,5.391c0.193,0,0.349-0.156,0.349-0.35c0-0.193-0.156-0.349-0.349-0.349s-0.349,0.156-0.349,0.349   C15.603,5.235,15.759,5.391,15.952,5.391z M16.056,4.854c0.069,0,0.126,0.056,0.126,0.126c0,0.069-0.056,0.126-0.126,0.126   c-0.069,0-0.126-0.056-0.126-0.126C15.93,4.91,15.986,4.854,16.056,4.854z"/><path d="M14.259,5.391c0.193,0,0.349-0.156,0.349-0.35c0-0.193-0.156-0.349-0.349-0.349s-0.349,0.156-0.349,0.349   C13.909,5.235,14.066,5.391,14.259,5.391z M14.155,4.854c0.069,0,0.126,0.056,0.126,0.126c0,0.069-0.056,0.126-0.126,0.126   c-0.069,0-0.126-0.056-0.126-0.126C14.03,4.91,14.086,4.854,14.155,4.854z"/><path d="M24.346,4.776c-0.224,0-0.406,0.182-0.406,0.406v3.009l-3.793,2.072c-0.653-2.03-1.387-3.811-2.227-5.086l2.085-1.916   c0.113-0.104,0.158-0.263,0.116-0.41l-0.597-2.092c-0.061-0.216-0.287-0.34-0.502-0.279c-0.216,0.061-0.341,0.287-0.28,0.502   l0.528,1.851l-1.833,1.685c-0.445-0.542-0.919-0.936-1.424-1.154C16,3.354,15.99,3.34,15.974,3.333   c-0.059-0.029-0.129-0.043-0.193-0.064c-0.041-0.013-0.081-0.03-0.122-0.041c-0.168-0.043-0.345-0.072-0.541-0.072   c-0.743,0-1.444,0.386-2.097,1.027L11.51,2.737l0.814-1.843c0.091-0.205-0.002-0.445-0.207-0.535   c-0.206-0.091-0.445,0.002-0.535,0.207L10.652,2.67c-0.069,0.157-0.033,0.34,0.091,0.458l1.733,1.658   c-1.08,1.342-2.009,3.346-2.756,5.362l-3.66-1.999V5.139c0-0.224-0.182-0.406-0.406-0.406c-0.224,0-0.406,0.182-0.406,0.406v3.25   c0,0.149,0.081,0.285,0.211,0.356l3.982,2.175c-0.291,0.835-0.549,1.655-0.774,2.419l-2.648,1.251   c-0.128,0.06-0.216,0.184-0.23,0.325l-0.284,2.7c-0.023,0.223,0.138,0.423,0.361,0.446c0.014,0.002,0.029,0.003,0.043,0.003   c0.205,0,0.381-0.156,0.403-0.364l0.26-2.472l1.8-0.85c-0.23,0.838-0.41,1.561-0.534,2.084c-1.538,6.497-1.692,8.224-1.674,8.959   c0.003,0.119,0.058,0.231,0.151,0.306c0.073,0.058,0.163,0.09,0.255,0.09c0.026,0,0.052-0.003,0.077-0.008   c0.167-0.032,2.609-0.534,4.908-2.141c0.567,3.462,2.692,5.777,2.787,5.879c0.077,0.083,0.184,0.13,0.297,0.13   c0.004,0,0.009,0,0.013-0.001c0.117-0.003,0.227-0.058,0.301-0.149c0.096-0.117,2.235-2.77,2.782-6.338   c2.398,1.832,5.061,2.426,5.232,2.462c0.028,0.006,0.057,0.009,0.084,0.009c0.09,0,0.179-0.031,0.252-0.088   c0.094-0.074,0.151-0.187,0.154-0.308c0.019-0.733-0.135-2.459-1.673-8.959c-0.156-0.659-0.319-1.319-0.485-1.974l1.897,0.896   l0.261,2.472c0.022,0.208,0.198,0.364,0.403,0.364c0.015,0,0.029-0.001,0.044-0.003c0.223-0.023,0.385-0.223,0.361-0.446   l-0.285-2.7c-0.015-0.141-0.102-0.264-0.23-0.325l-2.717-1.283c-0.204-0.769-0.417-1.522-0.639-2.252l4.148-2.265   c0.131-0.071,0.212-0.208,0.212-0.356v-3.25C24.753,4.958,24.57,4.776,24.346,4.776z M15.766,26.649   c-0.313,0.033-0.628,0.061-0.945,0.061c-0.554,0-1-0.025-1.45-0.096c-0.09-0.18-0.176-0.373-0.262-0.57   c0.564,0.102,1.134,0.172,1.711,0.172c0.398,0,0.794-0.033,1.187-0.082C15.928,26.315,15.848,26.483,15.766,26.649z M16.358,25.26   c-1.182,0.209-2.422,0.173-3.591-0.108c-0.081-0.24-0.152-0.489-0.218-0.745c0.747,0.183,1.51,0.3,2.288,0.3   c0.597,0,1.187-0.074,1.768-0.183C16.529,24.779,16.444,25.021,16.358,25.26z M14.692,20.13l1.884,2.24   c-1.194,0.218-2.442,0.173-3.454-0.026C13.727,21.718,14.264,20.981,14.692,20.13z M14.822,12.935l-3.666-4.168   c0.309-0.71,0.628-1.359,0.954-1.943h1.773v1.114c0,0.224,0.182,0.406,0.406,0.406s0.406-0.182,0.406-0.406V6.823h0.866v1.114   c0,0.224,0.182,0.406,0.406,0.406s0.406-0.182,0.406-0.406V6.823h1.54c0.307,0.62,0.597,1.3,0.869,2.018   c-0.049,0.021-0.094,0.052-0.132,0.092L14.822,12.935z M15.117,3.968c0.852,0,1.644,0.821,2.359,2.043H12.6   C13.425,4.746,14.281,3.968,15.117,3.968z M8.627,16.647c0.227-0.959,0.482-1.917,0.755-2.856c0.016-0.033,0.024-0.068,0.03-0.104   c0.277-0.945,0.572-1.869,0.886-2.746c0.003-0.004,0.007-0.006,0.01-0.01c0.019-0.035,0.026-0.072,0.034-0.109   c0.152-0.42,0.308-0.825,0.467-1.221l3.596,4.088l0.025,4.977c-0.115,0.356-0.259,0.687-0.416,1.007l-1.353,1.95   c-1.914,2.05-4.57,2.961-5.666,3.263C7.104,23.535,7.651,20.77,8.627,16.647z M12.423,22.999c0.768,0.209,1.603,0.326,2.566,0.326   c0.649,0,1.291-0.084,1.924-0.214c-0.029,0.183-0.056,0.367-0.094,0.545c-1.458,0.337-3.014,0.301-4.453-0.121   c-0.024-0.144-0.05-0.287-0.068-0.435C12.34,23.065,12.382,23.034,12.423,22.999z M14.619,28.613   c-0.198-0.254-0.472-0.642-0.762-1.12c0.305,0.022,0.621,0.03,0.964,0.03c0.169,0,0.334-0.024,0.503-0.033   C15.053,27.964,14.801,28.353,14.619,28.613z M22.625,24.722c-1.499-0.439-5.878-2.042-7.384-6.076l-0.025-4.948l3.862-4.038   c0.905,2.591,1.572,5.392,1.913,6.831C21.981,20.666,22.518,23.374,22.625,24.722z"/></g></svg>