<?xml version="1.0" ?><svg id="Layer_1" style="enable-background:new 0 0 30 30;" version="1.1" viewBox="0 0 30 30" xml:space="preserve" xmlns="http://www.w3.org/2000/svg" xmlns:xlink="http://www.w3.org/1999/xlink"><style type="text/css">
	.st0{fill:#F49FB4;}
	.st1{fill:#E27D0E;}
	.st2{fill:#D53127;}
	.st3{fill:#FDDA42;}
	.st4{fill:#2BB85A;}
	.st5{fill:#8BB73E;}
	.st6{fill:#B25313;}
	.st7{fill:#EA8743;}
	.st8{fill:#7A4B31;}
	.st9{fill:#E5C45A;}
</style><g><path class="st0" d="M9.795,1.73c0,0-0.783-1.526,0.834-0.671l3.174,2.401l1.007-0.6l1.373,0.366l0.732,0.061l2.197-1.984   c0,0,1.679-1.495,1.831,0.549c0,0-1.015,2.029-0.601,3.803c0,0,1.181,1.996-1.871,1.538l-2.289-2.197l-1.526,0.061l-0.855,0.599   l-2.075,1.782l-1.77-0.305l0.142-1.77L9.694,3.093L9.47,2.065L9.795,1.73z"/><path class="st1" d="M17.242,10.995c0,0-4.049-1.697-3.835,2.668c0,0,0.192,1.457,1.914,1.76l1.535-0.248l-0.031-1.145   C16.825,14.029,16.683,11.715,17.242,10.995z"/><path class="st2" d="M19.704,11.313c0,0-3.133-1.75-2.971,2.564l0.59,1.298l2.787,0.248l1.369-0.448h1.643l1.133-1.099   c0,0,0.983-2.726-1.295-4.191c0,0-2.564-0.473-3.011,1.31L19.704,11.313z"/><path class="st3" d="M11.332,11.008c0,0,2.024-0.488,1.272,2.258L11.179,15l-0.732-0.431l-0.061-0.977l0.427-0.692l0.448-1.139   l-0.163-0.692L11.332,11.008z"/><path class="st4" d="M9.795,8.668c0,0,0.509-1.282,2.93-0.122C12.725,8.546,11.769,10.316,9.795,8.668z"/><path class="st4" d="M16.184,9.394c0,0,0.509-1.282,2.93-0.122C19.114,9.272,18.158,11.042,16.184,9.394z"/><path class="st5" d="M4.81,12.737c0.081-0.163,1.831-1.953,1.831-1.953l1.119-1.343L9.47,9.685l0.346,1.404l0.285,1.811   l0.529,1.423l-1.16-0.164l-2.625-0.282l-0.831-0.518l-1.407-0.255L4.81,12.737z"/><path class="st6" d="M2.857,12.9c0,0-0.081-6.023,6.836-9.807l0.407,2.075c0,0-5.635,2.869-5.697,7.732H2.857z"/><path class="st7" d="M26.5,15.688l-0.732,2.096c0,0-16.501,2.893-22.096-0.7l-0.549-2.372c0,0,0.509,0.936,5.616,1.526   c0,0,2.503,0.96,5.026,0.846c0,0,2.34,0.313,3.642-0.155c0,0,2.686,0.773,5.473-0.224c0,0,1.434-0.142,2.62-0.875L26.5,15.688z"/><path class="st8" d="M3.305,13.266c0,0-0.366,1.267,0.61,1.984c0,0,1.587,1.343,4.38,0.626c0,0,3.418,1.679,5.356,0.748   c0,0,2.274,0.916,4.029-0.046c0,0,3.266,1.206,4.96-0.107c0,0,1.557,0.214,2.686-0.931c0,0,0.32,0.671,1.541-0.656   c0,0,0.229-2.838-3.678-0.427l-2.365,0.718c0,0-2.213-0.352-4.38,0.381c0,0-2.625-1.282-5.005-0.58c0,0-3.459-1.74-5.255-1.282   l-2.803-0.427"/><path class="st9" d="M25.93,17.743l-3.947,0.895v1.526l3.515-0.816l-1.399,0.938l0.4,1.28c-0.188,0.009-0.401,0.018-0.665,0.03   v-1.615l-4.293,0.57l-0.043,1.204c-0.009,0-0.018,0.001-0.028,0.001v-1.083l-4.324-0.122l-0.097,1.301   c-0.033,0-0.067,0.001-0.1,0.001l-0.088-1.181L11.5,20.561l0.025-0.172l1.445,0.058l0,0.002l3.947,0.102l0.407-1.597h-4.008   l-0.161,0.694l0.038-0.694l-3.5-0.417L9.486,20.18l-0.31-0.032l0.09-1.714L6.54,18.027l-0.246,1.601l-0.795-0.203l0.757,0.118   l-0.081-1.516l-2.136-0.529v1.699l0.585,0.091l0.351,2.086l0.097,0.03c-0.183-0.047-0.345-0.097-0.463-0.152l0.855,2.391   c0,0,1.075,0.241,2.788,0.496c-1.133-0.045-2.132-0.126-2.91-0.252l0.61,2.075l0.57,2.36c5.209,1.831,16.766,0.203,16.766,0.203   l0.366-2.157l0.855-2.767c0,0-0.145,0.011-0.402,0.03l1.012-2.095c0,0-0.217,0.011-0.574,0.027l0.615-0.404l0.341-1.813   l0.168-0.039L25.93,17.743z"/><polygon class="st9" points="21.698,20.164 21.597,18.536 17.731,18.953 17.242,20.55  "/><path class="st6" d="M21.169,3.459c0,0-1.221,0.57-0.692,2.116c0,0,4.313,2.362,5.453,7.936l1.221,0.366   C27.151,13.877,27.517,6.186,21.169,3.459z"/><path d="M21.182,3.073c0.023-0.077,0.046-0.16,0.066-0.226c0.204-0.694,0.259-0.881,0.161-1.259   c-0.172-0.667-0.482-1.06-0.919-1.166c-0.716-0.176-1.396,0.546-1.471,0.628c-0.42,0.467-1.928,1.549-2.474,1.928   c-0.025,0.017-0.026,0.048-0.045,0.07c-0.242-0.29-0.592-0.485-0.999-0.485h-0.486c-0.434,0-0.802,0.225-1.042,0.55   c-0.56-0.388-2.037-1.45-2.452-1.913c-0.075-0.083-0.746-0.805-1.472-0.628C9.611,0.678,9.302,1.07,9.13,1.737   C9.04,2.086,9.085,2.289,9.252,2.859C5.262,4.832,2.678,8.844,2.601,13.19c-0.049,0.083-0.07,0.183-0.046,0.285l0.857,3.766   l2.709,11.221c0.002,0.008,0.01,0.012,0.013,0.02c0.023,0.075,0.062,0.143,0.124,0.193c0.006,0.004,0.012,0.005,0.018,0.01   c0.034,0.024,0.069,0.047,0.111,0.06c1.096,0.333,2.407,0.557,4.057,0.695c0.006,0,0.011,0.003,0.017,0.003   c0.003,0,0.005-0.001,0.007-0.001c1.274,0.105,2.756,0.159,4.52,0.163c0.004,0,0.007,0.002,0.01,0.002   c0.003,0,0.006-0.002,0.01-0.002c0.082,0,0.155,0.002,0.239,0.002c3.515,0,6.005-0.189,7.837-0.593   c0.084-0.019,0.151-0.068,0.204-0.128c0.122-0.04,0.229-0.12,0.264-0.253l3.042-11.571V17.06l0.764-2.831   c0.003-0.012,0-0.023,0.002-0.035c0.002-0.011,0.014-0.017,0.015-0.029c0.052-0.474,0.079-0.882,0.079-1.214   C27.455,8.966,24.999,5.116,21.182,3.073z M19.528,1.506c0.183-0.204,0.56-0.479,0.8-0.421c0.07,0.017,0.136,0.076,0.197,0.159   c-1.297,1.338-2.41,1.811-3.126,1.966C18.032,2.758,19.129,1.95,19.528,1.506z M16.588,4.884c0.195,0.057,0.484,0.121,0.848,0.121   c0.43,0,0.946-0.091,1.473-0.393c0.164-0.094,0.22-0.303,0.127-0.467c-0.094-0.164-0.304-0.219-0.466-0.126   c-0.732,0.42-1.434,0.311-1.762,0.22c0.001-0.02,0.012-0.037,0.012-0.057V3.968c0.686-0.006,2.164-0.278,3.951-2.011   c-0.009,0.116-0.058,0.29-0.178,0.697c-0.064,0.215-0.143,0.486-0.241,0.837l-0.074,0.247c-0.173,0.554-0.409,1.313-0.115,2.31   l0.029,0.093c0.066,0.214,0.156,0.507,0.045,0.645c-0.067,0.083-0.329,0.266-1.294,0.188c-0.052-0.003-1.304-0.112-2.26-1.973   c-0.024-0.046-0.057-0.082-0.096-0.112C16.586,4.888,16.587,4.886,16.588,4.884z M14.38,3.88c0-0.35,0.285-0.635,0.635-0.635h0.486   c0.351,0,0.636,0.285,0.636,0.635v0.302c0,0.35-0.285,0.635-0.636,0.635h-0.486c-0.35,0-0.635-0.285-0.635-0.635V3.88z    M14.467,5.462c0.012-0.024,0.015-0.05,0.021-0.075c0.162,0.071,0.339,0.113,0.527,0.113h0.486c0.215,0,0.41-0.064,0.59-0.156   c1.147,2.2,2.745,2.309,2.801,2.311c0.176,0.015,0.34,0.022,0.491,0.022c0.688,0,1.133-0.151,1.385-0.464   c0.273-0.34,0.218-0.748,0.135-1.063c2.367,1.643,3.951,4.154,4.418,7.019c-0.182,0.009-0.373,0.034-0.575,0.084   c0.021-0.559,0.011-1.248-0.175-1.935c-0.136-0.5-0.348-0.9-0.649-1.224c-0.451-0.485-1.042-0.755-1.809-0.825   c-0.269-0.024-0.529-0.001-0.779,0.068c-0.672,0.187-1.154,0.591-1.46,1.18c-0.054-0.156-0.089-0.33-0.099-0.513   c-0.018-0.328,0.045-0.649,0.175-0.879c0.102-0.182,0.235-0.29,0.364-0.298c0.189-0.01,0.333-0.172,0.322-0.361   c-0.01-0.188-0.141-0.328-0.361-0.322c-0.368,0.021-0.704,0.256-0.922,0.647c-0.006,0.01-0.011,0.021-0.017,0.031L19.309,8.8   c-0.33-0.285-0.665-0.462-1.023-0.543c-0.467-0.105-0.947-0.039-1.465,0.201c-0.22,0.102-0.435,0.217-0.65,0.334l-0.23,0.124   c-0.078,0.041-0.154,0.085-0.231,0.13l-0.109,0.062c-0.088,0.05-0.149,0.136-0.168,0.235c-0.018,0.099,0.008,0.201,0.072,0.279   l0.058,0.064c0.371,0.335,0.751,0.567,1.164,0.709c0.825,0.284,1.597,0.206,2.289-0.232c0.026-0.016,0.052-0.035,0.08-0.059   c0.019,0.246,0.075,0.483,0.158,0.699l-0.157-0.03c-0.157-0.031-0.314-0.062-0.472-0.082c-0.428-0.058-0.807,0.012-1.132,0.204   c-0.024,0.014-0.043,0.037-0.066,0.052c-0.558-0.416-1.246-0.605-1.948-0.522c-0.063-0.089-0.156-0.152-0.27-0.133   c-0.123,0.021-0.194,0.122-0.218,0.237c-0.575,0.176-1.078,0.523-1.434,1.02c-0.429,0.599-0.599,1.33-0.479,2.056   c0.04,0.242,0.116,0.476,0.217,0.698c-0.332-0.03-0.672-0.038-1.019-0.007c0.481-0.598,0.775-1.259,0.81-1.902   c0.028-0.518-0.117-0.98-0.397-1.268c-0.165-0.169-0.53-0.32-0.804-0.29c-0.079-0.076-0.206-0.264-0.258-0.34   c-0.007-0.01-0.014-0.021-0.021-0.03c0.039-0.078,0.076-0.202-0.003-0.332c-0.044-0.073-0.159-0.131-0.259-0.149   c-0.296-0.064-0.675,0.296-0.753,0.387c-0.173,0.199-0.165,0.366-0.127,0.47c0.025,0.069,0.089,0.183,0.254,0.241   c0.087,0.092,0.242,0.288,0.247,0.463c0.005,0.462-0.126,0.849-0.4,1.195c-0.042-0.111-0.085-0.22-0.125-0.334   c-0.071-0.202-0.138-0.392-0.164-0.578c-0.042-0.298-0.07-0.598-0.096-0.899l-0.034-0.37c-0.048-0.483-0.257-0.852-0.636-1.107   c-0.094-0.056-0.191-0.1-0.287-0.139c0.422-1.71-0.597-2.342-0.644-2.369C8.415,6.85,8.212,6.907,8.116,7.066   c-0.095,0.16-0.042,0.369,0.116,0.467C8.26,7.551,8.853,7.954,8.566,9.138C8.416,9.117,8.318,9.115,8.317,9.117   C8.021,9.086,7.741,9.149,7.485,9.303c-0.282,0.171-0.533,0.413-0.747,0.722c-0.284,0.41-0.624,0.761-1.01,1.043   c-0.252,0.183-0.502,0.39-0.725,0.636c0.767-2.54,2.476-4.708,4.781-6.03C9.766,5.783,9.756,5.887,9.722,6.005L9.696,6.088   c-0.099,0.32-0.264,0.854,0.075,1.276c0.163,0.202,0.416,0.33,0.752,0.4c-0.286,0.084-0.555,0.232-0.816,0.469l-0.091,0.08   C9.549,8.372,9.473,8.438,9.43,8.48c-0.071,0.069-0.105,0.168-0.1,0.268c0.006,0.099,0.057,0.193,0.135,0.254   c0.034,0.026,0.093,0.086,0.16,0.15c0.168,0.163,0.276,0.266,0.368,0.32c0.359,0.215,0.737,0.322,1.132,0.322   c0.284,0,0.576-0.056,0.875-0.167c0.358-0.134,0.684-0.343,0.994-0.638c0.016-0.014,0.047-0.052,0.06-0.069   c0.06-0.08,0.082-0.182,0.061-0.28c-0.021-0.097-0.084-0.181-0.172-0.228l-0.494-0.258c-0.187-0.096-0.375-0.192-0.568-0.275   c-0.073-0.032-0.144-0.053-0.215-0.077C11.852,7.788,13.367,7.604,14.467,5.462z M21.39,15.391   c0.728-0.171,1.817-0.226,3.215,0.325c-0.312,0.245-0.832,0.482-1.503,0.361C22.844,15.951,22.213,15.659,21.39,15.391z    M22.139,16.499c-0.456,0.169-0.978,0.297-1.324,0.359c-0.952,0.166-1.923,0.013-2.882-0.452c-0.128-0.112-0.44-0.375-0.892-0.679   c0.555-0.099,1.004-0.088,1.035-0.087c0.671-0.034,1.351,0.056,1.983,0.195c0.016,0.004,0.032,0.009,0.048,0.011   C20.914,16.026,21.637,16.288,22.139,16.499z M20.095,15.045c-0.647-0.134-1.338-0.217-2.022-0.186   c-0.018,0-0.202-0.005-0.475,0.013c-0.216-0.352-0.384-0.713-0.47-1.085c-0.163-0.707-0.081-1.303,0.251-1.823   c0.145-0.227,0.292-0.38,0.462-0.48c0.193-0.114,0.418-0.153,0.693-0.115c0.145,0.02,0.288,0.048,0.432,0.076l0.233,0.044   c0.076,0.014,0.187,0.038,0.3,0.062c0.135,0.029,0.274,0.058,0.367,0.074c0.169,0.026,0.335-0.074,0.385-0.236   c0.002-0.005,0.004-0.01,0.006-0.015c0.021-0.059,0.06-0.167,0.065-0.181c0.195-0.634,0.586-1.025,1.196-1.194   c0.17-0.048,0.352-0.063,0.535-0.046c0.599,0.054,1.034,0.247,1.369,0.608c0.223,0.241,0.384,0.548,0.49,0.938   c0.178,0.658,0.175,1.323,0.147,1.888l-0.007,0.121c-0.433,0.207-0.896,0.525-1.379,0.99C21.342,14.44,20.442,14.85,20.095,15.045z    M18.899,9.348c-0.094,0.097-0.192,0.198-0.248,0.237c-0.516,0.327-1.073,0.381-1.701,0.164c-0.199-0.068-0.39-0.165-0.575-0.29   l0.121-0.065c0.201-0.109,0.403-0.218,0.61-0.314c0.383-0.177,0.711-0.226,1.029-0.155c0.25,0.056,0.481,0.181,0.727,0.393   L18.899,9.348z M10.969,15.273c0.081,0.047,1.081,0.629,1.991,1.23c-1.173-0.044-3.012-0.277-4.709-1.182   c-0.464-0.313-0.93-0.763-1.316-1.147C7.825,14.262,9.312,14.52,10.969,15.273z M6.045,13.349c-0.011,0-0.02,0.008-0.031,0.01   c-0.308-0.219-0.619-0.384-0.924-0.476c0.031-0.083,0.044-0.164,0.085-0.249c0.204-0.412,0.529-0.704,0.955-1.014   c0.448-0.327,0.841-0.732,1.169-1.206c0.159-0.229,0.34-0.406,0.539-0.526C7.967,9.81,8.094,9.779,8.276,9.799   c0.005,0,0.503,0.013,0.866,0.229c0.192,0.13,0.295,0.32,0.322,0.598l0.033,0.364c0.028,0.312,0.056,0.624,0.1,0.935   c0.036,0.252,0.117,0.484,0.197,0.711c0.06,0.17,0.124,0.338,0.189,0.506c0.068,0.176,0.136,0.352,0.197,0.531   c0.047,0.137,0.057,0.291,0.05,0.46C7.911,13.298,6.125,13.347,6.045,13.349z M11.509,11.287c0.124,0.109,0.263,0.171,0.419,0.132   c0.072-0.007,0.285,0.059,0.34,0.115c0.166,0.171,0.251,0.472,0.232,0.827c-0.019,0.345-0.182,1.229-1.211,2.121   c-0.039,0.011-0.078,0.019-0.117,0.031c-0.097-0.043-0.19-0.077-0.285-0.117c0.046-0.353,0.037-0.665-0.06-0.946   c-0.012-0.034-0.026-0.068-0.038-0.102c0.51-0.507,0.767-1.098,0.759-1.816C11.547,11.448,11.532,11.365,11.509,11.287z    M12.188,15.089c1.988-0.234,3.839,0.864,4.726,1.508c-1.624,0.449-2.309,0.106-2.865-0.296   C13.476,15.888,12.746,15.428,12.188,15.089z M16.462,13.94c0.081,0.351,0.228,0.691,0.404,1.024   c-0.244,0.045-0.504,0.11-0.768,0.203c-0.591-0.309-1.289-0.593-2.057-0.755c-0.192-0.269-0.33-0.575-0.385-0.903   c-0.094-0.573,0.039-1.148,0.377-1.619c0.338-0.472,0.839-0.784,1.412-0.879c0.557-0.09,1.1,0.039,1.549,0.34   c-0.064,0.079-0.13,0.149-0.191,0.244C16.366,12.278,16.255,13.045,16.462,13.94z M10.757,8.399   c0.26-0.064,0.532-0.031,0.853,0.108c0.18,0.077,0.354,0.167,0.528,0.256l0.029,0.015c-0.132,0.087-0.267,0.156-0.407,0.208   c-0.516,0.193-0.98,0.16-1.413-0.099c-0.042-0.028-0.106-0.09-0.173-0.155C10.371,8.555,10.557,8.449,10.757,8.399z M10.21,1.235   c0.234-0.057,0.618,0.217,0.801,0.421c0.393,0.438,1.466,1.229,2.102,1.685c-0.789-0.127-2.013-0.568-3.083-1.968   C10.087,1.303,10.147,1.25,10.21,1.235z M13.696,4.072v0.11c0,0.025,0.013,0.046,0.014,0.071c-0.298,0.075-1.049,0.19-1.804-0.293   c-0.16-0.103-0.371-0.057-0.472,0.103c-0.102,0.159-0.056,0.37,0.103,0.472c0.573,0.369,1.147,0.47,1.605,0.47   c0.357,0,0.632-0.06,0.795-0.106c0.024,0.036,0.045,0.074,0.073,0.108c-0.062,0.031-0.118,0.076-0.152,0.143   c-0.956,1.862-2.208,1.97-2.268,1.974c-0.959,0.078-1.219-0.106-1.286-0.189c-0.111-0.138-0.021-0.432,0.046-0.645l0.028-0.092   c0.293-0.997,0.058-1.755-0.114-2.309L10.188,3.64C10.09,3.289,10.01,3.017,9.947,2.802c-0.115-0.39-0.164-0.564-0.176-0.681   C11.277,3.853,12.996,4.07,13.696,4.072z M3.298,12.845c0.201-3.913,2.557-7.494,6.148-9.317C9.473,3.623,9.499,3.713,9.53,3.824   l0.081,0.268C9.685,4.331,9.759,4.587,9.8,4.867c-3.02,1.58-5.14,4.51-5.748,7.88C3.754,12.755,3.501,12.797,3.298,12.845z    M5.772,14.138c0.105,0.092,0.226,0.209,0.353,0.334c0.641,0.785,1.206,1.205,1.496,1.39c-0.93,0.072-2.214-0.024-3.02-0.907   c-0.085-0.093-0.181-0.179-0.286-0.272c-0.264-0.235-0.557-0.496-0.807-1.088C4.01,13.487,4.95,13.419,5.772,14.138z M4.342,17.763   c0.523,0.194,1.107,0.374,1.768,0.534v0.9C5.528,19.033,5,18.855,4.558,18.66L4.342,17.763z M4.782,19.585   c0.736,0.275,1.607,0.52,2.603,0.723v1.214c-0.907-0.222-1.704-0.479-2.323-0.775L4.782,19.585z M20.719,24.08   c-1.07,0.132-2.279,0.214-3.653,0.25v-1.229c1.281-0.049,2.512-0.149,3.653-0.302V24.08z M22.077,24.664v1.654   c-1.098,0.221-2.314,0.312-3.788,0.349v-1.599C19.732,24.996,20.975,24.861,22.077,24.664z M19.985,22.093   c0.003-0.019,0.012-0.037,0.012-0.057v-1.231c1.344-0.133,2.593-0.324,3.699-0.568v1.185   C22.626,21.708,21.363,21.934,19.985,22.093z M21.573,19.82c-0.628,0.091-1.277,0.174-1.958,0.236   c-0.003,0-0.006-0.002-0.009-0.002c-0.007,0-0.013,0.004-0.021,0.004c-0.601,0.055-1.224,0.094-1.855,0.125v-0.991   c1.349-0.057,2.643-0.161,3.843-0.313V19.82z M19.214,20.874v1.162c0,0.049,0.011,0.095,0.028,0.138   c-1.185,0.112-2.438,0.173-3.715,0.178v-1.326C16.801,21.022,18.036,20.969,19.214,20.874z M16.284,23.123v1.221   c-0.309,0.004-0.612,0.01-0.938,0.01c-0.7,0-1.368-0.018-2.022-0.045v-1.222c0.662,0.031,1.332,0.052,2.015,0.052   C15.658,23.138,15.971,23.129,16.284,23.123z M16.948,20.219c-0.523,0.017-1.051,0.028-1.584,0.028   c-0.555,0-1.105-0.01-1.647-0.028v-1.002c0.573,0.019,1.154,0.029,1.741,0.029c0.502,0,0.999-0.008,1.49-0.021V20.219z    M14.746,21.018v1.327c-1.04-0.014-2.052-0.064-3.021-0.147v-1.309C12.7,20.963,13.713,21.005,14.746,21.018z M12.544,23.043v1.231   c-1.274-0.076-2.457-0.209-3.563-0.395v-1.236C10.08,22.827,11.281,22.961,12.544,23.043z M12.936,20.179   c-1.07-0.054-2.095-0.142-3.062-0.262v-0.982c0.973,0.111,1.999,0.192,3.062,0.243V20.179z M10.945,20.819v1.307   c-0.994-0.107-1.93-0.247-2.779-0.421V20.45C9.032,20.601,9.962,20.725,10.945,20.819z M9.094,19.818   c-0.795-0.117-1.525-0.261-2.202-0.42v-0.93c0.686,0.142,1.42,0.266,2.202,0.371V19.818z M5.624,23.074l-0.335-1.389   c0.803,0.319,1.786,0.594,2.911,0.815v1.231c-0.896-0.179-1.745-0.393-2.536-0.653C5.65,23.074,5.637,23.077,5.624,23.074z    M6.247,25.653l-0.413-1.709c0.969,0.295,2.005,0.536,3.12,0.72v1.677C7.92,26.18,7.052,25.956,6.247,25.653z M10.07,28.625   c-1.291-0.125-2.34-0.314-3.244-0.572l-0.362-1.5c1.027,0.339,2.17,0.571,3.606,0.716V28.625z M9.735,26.451v-1.667   c1.093,0.151,2.261,0.25,3.503,0.303v1.58C11.87,26.634,10.717,26.567,9.735,26.451z M14.608,28.819   c-1.433-0.01-2.675-0.052-3.757-0.131v-1.345c1.063,0.079,2.31,0.117,3.757,0.128V28.819z M14.019,26.683v-1.566   c0.434,0.011,0.875,0.018,1.328,0.018c0.768,0,1.477-0.016,2.159-0.039v1.585c-0.66,0.009-1.358,0.012-2.134,0.012   C14.892,26.694,14.452,26.689,14.019,26.683z M19.214,28.712c-1.123,0.071-2.39,0.108-3.825,0.11v-1.347   c1.472,0,2.721-0.006,3.825-0.056V28.712z M22.842,28.264c-0.791,0.17-1.739,0.3-2.845,0.392v-1.284   c1.194-0.085,2.23-0.244,3.219-0.529L22.842,28.264z M23.45,25.95c-0.196,0.066-0.392,0.13-0.592,0.185v-1.623   c0.364-0.081,0.708-0.172,1.041-0.27L23.45,25.95z M24.134,23.35c-0.776,0.259-1.642,0.465-2.632,0.62v-1.291   c1.109-0.178,2.114-0.404,2.986-0.675L24.134,23.35z M24.722,21.11c-0.077,0.027-0.165,0.051-0.245,0.077V20.05   c0.197-0.051,0.381-0.107,0.566-0.162L24.722,21.11z M25.276,19.003c-0.824,0.273-1.816,0.507-2.921,0.696v-0.93   c1.171-0.175,2.231-0.396,3.156-0.658L25.276,19.003z M25.84,16.859l0,0.001l-0.001,0.002l-0.097,0.369   c-2.451,0.772-6.277,1.232-10.284,1.232c-4.701,0-9.042-0.618-11.334-1.615L3.756,15.23c0.013,0.012,0.027,0.025,0.04,0.036   c0.083,0.074,0.161,0.142,0.228,0.216c0.865,0.948,2.096,1.185,3.117,1.185c0.792,0,1.45-0.142,1.716-0.209   c1.765,0.706,3.508,0.839,4.52,0.839c0.373,0,0.642-0.017,0.78-0.028c0.401,0.197,0.848,0.324,1.407,0.324   c0.577,0,1.277-0.133,2.149-0.431c0.775,0.356,1.557,0.543,2.339,0.543c0.299,0,0.6-0.026,0.898-0.079   c0.532-0.093,1.535-0.354,2.171-0.74c0.11,0.014,0.219,0.027,0.324,0.027c0.917,0,1.62-0.492,1.996-0.909   c0.063,0.009,0.123,0.034,0.188,0.034c0.136,0,0.276-0.023,0.417-0.076c0.015-0.006,0.028-0.019,0.042-0.025L25.84,16.859z    M25.769,15.231c-0.16,0.064-0.356,0.015-0.699-0.167c-0.01-0.005-0.022-0.005-0.032-0.01c-0.47-0.195-0.917-0.337-1.331-0.425   c1.349-1.023,2.372-0.673,2.8-0.432C26.201,14.929,25.94,15.166,25.769,15.231z M26.753,13.457c-0.193-0.094-0.439-0.184-0.73-0.24   c-0.492-3.312-2.378-6.208-5.217-7.967c-0.029-0.018-0.061-0.007-0.092-0.015c-0.026-0.501,0.098-0.917,0.215-1.294l0.059-0.196   c3.524,1.943,5.784,5.515,5.784,9.206C26.772,13.102,26.765,13.272,26.753,13.457z"/></g></svg>