<?xml version="1.0" ?><svg id="Layer_1" style="enable-background:new 0 0 30 30;" version="1.1" viewBox="0 0 30 30" xml:space="preserve" xmlns="http://www.w3.org/2000/svg" xmlns:xlink="http://www.w3.org/1999/xlink"><style type="text/css">
	.st0{fill:#2CC0FE;}
	.st1{opacity:0.33;fill:#B5E7FE;}
	.st2{fill:#B49F77;}
	.st3{fill:#FDF288;}
	.st4{fill:#FFCA0A;}
</style><path d="M447.894,207.354"/><path class="st0" d="M456.389,198.592c0,0-1.19-1.19-4.212,0c0,0-5.861-5.448-11.538,1.282c0,0-8.012-0.183-7.6,7.417  c0,0-9.478,5.54,0.504,10.027c0,0,4.395,6.685,10.256,1.557c0,0,7.509,5.586,10.256-0.824c0,0,6.227,7.326,9.981,0.275  c0,0,6.685,6.501,11.629-0.641c0,0,12.091,4.53,11.355-9.731c0,0-2.198-4.005-5.036-3.73c0,0-1.74-9.615-8.791-7.142  c0,0-8.516-4.212-12.362,1.19C460.83,198.272,457.382,198.106,456.389,198.592z"/><path class="st1" d="M462.395,200.646c0,0,4.891-6.325,9.298,0c0,0,6.838-2.806,8.459,4.196c0.101,0.435,0,1.786,0,1.786  s3.022-0.069,4.739,2.335c0,0,1.648,8.104-8.104,7.211c0,0,0.036-0.57-2.974,2.383l1.852-0.873c0,0,7.917,3.022,11.387-4.327  c0,0,1.959-6.387-4.359-9.134c0,0-2.083-9.546-10.382-7.005c0,0-6.444-4.876-11.046,0.893c0,0-2.678,1.292,0.824,2.535"/><path class="st1" d="M454.02,201.805c0,0-5.002-7.52-9.409-0.939c0,0-6.726-1.981-8.348,5.305c-0.101,0.453,0,1.858,0,1.858  s-3.421-0.391-4.229,2.533c-0.807,2.918-0.129,6.035,9.658,6.478c0.88,0.04,5.185,0.973,0.911,3.402c0,0-0.538-0.348-0.739-0.414  c-3.054-1.017-7.005-0.927-11.69-5.391c0,0-0.932-5.626,3.62-7.978c0,0-0.137-7.337,10.31-8.421c0,0,0.61-4.583,13.693,0.98  c0,0,0.031,1.293-3.471,2.586"/><ellipse class="st1" cx="468.287" cy="202.789" rx="11.538" ry="6.288"/><path class="st1" d="M453.524,203.267c-2.015,1.899-4.165,5.453-9.304,5.453s-9.304-2.441-9.304-5.453  c0-1.815,2.792-2.729,5.723-4.033c1.934-0.86,3.635-2.503,5.677-2.503C451.455,196.73,456.079,200.859,453.524,203.267z"/><path d="M486.513,206.083c-0.927-1.055-1.867-1.767-2.96-2.242c-0.2-0.086-0.401-0.162-0.607-0.229  c-0.564-2.941-1.856-5.064-3.85-6.311c-1.912-1.199-3.968-1.531-6.076-0.942c-0.725-0.672-1.567-1.218-2.462-1.595  c-2.402-1.011-5.142-0.754-7.522,0.696c-0.266,0.163-0.522,0.34-0.723,0.502c-0.76,0.533-1.406,1.203-1.893,1.959  c-0.547-0.068-1.1-0.083-1.685-0.047c-0.356,0.022-0.711,0.091-1.069,0.183c-1.679-0.891-3.461-1.122-5.28-0.618  c-0.694-0.638-1.496-1.158-2.346-1.515c-2.303-0.969-4.936-0.725-7.224,0.669c-0.255,0.155-0.499,0.325-0.693,0.48  c-0.724,0.508-1.339,1.145-1.805,1.864c-0.52-0.064-1.039-0.077-1.594-0.043c-1.002,0.061-1.988,0.403-3.103,1.074  c-1.453,0.876-2.538,2.413-3.138,4.448c-0.205,0.696-0.296,1.459-0.27,2.242c-1.261,0.403-2.368,1.195-3.112,2.244  c-1.852,2.614-1.579,6.073,0.635,8.046c1.068,0.952,2.462,1.451,3.98,1.372c0.954,1.484,2.315,2.565,3.803,3.004  c1.287,0.378,2.42,0.45,3.469,0.221c1.19-0.261,2.226-0.786,3.152-1.599c1.374,1.15,3.248,1.805,5.119,1.805  c0.403,0,0.806-0.03,1.204-0.093c1.572-0.247,3.051-0.961,4.279-2.065c0.812,0.786,1.741,1.383,2.74,1.676  c1.34,0.395,2.522,0.471,3.61,0.231c1.251-0.273,2.339-0.827,3.307-1.687c1.434,1.212,3.397,1.902,5.359,1.902  c0.421,0,0.839-0.031,1.253-0.097c1.919-0.3,3.696-1.269,5.069-2.754c2.938,1.219,6.466,0.786,8.812-1.141  c1.803-1.479,2.994-3.512,3.271-5.579C488.472,209.838,487.871,207.63,486.513,206.083z M450.19,219.922  c-1.926,0.297-4-0.348-5.421-1.802c-0.171-0.181-0.476-0.215-0.724-0.206c-0.249,0.005-0.548,0.187-0.711,0.376  c-0.798,0.818-1.663,1.306-2.721,1.539c-0.752,0.163-1.602,0.1-2.597-0.191c-1.208-0.356-2.323-1.327-3.057-2.666  c-0.176-0.321-0.525-0.509-0.895-0.447c-1.183,0.17-2.334-0.153-3.157-0.889c-1.76-1.569-1.504-4.116-0.371-5.716  c0.631-0.89,1.642-1.518,2.774-1.727c0.46-0.085,0.774-0.516,0.713-0.98c-0.106-0.811-0.056-1.605,0.149-2.3  c0.329-1.119,1.007-2.625,2.359-3.438c0.863-0.52,1.595-0.782,2.303-0.825c0.621-0.035,1.189-0.003,1.775,0.113  c0.39,0.078,0.775-0.114,0.953-0.464c0.355-0.695,0.898-1.313,1.611-1.815c0.179-0.141,0.365-0.27,0.559-0.388  c1.801-1.097,3.853-1.298,5.628-0.55c0.795,0.335,1.539,0.852,2.15,1.497c0.239,0.252,0.7,0.305,1.024,0.188  c0.956-0.34,1.914-0.369,2.865-0.152c-1.453,0.923-2.548,2.484-3.157,4.548c-0.216,0.734-0.31,1.54-0.28,2.364  c-1.324,0.416-2.487,1.245-3.265,2.344c-1.926,2.717-1.643,6.314,0.659,8.366c1.116,0.995,2.61,1.491,4.158,1.424  c0.03,0.048,0.069,0.086,0.1,0.133c-0.009,0.008-0.021,0.01-0.03,0.018C452.604,219.157,451.431,219.727,450.19,219.922z   M486.42,211.911c-0.219,1.631-1.183,3.255-2.644,4.454c-1.987,1.628-5.084,1.896-7.527,0.642c-0.365-0.189-0.826-0.096-1.088,0.233  c-1.15,1.437-2.721,2.375-4.421,2.642c-2.045,0.313-4.217-0.367-5.713-1.899c-0.157-0.167-0.429-0.204-0.665-0.204  c-0.021,0-0.043,0-0.062,0.001c-0.251,0.006-0.552,0.191-0.715,0.381c-0.843,0.864-1.756,1.379-2.869,1.623  c-0.792,0.174-1.689,0.108-2.737-0.201c-1.275-0.374-2.451-1.398-3.225-2.809c-0.175-0.321-0.524-0.499-0.895-0.447  c-1.257,0.175-2.468-0.164-3.336-0.938c-1.86-1.659-1.591-4.349-0.394-6.038c0.665-0.939,1.733-1.604,2.928-1.823  c0.46-0.085,0.775-0.516,0.713-0.981c-0.114-0.853-0.059-1.691,0.157-2.422c0.347-1.178,1.06-2.763,2.487-3.624  c0.906-0.546,1.677-0.822,2.428-0.868c0.654-0.044,1.251-0.003,1.867,0.118c0.401,0.077,0.775-0.114,0.953-0.463  c0.376-0.734,0.949-1.386,1.7-1.914c0.187-0.148,0.382-0.284,0.588-0.409c1.897-1.155,4.056-1.367,5.926-0.578  c0.841,0.354,1.625,0.898,2.262,1.575c0.238,0.251,0.702,0.3,1.03,0.188c1.661-0.588,3.385-0.367,4.996,0.643  c1.663,1.043,2.721,2.946,3.142,5.654c0.056,0.354,0.32,0.64,0.67,0.721c0.298,0.07,0.592,0.164,0.878,0.288  c0.856,0.372,1.577,0.924,2.337,1.79C486.214,208.408,486.663,210.109,486.42,211.911z"/><g><path class="st2" d="M14.303,10.256c0,0-0.123-2.631,0.697-2.221c0,0,0.86,0.451,0.696,2.745l0.171,3.852l-0.111,2.581l0.111,2.695   l-0.785,2.099l-0.943-2.794c0,0,0.574-1.426,0.492-1.795c-0.082-0.369-0.537-0.891-0.596-1.368S14.303,10.256,14.303,10.256z"/><path class="st3" d="M6.231,14.221l7.908,3.196c0,0-0.615,2.991-7.539,2.418l-0.533-2.418C6.067,17.417,4.142,15.492,6.231,14.221z   "/><path class="st4" d="M13.771,10.452c0,0-9.035-8.697-13.03-3.657l3.319,4.026l1.045,2.581l4.978,2.151l3.688,1.659h0.369v-2.581   l-0.202-3.535L13.771,10.452z"/><path class="st4" d="M15.533,11.025c0,0,7.253-8.441,13.727-4.589c0,0,0.328,1.352-2.254,3.36c0,0-1.762,1.106-1.721,2.909   c0,0,0.533,1.475-3.237,1.926l-6.515,2.786L15.901,15L15.533,11.025z"/><path class="st3" d="M15.533,17.295l8.031-2.95c0,0,1.675,0.311,0.389,3.073l-0.43,1.967c0,0,0.553,0.676-2.356,0.43l-3.36-0.574   l-1.844-1.311L15.533,17.295z"/><path class="st4" d="M13.935,18.196c0,0-1.691,1.788-6.869,1.672c0,0-1.203,0.909,1.214,3.613c0,0,2.745,2.622,4.425-0.533   C12.705,22.949,14.467,21.064,13.935,18.196z"/><path class="st4" d="M15.533,18.073c0,0,3.606,2.745,7.744,1.475v0.942l-0.656,1.68c0,0-2.95,4.876-5.327,1.147l-1.475-4.097   L15.533,18.073z"/><circle cx="25.326" cy="7.563" r="1.168"/><circle cx="24.445" cy="10.256" r="0.837"/><circle cx="23.607" cy="12.303" r="0.427"/><ellipse cx="4.585" cy="7.686" rx="1.168" ry="1.168" transform="matrix(0.9926 -0.1214 0.1214 0.9926 -0.8995 0.6137)"/><ellipse cx="5.787" cy="10.252" rx="0.837" ry="0.837" transform="matrix(0.9926 -0.1214 0.1214 0.9926 -1.2022 0.7786)"/><ellipse cx="6.866" cy="12.183" rx="0.427" ry="0.427" transform="matrix(0.9926 -0.1214 0.1214 0.9926 -1.4287 0.924)"/><ellipse class="st4" cx="22.239" cy="18.77" rx="0.343" ry="0.459" transform="matrix(0.9132 -0.4074 0.4074 0.9132 -5.7179 10.6893)"/><ellipse class="st4" cx="23.18" cy="16.26" rx="0.343" ry="0.564" transform="matrix(0.9132 -0.4074 0.4074 0.9132 -4.6136 10.8548)"/><ellipse class="st4" cx="7.155" cy="16.05" rx="0.456" ry="0.611" transform="matrix(0.9132 -0.4074 0.4074 0.9132 -5.9184 4.3076)"/><ellipse class="st4" cx="8.006" cy="18.521" rx="0.318" ry="0.524" transform="matrix(0.9132 -0.4074 0.4074 0.9132 -6.8511 4.8685)"/><path d="M29.516,6.3c-0.107-0.296-0.376-0.697-1.058-0.932c-1.613-0.556-3.232-0.356-4.459-0.121   c-2.839,0.545-5.306,1.963-7.544,4.337c-0.067,0.071-0.144,0.136-0.215,0.204c0.004-0.108,0.006-0.22,0.003-0.33   c0-0.004,0.002-0.008,0.001-0.012c0-0.005-0.002-0.009-0.002-0.014c-0.006-0.195-0.026-0.381-0.076-0.509   c-0.435-1.13,1.119-2.416,1.605-2.783c0.286-0.215,0.343-0.196,0.459-0.12c0.266,0.174,0.574,0.084,0.8,0.016l0.113-0.033   c0.211-0.053,0.339-0.267,0.285-0.477c-0.053-0.211-0.268-0.339-0.477-0.285l-0.146,0.041c-0.066,0.02-0.178,0.053-0.143,0.08   c-0.623-0.409-1.124-0.033-1.365,0.149c-1.013,0.764-1.658,1.577-1.893,2.354c-0.15-0.081-0.306-0.125-0.455-0.125   c-0.001,0-0.003,0-0.005,0c-0.129,0.001-0.263,0.029-0.393,0.09C14.304,7.07,13.67,6.276,12.68,5.53   c-0.241-0.181-0.74-0.558-1.291-0.177c-0.065,0.012-0.15-0.032-0.216-0.052L11.026,5.26c-0.207-0.052-0.424,0.074-0.477,0.285   c-0.053,0.21,0.074,0.424,0.285,0.477l0.113,0.033c0.225,0.067,0.533,0.158,0.8-0.016c0.118-0.079,0.174-0.095,0.458,0.119   c0.483,0.364,2.011,1.632,1.611,2.756c-0.009,0.036-0.019,0.07-0.026,0.108c-0.03,0.109-0.047,0.239-0.053,0.382   c-0.001,0.006-0.002,0.011-0.003,0.018c0,0.004,0.002,0.008,0.001,0.012c-0.005,0.124-0.002,0.249,0.002,0.371   c-0.083-0.083-0.166-0.167-0.242-0.243l-0.316-0.316c-2.523-2.507-5.252-3.866-8.343-4.157c-1.165-0.11-2.409-0.136-3.549,0.388   C0.906,5.563,0.442,5.832,0.41,6.618C0.376,7.452,0.855,8.004,1.193,8.321l0.266,0.311C1.665,8.874,1.87,9.116,2.097,9.338   c0.983,0.961,1.826,1.853,2.174,3.041c0.23,0.789,0.563,1.564,1.373,2.018c-0.698,0.779-0.799,1.85-0.246,2.688   c0.384,0.584,0.579,1.159,0.611,1.809c0.012,0.251,0.041,0.828,0.502,1.126c-0.245,0.727-0.111,1.344,0.42,2.05   c0.137,0.182,0.283,0.359,0.43,0.536c0.314,0.378,0.609,0.736,0.801,1.13c0.367,0.759,1.263,1.234,2.34,1.242   c0.008,0,0.016,0,0.024,0c0.872,0,1.624-0.324,2.101-0.857c0.018-0.015,0.039-0.024,0.055-0.043   c0.091-0.112,0.166-0.231,0.234-0.353c0.008-0.015,0.023-0.027,0.031-0.042c0.316-0.632,0.736-1.678,1.107-2.738   c0.048,0.179,0.085,0.362,0.157,0.533c0.019,0.044,0.042,0.121,0.071,0.21c0.163,0.509,0.292,0.913,0.668,0.913   c0.011,0,0.021,0,0.032-0.001c0.061-0.004,0.116-0.023,0.166-0.051c0.281-0.083,0.408-0.433,0.551-0.88   c0.028-0.088,0.052-0.166,0.071-0.209c0.105-0.249,0.175-0.51,0.229-0.777c0.009,0.031,0.022,0.07,0.027,0.093   c0.225,0.943,0.605,1.848,0.973,2.723l0.084,0.201c0.014,0.033,0.041,0.058,0.057,0.09c0.004,0.009,0.006,0.019,0.01,0.028   c0.005,0.011,0.017,0.015,0.023,0.026c0.344,0.64,1.057,1.067,1.971,1.136c0.085,0.007,0.172,0.01,0.261,0.01   c0.847,0,1.808-0.298,2.24-1.006c0.248-0.407,0.539-0.783,0.847-1.181c0.203-0.262,0.405-0.525,0.595-0.796   c0.34-0.484,0.716-1.188,0.384-2.003c0.446-0.303,0.478-0.853,0.493-1.094c0.04-0.678,0.225-1.238,0.579-1.762   c0.585-0.864,0.495-1.935-0.224-2.755c0.658-0.355,1.012-0.785,1.24-1.461c0.041-0.123,0.075-0.249,0.108-0.375   c0.036-0.142,0.072-0.284,0.127-0.419c0.459-1.138,1.309-2.034,2.069-2.783c0.233-0.23,0.443-0.483,0.651-0.736l0.274-0.329   c0.008-0.008,0.013-0.016,0.02-0.024l0.118-0.133c0.14-0.152,0.278-0.306,0.383-0.478C29.668,7.059,29.62,6.589,29.516,6.3z    M21.374,10.129c0.424,0.569,0.544,1.054,0.358,1.482c-0.542,1.248-3.415,1.915-5.044,2.156c0.53-1.414,1.691-3.822,3.062-4.188   C20.282,9.437,20.813,9.619,21.374,10.129z M8.612,10.063C9.177,9.56,9.713,9.381,10.24,9.528c1.368,0.379,2.505,2.799,3.021,4.218   c-1.626-0.256-4.492-0.952-5.023-2.205C8.057,11.112,8.182,10.627,8.612,10.063z M5.025,12.158   c-0.401-1.37-1.354-2.382-2.379-3.383C2.438,8.571,2.249,8.347,2.06,8.123L1.759,7.776C1.343,7.382,1.18,7.056,1.197,6.65   C1.21,6.324,1.311,6.277,1.538,6.217c1.048-0.473,2.168-0.447,3.226-0.346c2.902,0.273,5.474,1.559,7.863,3.932l0.312,0.313   c0.434,0.437,0.783,0.784,0.996,0.971l0.002,0.009c-0.032,0.223-0.121,0.895-0.186,1.742c-0.591-1.438-1.729-3.633-3.3-4.069   C9.645,8.547,8.836,8.792,8.055,9.502C8.047,9.51,8.043,9.52,8.036,9.528C8.028,9.537,8.017,9.542,8.009,9.551   c-0.63,0.811-0.797,1.584-0.495,2.297c0.852,2.014,5.269,2.643,6.163,2.751c-0.001,0.76,0.045,1.525,0.179,2.166   c-2.054-1.241-6.586-2.637-7.457-2.899C5.598,13.61,5.285,13.046,5.025,12.158z M7.088,19.41c-0.171-0.026-0.27-0.065-0.294-0.553   c-0.039-0.786-0.281-1.507-0.739-2.203c-0.361-0.548-0.275-1.26,0.213-1.773l0.166-0.181c2.25,0.687,5.335,1.775,6.853,2.632   h-2.672c-0.217,0-0.393,0.177-0.393,0.394s0.176,0.394,0.393,0.394h2.787C12.476,18.866,10.525,19.904,7.088,19.41   C7.089,19.41,7.088,19.41,7.088,19.41z M12.984,21.576c-0.146-0.312-0.354-0.6-0.638-0.832c-0.409-0.333-0.923-0.488-1.448-0.436   c-0.525,0.052-0.998,0.306-1.332,0.715c-0.281,0.343-0.411,0.774-0.366,1.216c0.044,0.441,0.258,0.838,0.601,1.119   c0.599,0.49,1.487,0.4,1.978-0.2c0.18-0.22,0.277-0.497,0.271-0.782c-0.004-0.218-0.189-0.38-0.4-0.387   c-0.217,0.005-0.39,0.183-0.386,0.4c0.002,0.099-0.032,0.195-0.094,0.271c-0.216,0.265-0.607,0.303-0.872,0.088   c-0.181-0.148-0.293-0.357-0.316-0.589c-0.024-0.232,0.045-0.459,0.193-0.64c0.201-0.246,0.486-0.399,0.802-0.43   c0.315-0.038,0.625,0.061,0.872,0.262c0.609,0.498,0.746,1.357,0.365,2.017c-0.33,0.602-1.077,0.823-1.689,0.823   c-0.006,0-0.011,0-0.017-0.001c-0.763-0.005-1.405-0.317-1.637-0.796c-0.233-0.482-0.573-0.893-0.903-1.291   c-0.139-0.167-0.278-0.334-0.408-0.506c-0.388-0.516-0.457-0.879-0.273-1.377c0.54,0.066,1.055,0.104,1.529,0.104   c2.616,0,4.241-0.907,5.111-1.614C13.708,19.543,13.347,20.618,12.984,21.576z M15.125,17.992c0.028,0.374,0.057,0.748,0.118,1.114   c0.033,0.196,0.053,0.389,0.059,0.58l0,0c0,0,0,0,0,0.001c0.019,0.529-0.066,1.009-0.26,1.469c-0.016,0.037-0.036,0.095-0.057,0.16   c-0.019-0.057-0.037-0.108-0.051-0.141c-0.193-0.461-0.278-0.941-0.26-1.47c0.006-0.191,0.027-0.385,0.06-0.581   c0.042-0.251,0.059-0.507,0.081-0.762c0.011-0.051,0.027-0.111,0.036-0.159c0.007-0.036-0.004-0.068-0.008-0.102   c0.002-0.028,0.007-0.055,0.009-0.083l0.039-0.482c0.001-0.011-0.003-0.02-0.003-0.031c0-0.026-0.003-0.051-0.008-0.077   c-0.005-0.027-0.011-0.052-0.021-0.077c-0.004-0.01-0.003-0.02-0.008-0.029c-0.666-1.316-0.315-4.911-0.124-6.186   c0.004-0.026-0.003-0.051-0.004-0.076c-0.001-0.023,0.004-0.045-0.001-0.068c-0.001-0.004-0.002-0.006-0.003-0.01   c0-0.001,0-0.002-0.001-0.003c-0.02-0.09-0.042-0.173-0.063-0.252c-0.034-0.131-0.067-0.252-0.087-0.406   c-0.038-0.289-0.053-0.622-0.046-0.853c0.014-0.157,0.036-0.295,0.067-0.411v0c0.094-0.361,0.251-0.529,0.361-0.529c0,0,0,0,0,0   c0.144,0,0.436,0.286,0.506,0.969c0.003,0.229-0.012,0.535-0.047,0.806c-0.02,0.154-0.053,0.276-0.088,0.408l-0.062,0.249   c-0.021,0.059-0.033,0.122-0.023,0.189c0.195,1.266,0.557,4.839-0.11,6.156c-0.005,0.01-0.004,0.02-0.008,0.03   c-0.01,0.025-0.016,0.05-0.021,0.076c-0.005,0.026-0.009,0.051-0.008,0.077c0,0.011-0.004,0.02-0.003,0.031L15.125,17.992z    M22.442,21.554c-0.183,0.26-0.379,0.514-0.574,0.766c-0.308,0.398-0.626,0.809-0.897,1.253c-0.25,0.412-1.017,0.686-1.77,0.621   c-0.648-0.048-1.14-0.323-1.352-0.733c-0.184-0.378-0.212-0.804-0.077-1.202c0.135-0.401,0.42-0.725,0.799-0.913   c0.588-0.291,1.302-0.048,1.593,0.54c0.212,0.432,0.035,0.957-0.397,1.17c-0.309,0.152-0.677,0.024-0.83-0.282   c-0.043-0.088-0.055-0.189-0.031-0.285c0.052-0.211-0.077-0.424-0.288-0.476c-0.214-0.053-0.424,0.078-0.476,0.288   c-0.067,0.277-0.036,0.569,0.09,0.822c0.344,0.696,1.19,0.984,1.882,0.639c0.821-0.404,1.159-1.401,0.754-2.222   c-0.233-0.473-0.638-0.828-1.137-0.997c-0.501-0.171-1.037-0.133-1.509,0.1c-0.495,0.244-0.858,0.643-1.079,1.106   c-0.139-0.382-0.265-0.767-0.357-1.154c-0.052-0.218-0.213-0.665-0.4-1.182c-0.089-0.245-0.186-0.515-0.27-0.759   c0.952,0.714,2.653,1.603,5.258,1.603c0.406,0,0.842-0.031,1.291-0.078C22.895,20.597,22.838,20.989,22.442,21.554z M23.89,16.706   c-0.431,0.638-0.665,1.343-0.714,2.157c-0.018,0.303-0.067,0.424-0.158,0.486c-3.408,0.473-5.462-0.586-6.465-1.353h2.607   c0.217,0,0.394-0.177,0.394-0.394c0-0.217-0.177-0.394-0.394-0.394h-2.553c1.531-0.836,4.654-1.871,6.929-2.516   c0.045,0.055,0.089,0.11,0.138,0.161C24.21,15.42,24.29,16.113,23.89,16.706z M28.634,7.243c-0.079,0.13-0.185,0.242-0.29,0.357   c-0.06,0.065-0.119,0.13-0.176,0.196c-0.009,0.011-0.017,0.021-0.024,0.032c-0.082,0.096-0.161,0.193-0.241,0.29   c-0.191,0.232-0.381,0.465-0.595,0.676c-0.816,0.805-1.731,1.771-2.246,3.049c-0.067,0.167-0.113,0.341-0.158,0.516   c-0.029,0.108-0.056,0.217-0.091,0.322c-0.196,0.582-0.49,0.867-1.195,1.171c-0.771,0.214-5.314,1.507-7.466,2.724   c0.107-0.596,0.14-1.281,0.139-1.963c0.962-0.108,5.302-0.704,6.165-2.687c0.308-0.71,0.15-1.484-0.472-2.301   c-0.007-0.01-0.018-0.014-0.027-0.023c-0.008-0.008-0.011-0.019-0.02-0.027c-0.774-0.717-1.577-0.972-2.387-0.755   c-1.57,0.419-2.726,2.587-3.333,4.019c-0.065-0.814-0.151-1.47-0.186-1.711l0.021-0.083c0.119-0.114,0.242-0.226,0.366-0.338   c0.21-0.189,0.421-0.379,0.612-0.581c2.12-2.25,4.448-3.592,7.119-4.104c1.131-0.217,2.616-0.403,4.056,0.092   c0.213,0.073,0.486,0.212,0.573,0.454C28.859,6.798,28.744,7.062,28.634,7.243z"/></g></svg>