<?xml version="1.0" ?><svg id="Layer_1" style="enable-background:new 0 0 30 30;" version="1.1" viewBox="0 0 30 30" xml:space="preserve" xmlns="http://www.w3.org/2000/svg" xmlns:xlink="http://www.w3.org/1999/xlink"><style type="text/css">
	.st0{fill:#3AB316;}
	.st1{fill:#206608;}
	.st2{fill:#3BB417;}
</style><g><path class="st0" d="M11.104,19.019c0,0-2.504,2.473-1.515,8.966L7.981,29.16c0,0-1.373-2.504-0.13-5.256   S8.785,20.318,11.104,19.019z"/><path class="st1" d="M10.702,18.839c-0.794,1.049-1.737,3.397-2.27,7.663c-0.136,1.089-0.108,1.867-0.186,2.473l-0.943-0.23   C7.316,26.67,7.745,22.357,10.702,18.839z"/><path class="st2" d="M12.897,4.281c0,0,0.495-5.771,5.029-2.721c0,0,1.937,4.412-1.286,8.781c0,0,5.243-8.74,8.871-3.587   c0,0,1.196,2.968-1.855,3.916c0,0,4.947,1.443,3.257,3.834c0,0,0,3.957-7.585,0.989c0,0,5.442,4.947,2.391,7.709   c0,0-3.463,1.649-4.617-1.443c0,0-1.443,6.472-5.194,2.061c0,0-1.731-2.721,0-5.029l0.701-2.033L8.404,20.4   c0,0-4.865,1.402-4.287-3.216L5.889,15c0,0-5.153-0.742-2.144-5.236c0,0,1.443-1.154,3.793,0.041l2.473-0.124   c0,0-4.576-3.422-2.515-6.514C7.497,3.168,11.99,0.2,12.897,4.281z"/><path class="st1" d="M20.533,11.379c1.489-0.354,2.575-0.328,3.288-0.227c-1.253-0.249-2.423-0.242-3.503-0.107   c0.722-0.688,1.491-1.846,1.447-3.658c-0.024,0.686-0.274,1.849-1.648,3.159c-0.238,0.227-0.426,0.431-0.591,0.609   c-0.387,0.075-0.76,0.166-1.114,0.271c0.621-0.709,1.189-1.786,1.151-3.35c-0.024,0.686-0.274,1.85-1.648,3.159   c-0.208,0.199-0.379,0.382-0.532,0.546c-0.71,0.278-1.319,0.589-1.824,0.881c-0.118-0.101-0.267-0.168-0.435-0.168   c-0.02,0-0.036,0.01-0.055,0.011c-0.159-0.448-0.348-0.991-0.588-1.585c-0.042-0.105-0.071-0.197-0.11-0.3   c0.059-0.242,0.131-0.524,0.194-0.866c0.342-1.867,1.178-2.714,1.739-3.11c-1.494,0.928-2.05,2.157-2.246,3.126   c-0.14-0.417-0.261-0.815-0.357-1.189c0.057-0.231,0.122-0.491,0.179-0.802c0.342-1.867,1.178-2.714,1.739-3.11   c-1.309,0.813-1.903,1.861-2.162,2.759c-0.255-1.51-0.157-2.591-0.008-3.296c-0.332,1.234-0.402,2.401-0.34,3.488   c-0.638-0.766-1.743-1.61-3.554-1.687c0.683,0.069,1.827,0.396,3.043,1.854C12.809,8.042,13,8.243,13.166,8.42   c0.05,0.391,0.116,0.769,0.197,1.129c-0.666-0.666-1.703-1.305-3.266-1.371c0.683,0.069,1.827,0.396,3.043,1.854   c0.184,0.221,0.356,0.404,0.51,0.567c0.281,0.887,0.62,1.632,0.924,2.207c-0.06,0.093-0.101,0.197-0.109,0.313   c-0.42,0.104-0.903,0.224-1.43,0.379c-0.108,0.032-0.203,0.051-0.309,0.081c-0.236-0.082-0.509-0.182-0.843-0.278   c-1.825-0.523-2.586-1.438-2.925-2.035c0.778,1.578,1.946,2.251,2.891,2.541c-0.429,0.099-0.837,0.18-1.218,0.239   c-0.224-0.079-0.477-0.169-0.781-0.257c-1.825-0.523-2.586-1.438-2.925-2.035c0.681,1.382,1.666,2.076,2.535,2.421   c-1.527,0.106-2.594-0.097-3.281-0.314c1.195,0.451,2.351,0.635,3.439,0.679c-0.825,0.56-1.773,1.577-2.026,3.372   c0.136-0.673,0.573-1.78,2.143-2.847c0.272-0.185,0.491-0.356,0.683-0.504c0.394-0.011,0.777-0.04,1.143-0.085   c-0.728,0.598-1.465,1.567-1.683,3.117c0.136-0.673,0.573-1.78,2.143-2.847c0.238-0.162,0.437-0.315,0.614-0.452   c0.804-0.17,1.503-0.398,2.072-0.618c0.113,0.092,0.251,0.154,0.408,0.157c0.177,0.411,0.383,0.89,0.635,1.412   c0.049,0.102,0.084,0.192,0.13,0.292c-0.043,0.246-0.096,0.532-0.136,0.877c-0.218,1.886-0.995,2.786-1.529,3.219   c1.43-1.025,1.902-2.289,2.033-3.268c0.168,0.407,0.314,0.796,0.435,1.163c-0.041,0.234-0.089,0.498-0.125,0.812   c-0.218,1.886-0.995,2.786-1.529,3.219c1.252-0.898,1.775-1.983,1.974-2.897c0.354,1.489,0.328,2.575,0.227,3.288   c0.249-1.253,0.242-2.423,0.107-3.503c0.688,0.722,1.846,1.491,3.658,1.447c-0.686-0.024-1.85-0.274-3.159-1.648   c-0.227-0.238-0.431-0.426-0.609-0.591c-0.075-0.387-0.166-0.76-0.271-1.114c0.709,0.621,1.786,1.189,3.35,1.151   c-0.686-0.024-1.849-0.274-3.159-1.648c-0.198-0.208-0.382-0.379-0.546-0.532c-0.3-0.765-0.639-1.419-0.949-1.944   c0.073-0.095,0.12-0.208,0.133-0.333c0.394-0.17,0.846-0.366,1.333-0.601c0.102-0.049,0.192-0.084,0.292-0.13   c0.246,0.043,0.532,0.096,0.877,0.136c1.886,0.218,2.786,0.995,3.219,1.529c-1.025-1.43-2.289-1.902-3.268-2.033   c0.407-0.168,0.796-0.314,1.163-0.435c0.234,0.041,0.498,0.089,0.812,0.125c1.886,0.218,2.786,0.995,3.219,1.529   C22.531,12.1,21.446,11.577,20.533,11.379z"/><path d="M24.695,5.165c-0.015-0.01-0.032-0.018-0.049-0.026l-0.409-0.18c-0.845-0.371-1.737-0.376-2.66-0.012   c-0.689,0.271-1.326,0.694-2.066,1.372c-0.437,0.401-0.867,0.852-1.302,1.364c0.112-0.268,0.219-0.539,0.319-0.813   c0.311-0.856,0.63-1.882,0.628-3.011c-0.003-0.927-0.244-1.671-0.739-2.275c-0.141-0.172-0.31-0.322-0.48-0.471l-0.52-0.427   c-0.015-0.01-0.113-0.054-0.129-0.062l-0.331-0.145c-0.8-0.344-1.633-0.32-2.479,0.075c-0.974,0.455-1.638,1.323-1.859,2.375   c-0.136-0.172-0.287-0.329-0.451-0.472C10.869,1.322,8.85,1.377,7.756,2.578c-0.999,1.097-1.25,2.39-0.725,3.74   c0.261,0.671,0.665,1.29,1.311,2.006c0.415,0.46,0.888,0.915,1.429,1.374C9.276,9.49,8.767,9.3,8.249,9.141   C7.28,8.843,6.511,8.721,5.764,8.756C4.738,8.799,3.901,9.167,3.277,9.851c-1.288,1.415-1.255,3.249,0.083,4.565   c0.462,0.454,1.012,0.746,1.661,0.874c-0.171,0.137-0.329,0.288-0.473,0.453c-1.13,1.292-1.079,3.306,0.112,4.399   c1.093,1.002,2.387,1.257,3.736,0.737c0.033-0.013,0.062-0.031,0.095-0.045c-1.516,2.927-1.823,5.705-0.972,8.639   c0.036,0.125,0.132,0.224,0.255,0.266c0.041,0.014,0.083,0.02,0.125,0.02c0.085,0,0.168-0.028,0.238-0.08l1.902-1.43   c0.141-0.105,0.195-0.293,0.132-0.457c-0.989-2.586-0.117-5.594,1.035-8.002c-0.103,0.356-0.206,0.714-0.271,1.085   c-0.131,0.746-0.129,1.401,0.006,2.004c0.192,0.852,0.656,1.542,1.377,2.048c0.615,0.433,1.216,0.644,1.83,0.644   c0.065,0,0.13-0.002,0.196-0.007c0.964-0.069,1.761-0.492,2.37-1.256c0.336-0.424,0.557-0.891,0.665-1.412   c0.277,0.346,0.61,0.628,0.996,0.845c1.284,0.722,2.909,0.517,3.86-0.49c0.063-0.066,0.119-0.138,0.175-0.211l0.154-0.185   c0.016-0.018,0.075-0.085,0.088-0.105l0.058-0.094c0.01-0.014,0.052-0.086,0.059-0.102l0.18-0.41   c0.369-0.84,0.374-1.73,0.016-2.646c-0.269-0.685-0.688-1.32-1.36-2.057c-0.407-0.445-0.857-0.876-1.382-1.322   c0.13,0.055,0.262,0.108,0.393,0.159c0.937,0.368,2.058,0.749,3.262,0.784c1.003,0.037,1.808-0.214,2.454-0.745   c0.168-0.137,0.313-0.301,0.457-0.466l0.314-0.35c0.015-0.018,0.074-0.109,0.087-0.129c0.01-0.016,0.063-0.104,0.071-0.122   l0.055-0.126c0.042-0.093,0.083-0.186,0.12-0.28c0.416-1.039,0.271-2.082-0.423-3.016c-0.523-0.702-1.201-1.137-2.026-1.301   c0.343-0.274,0.623-0.603,0.839-0.985c0.73-1.288,0.528-2.917-0.482-3.872c-0.068-0.065-0.143-0.123-0.219-0.18l-0.256-0.215   c-0.016-0.014-0.094-0.064-0.113-0.075 M9.329,27.792l-1.199,0.901c-0.69-2.908-0.129-5.685,1.741-8.681   c0.202-0.158,0.388-0.314,0.555-0.466C9.272,21.994,8.41,25.042,9.329,27.792z M17.061,1.392l0.355,0.32   c0.137,0.119,0.275,0.237,0.388,0.375c0.375,0.457,0.557,1.038,0.559,1.775c0.002,1.004-0.292,1.947-0.58,2.738   c-0.451,1.24-1.066,2.444-1.667,3.621l-0.214,0.432c-0.063,0.126-0.053,0.276,0.025,0.394c0.079,0.118,0.214,0.191,0.353,0.177   c0.116-0.007,0.296-0.1,0.365-0.193l0.506-0.681c0.337-0.454,0.674-0.908,1.017-1.357c0.639-0.835,1.252-1.519,1.876-2.091   c0.665-0.61,1.226-0.986,1.82-1.22c0.729-0.286,1.4-0.286,2.051,0l0.377,0.166c0.034,0.023,0.106,0.073,0.106,0.073l0.245,0.201   c0.051,0.039,0.103,0.077,0.15,0.122c0.75,0.709,0.892,1.932,0.339,2.908c-0.335,0.592-0.856,1.008-1.591,1.273l-0.177,0.064   c-0.192,0.07-0.293,0.309-0.241,0.507c0.049,0.191,0.399,0.295,0.586,0.276c1.173-0.134,2.048,0.202,2.663,1.029   c0.536,0.721,0.643,1.457,0.325,2.25c-0.035,0.085-0.072,0.169-0.109,0.253l-0.03,0.08c-0.001,0.001-0.091,0.138-0.092,0.139   l-0.277,0.31c-0.115,0.132-0.228,0.265-0.362,0.374c-0.5,0.411-1.1,0.586-1.93,0.567c-1.082-0.032-2.122-0.387-2.995-0.73   c-1.145-0.449-2.265-1.023-3.348-1.578l-0.182-0.093c-0.044-0.022-0.092-0.04-0.173-0.07c-0.183-0.073-0.39,0.003-0.487,0.174   c-0.096,0.171-0.053,0.386,0.101,0.507c0.397,0.309,0.796,0.611,1.193,0.912l0.897,0.682c0.867,0.667,1.538,1.27,2.112,1.898   c0.604,0.662,0.977,1.221,1.207,1.812c0.283,0.724,0.282,1.391-0.003,2.041l-0.154,0.359c-0.001,0.001-0.086,0.13-0.086,0.13   c-0.039,0.042-0.077,0.083-0.111,0.125l-0.094,0.12c-0.037,0.049-0.073,0.099-0.118,0.145c-0.706,0.746-1.926,0.892-2.898,0.345   c-0.594-0.333-1.013-0.853-1.28-1.587l-0.035-0.097c0-0.001-0.039-0.106-0.039-0.106c-0.05-0.14-0.184-0.226-0.33-0.244   c-0.138-0.017-0.301,0.059-0.386,0.182c-0.051,0.075-0.084,0.183-0.076,0.273l0.016,0.155c0.105,0.882-0.071,1.597-0.54,2.187   c-0.471,0.592-1.061,0.906-1.806,0.958c-0.493,0.044-0.982-0.121-1.515-0.495c-0.564-0.396-0.911-0.911-1.06-1.575   c-0.113-0.505-0.113-1.043,0.001-1.693c0.252-1.431,0.87-2.787,1.429-3.945c0.2-0.414,0.408-0.823,0.615-1.232l0.311-0.615   c0.014-0.028,0.047-0.151,0.054-0.181c0.04-0.172-0.059-0.329-0.213-0.415c-0.054-0.03-0.114-0.044-0.176-0.044   c-0.115,0-0.234,0.048-0.315,0.129c-0.014,0.014-0.059,0.063-0.071,0.079l-0.501,0.674c-0.342,0.46-0.684,0.92-1.032,1.375   c-0.607,0.793-1.196,1.453-1.799,2.016c-0.194,0.18-0.423,0.377-0.673,0.569c-0.001,0.001-0.002,0.002-0.003,0.002   c-0.358,0.274-0.764,0.537-1.228,0.716c-1.082,0.415-2.036,0.225-2.916-0.583c-0.882-0.809-0.905-2.317-0.051-3.294   c0.356-0.406,0.799-0.697,1.355-0.888l0.151-0.062c0.156-0.066,0.253-0.223,0.241-0.392c-0.012-0.169-0.129-0.312-0.292-0.355   c-0.149-0.04-0.272-0.026-0.366-0.015c-0.97,0.108-1.73-0.123-2.318-0.7c-1.044-1.027-1.064-2.356-0.052-3.467   c0.483-0.53,1.116-0.804,1.935-0.838c0.66-0.021,1.341,0.081,2.219,0.351c1.404,0.431,2.71,1.091,3.973,1.729l0.758,0.385   c0.141,0.072,0.311,0.052,0.432-0.048c0.122-0.101,0.171-0.265,0.127-0.416c-0.036-0.122-0.108-0.225-0.215-0.305l-0.688-0.513   c-0.447-0.333-0.895-0.665-1.338-1.004c-0.858-0.658-1.556-1.289-2.135-1.93C8.352,7.152,7.994,6.608,7.769,6.03   C7.349,4.95,7.537,3.995,8.342,3.111c0.809-0.889,2.323-0.915,3.303-0.057c0.402,0.353,0.692,0.796,0.886,1.357   c0.013,0.039,0.029,0.077,0.06,0.148c0.071,0.17,0.246,0.266,0.431,0.238c0.181-0.031,0.318-0.183,0.329-0.366   c0.009-0.145,0-0.284-0.01-0.42l-0.009-0.125c-0.058-1.158,0.508-2.158,1.479-2.611c0.641-0.3,1.239-0.32,1.83-0.065l0.324,0.143"/></g></svg>