<?xml version="1.0" ?><svg id="Layer_1" style="enable-background:new 0 0 30 30;" version="1.1" viewBox="0 0 30 30" xml:space="preserve" xmlns="http://www.w3.org/2000/svg" xmlns:xlink="http://www.w3.org/1999/xlink"><style type="text/css">
	.st0{fill:#92D3D6;}
	.st1{fill:#F93854;}
	.st2{fill:#ACE6F9;}
	.st3{fill:#4DD4E2;}
	.st4{opacity:0.53;fill:#B5E7FE;}
	.st5{opacity:0.32;fill:#B5E7FE;}
	.st6{fill:#F70B38;}
</style><g><path class="st0" d="M26.647,16.035c0,0,0.418-0.774,1.017-1.399c0.546-0.57,1.016-1.068,1.016-1.068S28.652,14.749,26.647,16.035z   "/><path class="st1" d="M13.904,10.796c0,0-1.451,1.914-0.247,3.86h-0.309l0.193,2.1l0.362,2.656l-0.185,2.686l0.432,4.323   l0.803,1.081l0.741-1.606v-1.884l0.216-1.544c0,0-0.062-1.482,0-1.575c0.062-0.093,0.062-0.71,0-1.019s-0.062-0.579-0.062-0.969   c0-0.39,0.124-1.038,0.108-1.254c-0.015-0.216-0.105-0.803,0.001-1.081c0.107-0.278,0.261-1.822,0.261-1.822l-0.34-0.154   C15.88,14.595,17.455,9.654,13.904,10.796z"/><ellipse class="st1" cx="14.881" cy="9.422" rx="1.441" ry="0.911"/><ellipse class="st1" cx="14.703" cy="7.785" rx="1.441" ry="0.911"/><path class="st2" d="M12.804,8.958l0.865,1.173v0.477l-5.002,0.943c0,0-1.945,0.371-5.219-1.822c0,0-5.774-2.625,0.124-1.961   l7.843,1.436L12.804,8.958z"/><path class="st2" d="M17.053,9.222l7.905-1.297c0,0,2.131-0.618,3.644,0c0,0-1.081,1.328-4.076,2.872c0,0-2.378,1.235-5.28,0.618   l-3.018-0.789C16.228,10.625,16.436,8.913,17.053,9.222z"/><path class="st2" d="M13.179,11.785c0,0-4.833,1.204-7.18,1.729c0,0-5.496,0.062-5.527,0.618c0,0-0.093,2.532,8.924,1.945   C9.395,16.077,13.164,15.644,13.179,11.785z"/><path class="st2" d="M16.714,11.785c0,0,5.342,1.482,8.893,1.822c0,0,5.96-0.278,2.995,1.729c0,0-6.392,1.884-10.067,0.371   C18.535,15.706,16.065,13.915,16.714,11.785z"/><path class="st1" d="M12.946,9.777"/><path class="st0" d="M1.351,8.072c0,0,5.156,1.23,6.685,1.35c1.395,0.109,5.198,0.763,5.198,0.763S5.983,8.85,1.351,8.072z"/><path class="st3" d="M7.591,8.65"/><path class="st3" d="M8.86,8.899c0.684,0.001,2.812-0.006,2.812-0.006"/><path class="st3" d="M6.046,8.904"/><path class="st0" d="M6.383,10.48c0,0,2.025-0.396,2.762-0.537c0.672-0.128,2.76-0.537,2.76-0.537S8.638,10.506,6.383,10.48z"/><path class="st0" d="M3.177,9.642c0,0,2.02-0.424,2.754-0.575c0.67-0.138,2.752-0.576,2.752-0.576S5.432,9.636,3.177,9.642z"/><path class="st0" d="M5.33,10.134c0,0,1.811-0.38,2.469-0.516c0.6-0.123,2.467-0.516,2.467-0.516S7.339,10.177,5.33,10.134z"/><path class="st0" d="M7.765,11.232c0,0,1.977-0.594,2.695-0.807c0.656-0.194,2.694-0.807,2.694-0.807S10.011,11.036,7.765,11.232z"/><path class="st0" d="M1.447,8.555c0,0,2.062-0.08,2.812-0.106c0.683-0.024,2.81-0.106,2.81-0.106S3.671,8.928,1.447,8.555z"/><path class="st0" d="M0.863,14.801c0,0,5.576-0.393,7.153-0.756c1.438-0.331,5.471-0.876,5.471-0.876S5.769,14.118,0.863,14.801z"/><path class="st0" d="M0.649,14.895c0,0,1.678-0.6,2.289-0.815c0.557-0.196,2.288-0.815,2.288-0.815S2.578,14.626,0.649,14.895z"/><path class="st0" d="M6.688,15.632c0,0,1.913-1.039,2.609-1.414c0.635-0.342,2.607-1.414,2.607-1.414S8.964,14.945,6.688,15.632z"/><path class="st0" d="M3.197,15.803c0,0,1.898-1.065,2.589-1.45c0.63-0.35,2.587-1.45,2.587-1.45S5.464,15.084,3.197,15.803z"/><path class="st0" d="M5.518,15.617c0,0,1.701-0.955,2.321-1.299c0.565-0.314,2.319-1.299,2.319-1.299S7.553,15.025,5.518,15.617z"/><path class="st0" d="M8.315,15.952c0,0,1.801-1.223,2.457-1.664c0.598-0.403,2.455-1.664,2.455-1.664S10.513,15.044,8.315,15.952z"/><path class="st0" d="M1.112,15.257c0,0,2.05-0.732,2.795-0.995c0.68-0.24,2.793-0.996,2.793-0.996S3.467,14.928,1.112,15.257z"/><path class="st0" d="M18.73,16.075c0,0,1.698-0.924,2.003-1.493c0.279-0.519,1.325-1.506,1.325-1.506S19.99,14.851,18.73,16.075z"/><path class="st0" d="M17.066,13.182c0,0,4.774,1.194,6.245,1.197c1.342,0.002,4.92,0.519,4.92,0.519S21.428,13.785,17.066,13.182z"/><path class="st0" d="M17.018,13.673c0,0,0.871-0.483,1.188-0.656c0.289-0.158,1.187-0.656,1.187-0.656S18.019,13.457,17.018,13.673   z"/><path class="st0" d="M22.406,16.653c0,0,0.874-0.866,1.509-1.396c0.58-0.484,2.379-2.001,2.379-2.001S24.484,15.681,22.406,16.653z   "/><path class="st0" d="M20.051,16.457c0,0,0.647-0.98,1.058-1.457c0.375-0.434,1.539-1.798,1.539-1.798S21.466,15.642,20.051,16.457z   "/><path class="st0" d="M21.534,16.184c0,0,1.553-1.352,2.118-1.84c0.516-0.444,0.848-0.738,0.848-0.738S23.391,15.346,21.534,16.184z   "/><path class="st0" d="M25.101,16.294c0,0,0.418-0.774,1.017-1.399c0.546-0.57,1.016-1.068,1.016-1.068S27.106,15.009,25.101,16.294z   "/><path class="st0" d="M18.04,14.614c0,0,1.121-0.621,1.529-0.844c0.372-0.204,1.528-0.845,1.528-0.845S19.328,14.336,18.04,14.614z"/><path class="st0" d="M16.297,10.386c0,0,5.259-0.66,6.733-1.085c1.345-0.388,5.134-1.112,5.134-1.112S20.907,9.486,16.297,10.386z"/><path class="st0" d="M16.521,11.034c0,0,1.096-0.626,1.645-1.018c0.5-0.358,2.053-1.48,2.053-1.48S18.382,10.252,16.521,11.034z"/><path class="st0" d="M17.545,11.192c0,0,1.096-0.626,1.645-1.018c0.5-0.358,2.053-1.48,2.053-1.48S19.406,10.41,17.545,11.192z"/><path class="st0" d="M19.48,11.52c0,0,1.635-1.26,2.23-1.715c0.543-0.415,2.228-1.715,2.228-1.715S21.508,10.535,19.48,11.52z"/><path class="st0" d="M22.028,11.683c0,0,1.401-1.516,1.912-2.064c0.466-0.5,1.91-2.064,1.91-2.064S23.863,10.372,22.028,11.683z"/><path class="st0" d="M18.479,11.493c0,0,1.635-1.26,2.23-1.715c0.543-0.415,2.228-1.715,2.228-1.715S20.507,10.508,18.479,11.493z"/><path class="st0" d="M20.964,11.7c0,0,1.505-1.412,2.054-1.923c0.501-0.466,2.052-1.922,2.052-1.922S22.888,10.524,20.964,11.7z"/><path class="st0" d="M23.153,11.451c0,0,1.428-1.49,1.949-2.029c0.475-0.492,1.947-2.029,1.947-2.029S25.011,10.174,23.153,11.451z   "/><path class="st4" d="M29.353,14.527c-0.04,0.964-6.23,2.452-10.092,1.425c-2.704-0.719-2.839-3.38-2.705-3.921   c0.134-0.541,3.967,0.569,6.683,1.241C25.955,13.944,29.393,13.57,29.353,14.527z"/><path class="st4" d="M0.41,14.514c0.04,0.964,6.23,2.452,10.092,1.425c2.704-0.719,2.839-3.38,2.705-3.921   c-0.134-0.541-3.967,0.569-6.683,1.241C3.807,13.931,0.37,13.556,0.41,14.514z"/><path class="st5" d="M13.439,9.877c-0.04,0.964-3.144,2.205-7.006,1.178C3.73,10.335,1.223,8.483,1.356,7.941   s3.751-0.116,6.466,0.556S13.479,8.92,13.439,9.877z"/><path class="st5" d="M16.042,10.034c0.035,0.965,3.211,2.189,7.177,1.135c2.777-0.737,5.36-2.609,5.226-3.15   c-0.134-0.541-3.845-0.093-6.635,0.597S16.007,9.075,16.042,10.034z"/><path class="st6" d="M15.226,6.677c-2.427,0.495-1.594,1.342-0.875,1.807c-1.465,0.432-1.115,1.04-0.572,1.471l-0.516,1.719   c0,0,0.501,9.5,0.485,9.587c-0.015,0.087,0.278,3.106,0.278,3.477c0,0.372,0.463,1.465,0.517,1.728   c0.054,0.262,0.27,0.634,0.27,0.634s-0.077-1.006-0.185-1.225c-0.108-0.219-0.117-1.99-0.117-1.99   c-0.226-1.356,0.102-2.515,0.102-2.515c-0.355-0.809-0.062-0.831-0.201-1.793c-0.139-0.962,0.031-2.34,0.031-2.34   c0.046-0.962,0.232-1.521,0.232-1.521c-0.278-0.909,0.074-1.759,0.074-1.759l-0.705-3.812c0.312,0.203,0.605,0.335,0.605,0.335   c-0.569-0.757-0.27-1.437,0.002-1.817c0.054-0.151,0.054-0.151,0.054-0.151c-0.08-0.106,0.117,0.094,0.069-0.009   c0.086-0.1,0.153-0.159,0.153-0.159c-0.08,0.016-0.139,0.035-0.212,0.052C14.35,7.435,15.226,6.677,15.226,6.677z"/><path class="st5" d="M15.259,19.832c0.047-0.997,0.088-2.007,0.152-2.968c0.173-2.599,0.213-4.049,0.125-6.33   c-0.112-2.893,0.067-3.67-0.512-3.773c-1.967-0.35-0.935,5.82-0.871,10.862c0.062,4.869,0.726,10.07,0.965,10.073   c0.068,0.001,0.346-1.081,0.406-1.853C15.632,24.441,15.14,22.331,15.259,19.832"/><path d="M28.82,13.562c-0.97-0.252-1.501-0.259-2.235-0.268c-0.937-0.012-2.219-0.028-5.281-0.594   c-0.994-0.184-4.117-0.954-4.766-1.115c-0.096-0.24-0.213-0.456-0.353-0.643c0.369,0.093,2.656,0.668,3.197,0.814   c0.55,0.149,1.095,0.206,1.609,0.206c1.62,0,2.919-0.57,3.022-0.62l0.066-0.043c0.72-0.481,1.241-0.827,1.684-1.02   c0.96-0.416,3.195-1.462,3.221-2.192c0.006-0.166-0.082-0.312-0.234-0.392c-1.248-0.651-3.026-0.223-3.119-0.199   c-0.658,0.204-4.545,0.928-4.559,0.932c-0.082,0.008-2.018,0.201-2.676,0.365c-0.226,0.056-0.974,0.124-1.516,0.167l1.57-0.722   c0.078-0.036,0.14-0.1,0.174-0.179c0.015-0.036,0.145-0.356,0.081-0.698c-0.004-0.021-0.01-0.042-0.017-0.062   c-0.056-0.175-0.529-1.831-0.552-1.892l-0.522-1.02c0-0.001-0.06-0.097,0.034-0.342l0.003-0.012   c0.046-0.119,0.124-0.37,0.294-0.933c0.092-0.278,0.167-0.506,0.167-0.506c0.063-0.191-0.037-0.398-0.226-0.455   c-0.168-0.053-0.342,0.03-0.425,0.184c0,0-0.008,0.012-0.009,0.015c-0.007,0.014-0.018,0.025-0.023,0.041   c-0.087,0.264-0.142,0.505-0.2,0.696c-0.099,0.328-0.198,0.652-0.218,0.713c-0.236,0.617,0,0.95,0.011,0.95l0.473,0.92   c0.304,1.063,0.45,1.573,0.547,1.826l-0.015,0.003c0.011,0.061,0.005,0.13-0.007,0.187l-1.612,0.742   c-0.065-0.059-0.134-0.115-0.211-0.165c0.293-0.168,0.489-0.401,0.489-0.702c0-1.329-3.676-1.329-3.676,0   c0,0.301,0.196,0.534,0.49,0.702c-0.114,0.076-0.219,0.159-0.308,0.253l-1.643-0.756c-0.011-0.057-0.018-0.127-0.007-0.189   l-0.014-0.003c0.092-0.244,0.231-0.737,0.521-1.764l0.455-0.915c0.051-0.061,0.293-0.395,0.054-1.017   c-0.044-0.133-0.446-1.466-0.446-1.466c-0.055-0.182-0.248-0.289-0.431-0.231c-0.183,0.055-0.287,0.248-0.231,0.431   c0.294,0.975,0.407,1.35,0.47,1.51l-0.008,0.003c0.095,0.246,0.044,0.35,0.019,0.391l-0.522,1.042c0,0-0.471,1.654-0.528,1.831   c-0.008,0.02-0.014,0.041-0.018,0.063c-0.062,0.34,0.066,0.66,0.081,0.695c0.033,0.08,0.096,0.144,0.175,0.18l1.336,0.614   c-0.399-0.034-0.877-0.083-1.075-0.132c-0.658-0.164-2.594-0.357-2.651-0.361C8.689,8.424,4.804,7.7,4.128,7.492   C4.053,7.474,2.274,7.045,1.026,7.695c-0.152,0.08-0.24,0.226-0.234,0.392c0.026,0.73,2.261,1.776,3.221,2.192   c0.442,0.192,0.959,0.536,1.674,1.013l0.119,0.074c0.07,0.031,1.359,0.596,2.975,0.596c0.514,0,1.061-0.057,1.613-0.207   c0.504-0.136,2.524-0.645,3.096-0.789c-0.131,0.181-0.241,0.391-0.333,0.62c-0.609,0.164-3.473,0.929-4.461,1.112   c-3.062,0.566-4.344,0.582-5.28,0.594c-0.735,0.009-1.266,0.016-2.236,0.268c-0.564,0.147-0.868,0.403-0.907,0.761   c-0.075,0.713,1.038,1.293,1.166,1.356c1.587,0.797,3.255,0.937,4.366,0.937c0.393,0,0.716-0.017,0.942-0.03l0.155-0.008   c0.1-0.005,0.237-0.006,0.401-0.008c1.347-0.014,4.5-0.045,5.426-1.983c0.199-0.416,0.238-0.493,0.257-0.53   c0.007-0.014,0.013-0.026,0.022-0.044c0.048,0.19,0.107,0.373,0.181,0.544c-0.034,0.019-0.068,0.04-0.095,0.071   c-0.065,0.075-0.095,0.175-0.082,0.273l0.038,0.282l-0.969,1.097c-0.074,0.083-0.109,0.194-0.096,0.304l0.192,1.765l-0.583,0.69   c-0.141,0.166-0.12,0.416,0.047,0.557c0.074,0.063,0.165,0.094,0.255,0.094c0.112,0,0.224-0.048,0.302-0.141l0.692-0.819   c0.069-0.082,0.103-0.19,0.091-0.297l-0.191-1.759l0.401-0.455l0.23,1.695c-0.047,0.194-0.075,0.394-0.075,0.597   c0,0.33,0.075,0.641,0.193,0.925c-0.05,0.204-0.098,0.473-0.098,0.703c0,0.241,0.039,0.473,0.102,0.696   c-0.063,0.223-0.102,0.457-0.102,0.699c0,0.235,0.04,0.464,0.1,0.682c-0.066,0.246-0.1,0.505-0.1,0.771   c0,0.342,0.064,0.673,0.173,0.971c-0.05,0.177-0.085,0.36-0.085,0.549c0,0.272,0.065,0.528,0.165,0.764   c-0.025,0.122-0.044,0.247-0.044,0.373c0,0.668,0.426,2.233,1.252,2.233c0.837,0,1.208-1.618,1.208-2.233   c0-0.12-0.024-0.235-0.046-0.35c0.105-0.242,0.174-0.506,0.174-0.787c0-0.195-0.034-0.382-0.085-0.561   c0.138-0.297,0.222-0.632,0.222-1.017c0-0.24-0.038-0.47-0.1-0.69c0.009-0.02,0.029-0.032,0.034-0.054   c0.044-0.202,0.067-0.408,0.067-0.617c0-0.259-0.034-0.51-0.101-0.748c0.06-0.218,0.101-0.447,0.101-0.681   c0-0.316-0.061-0.625-0.169-0.903c0.071-0.231,0.117-0.475,0.117-0.726c0-0.142-0.029-0.277-0.052-0.413   c0.014-0.031,0.043-0.052,0.048-0.088l0.251-1.78l0.392,0.444l-0.191,1.759c-0.012,0.107,0.021,0.215,0.091,0.297l0.693,0.819   c0.078,0.093,0.19,0.141,0.302,0.141c0.091,0,0.181-0.031,0.255-0.094c0.167-0.141,0.188-0.391,0.047-0.557l-0.584-0.69   l0.192-1.765c0.013-0.11-0.023-0.221-0.096-0.304l-0.955-1.08l0.057-0.406c0.014-0.099-0.016-0.2-0.082-0.276   c-0.036-0.041-0.084-0.076-0.134-0.099c0.058-0.146,0.106-0.298,0.144-0.458c0.042,0.063,0.063,0.088,0.083,0.112   c0.031,0.038,0.066,0.082,0.513,0.825c1.06,1.762,3.89,1.712,5.257,1.68c0.23-0.004,0.418-0.007,0.546-0.002l0.154,0.008   c0.226,0.013,0.549,0.03,0.942,0.03c1.112,0,2.779-0.14,4.366-0.937c0.126-0.064,1.24-0.644,1.165-1.356   C29.689,13.965,29.384,13.709,28.82,13.562z M16.855,9.55c0.51-0.039,1.397-0.115,1.695-0.189c0.617-0.153,2.572-0.348,2.616-0.354   c0.161-0.03,3.96-0.738,4.634-0.947c0.015-0.004,1.48-0.356,2.526,0.079c-0.251,0.267-1.08,0.848-2.788,1.588   c-0.493,0.214-1.032,0.573-1.777,1.071l-0.021,0.019c-0.021,0.01-2.106,0.923-4.192,0.358c-0.53-0.143-2.734-0.698-3.178-0.81   C16.633,10.146,16.805,9.865,16.855,9.55z M16.256,10.458L16.256,10.458L16.256,10.458L16.256,10.458z M10.249,11.177   c-2.062,0.559-4.137-0.335-4.148-0.335v0l-0.075-0.05c-0.741-0.495-1.277-0.852-1.768-1.064C2.55,8.988,1.722,8.407,1.47,8.14   c1.044-0.433,2.508-0.083,2.509-0.084c0.692,0.214,4.49,0.922,4.676,0.955c0.02,0.002,1.975,0.197,2.592,0.35   c0.369,0.091,1.35,0.165,1.614,0.183c0.05,0.324,0.228,0.613,0.504,0.839C12.804,10.524,10.757,11.04,10.249,11.177z    M12.907,12.829l-0.324,0.706c-0.097,0.212-0.097,0.212-0.115,0.246c-0.019,0.038-0.059,0.117-0.263,0.544   c-0.768,1.604-3.662,1.633-4.898,1.646c-0.173,0.002-0.317,0.003-0.423,0.008l-0.159,0.008c-0.9,0.049-3.002,0.163-5.011-0.844   c-0.493-0.248-0.857-0.614-0.841-0.764c0.004-0.046,0.108-0.156,0.466-0.249c0.9-0.235,1.375-0.241,2.093-0.249   c0.957-0.012,2.269-0.028,5.381-0.604c0.89-0.164,3.172-0.765,4.161-1.029C12.939,12.433,12.917,12.627,12.907,12.829z    M14.858,7.222c0.693,0,1.084,0.22,1.143,0.32c-0.059,0.1-0.449,0.319-1.143,0.319c-0.719,0-1.113-0.236-1.148-0.309   C13.746,7.458,14.139,7.222,14.858,7.222z M15.678,14.635c-0.111,0.156-0.074,0.372,0.081,0.482   c0.082,0.059,0.179,0.071,0.27,0.052l-0.361,2.565c-0.075,0.083-0.114,0.198-0.084,0.314c0.037,0.145,0.056,0.298,0.056,0.455   c0,0.231-0.041,0.457-0.121,0.655c-0.049,0.124-0.019,0.256,0.062,0.351c0.07,0.191,0.112,0.403,0.112,0.623   c0,0.227-0.04,0.45-0.114,0.646c-0.044,0.116-0.017,0.238,0.054,0.33c0.032,0.146,0.061,0.294,0.061,0.452   c0,0.158-0.017,0.315-0.051,0.466c-0.001,0.003,0,0.005,0,0.008c-0.057,0.086-0.079,0.193-0.043,0.298   c0.063,0.183,0.094,0.382,0.094,0.589c0,0.328-0.065,0.606-0.192,0.828c-0.003,0.005-0.003,0.01-0.005,0.015   c-0.011,0.022-0.017,0.046-0.023,0.07c-0.005,0.02-0.013,0.039-0.014,0.059c-0.002,0.021,0.002,0.043,0.005,0.064   c0.002,0.024,0.004,0.046,0.011,0.069c0.002,0.005,0.001,0.011,0.003,0.016c0.053,0.142,0.08,0.295,0.08,0.457   c0,0.224-0.052,0.434-0.15,0.61c-0.056,0.101-0.051,0.215-0.006,0.313c0.014,0.07,0.028,0.14,0.028,0.214   c0,0.633-0.346,1.475-0.504,1.543c-0.189-0.064-0.573-0.935-0.573-1.543c0-0.065,0.012-0.128,0.023-0.191   c0.057-0.101,0.067-0.227,0.006-0.336c-0.097-0.175-0.149-0.386-0.149-0.61c0-0.144,0.021-0.282,0.063-0.411   c0.009-0.027,0.007-0.055,0.009-0.082c0.018-0.07,0.02-0.144-0.009-0.216c-0.098-0.24-0.151-0.52-0.151-0.812   c0-0.191,0.027-0.375,0.071-0.55c0.05-0.085,0.067-0.189,0.031-0.289c-0.067-0.186-0.102-0.399-0.102-0.613   c0-0.188,0.026-0.371,0.078-0.539c0.003-0.01,0.001-0.021,0.003-0.031c0.03-0.074,0.039-0.158,0.011-0.24   c-0.061-0.181-0.092-0.378-0.092-0.584c0-0.151,0.034-0.354,0.072-0.515c0.057-0.099,0.07-0.221,0.013-0.33   c-0.118-0.227-0.18-0.498-0.18-0.785c0-0.081,0.02-0.157,0.03-0.236c0.052-0.07,0.079-0.16,0.066-0.253l-0.382-2.822   c0.003,0,0.005-0.002,0.007-0.002c0.056-0.003,0.105-0.021,0.151-0.047c0.009-0.005,0.02-0.003,0.029-0.009   c0.007-0.005,0.007-0.015,0.013-0.021c0.058-0.046,0.099-0.108,0.118-0.182c0.004-0.014,0.006-0.026,0.008-0.04   c0.002-0.016,0.009-0.029,0.009-0.046c0-0.066-0.024-0.125-0.057-0.177c-0.003-0.005,0-0.01-0.003-0.015   c-0.287-0.414-0.451-1.007-0.451-1.627c0-1.167,0.582-2.153,1.272-2.153s1.273,0.986,1.273,2.153   C16.131,13.662,15.974,14.219,15.678,14.635z M14.858,10.18c-0.72,0-1.329-0.372-1.329-0.813s0.609-0.813,1.329-0.813   s1.33,0.372,1.33,0.813S15.579,10.18,14.858,10.18z M28.305,15.143c-2.007,1.008-4.112,0.892-5.01,0.844l-0.159-0.008   c-0.14-0.007-0.34-0.003-0.585,0.002c-1.253,0.024-3.853,0.075-4.738-1.394c-0.469-0.779-0.506-0.825-0.561-0.893   c-0.028-0.035-0.075-0.094-0.431-0.673c0-0.276-0.034-0.535-0.083-0.785c1.045,0.258,3.566,0.873,4.467,1.04   c3.112,0.576,4.423,0.592,5.382,0.604c0.719,0.009,1.194,0.014,2.093,0.249c0.358,0.093,0.461,0.204,0.466,0.249   C29.163,14.529,28.798,14.895,28.305,15.143z"/></g></svg>