<?xml version="1.0" ?><svg id="Layer_1" style="enable-background:new 0 0 30 30;" version="1.1" viewBox="0 0 30 30" xml:space="preserve" xmlns="http://www.w3.org/2000/svg" xmlns:xlink="http://www.w3.org/1999/xlink"><style type="text/css">
	.st0{fill:#2CC0FE;}
	.st1{opacity:0.33;fill:#B5E7FE;}
	.st2{fill:#FF5450;}
	.st3{fill:#FC7235;}
	.st4{fill:#B55955;}
	.st5{fill:#F78A68;}
	.st6{fill:#F99F87;}
	.st7{fill:#D17979;}
	.st8{opacity:0.17;fill:#FFFFFF;}
</style><path d="M447.894,207.354"/><path class="st0" d="M456.389,198.592c0,0-1.19-1.19-4.212,0c0,0-5.861-5.448-11.538,1.282c0,0-8.012-0.183-7.6,7.417  c0,0-9.478,5.54,0.504,10.027c0,0,4.395,6.685,10.256,1.557c0,0,7.509,5.586,10.256-0.824c0,0,6.227,7.326,9.981,0.275  c0,0,6.685,6.501,11.629-0.641c0,0,12.091,4.53,11.355-9.731c0,0-2.198-4.005-5.036-3.73c0,0-1.74-9.615-8.791-7.142  c0,0-8.516-4.212-12.362,1.19C460.83,198.272,457.382,198.106,456.389,198.592z"/><path class="st1" d="M462.395,200.646c0,0,4.891-6.325,9.298,0c0,0,6.838-2.806,8.459,4.196c0.101,0.435,0,1.786,0,1.786  s3.022-0.069,4.739,2.335c0,0,1.648,8.104-8.104,7.211c0,0,0.036-0.57-2.974,2.383l1.852-0.873c0,0,7.917,3.022,11.387-4.327  c0,0,1.959-6.387-4.359-9.134c0,0-2.083-9.546-10.382-7.005c0,0-6.444-4.876-11.046,0.893c0,0-2.678,1.292,0.824,2.535"/><path class="st1" d="M454.02,201.805c0,0-5.002-7.52-9.409-0.939c0,0-6.726-1.981-8.348,5.305c-0.101,0.453,0,1.858,0,1.858  s-3.421-0.391-4.229,2.533c-0.807,2.918-0.129,6.035,9.658,6.478c0.88,0.04,5.185,0.973,0.911,3.402c0,0-0.538-0.348-0.739-0.414  c-3.054-1.017-7.005-0.927-11.69-5.391c0,0-0.932-5.626,3.62-7.978c0,0-0.137-7.337,10.31-8.421c0,0,0.61-4.583,13.693,0.98  c0,0,0.031,1.293-3.471,2.586"/><ellipse class="st1" cx="468.287" cy="202.789" rx="11.538" ry="6.288"/><path class="st1" d="M453.524,203.267c-2.015,1.899-4.165,5.453-9.304,5.453s-9.304-2.441-9.304-5.453  c0-1.815,2.792-2.729,5.723-4.033c1.934-0.86,3.635-2.503,5.677-2.503C451.455,196.73,456.079,200.859,453.524,203.267z"/><path d="M486.513,206.083c-0.927-1.055-1.867-1.767-2.96-2.242c-0.2-0.086-0.401-0.162-0.607-0.229  c-0.564-2.941-1.856-5.064-3.85-6.311c-1.912-1.199-3.968-1.531-6.076-0.942c-0.725-0.672-1.567-1.218-2.462-1.595  c-2.402-1.011-5.142-0.754-7.522,0.696c-0.266,0.163-0.522,0.34-0.723,0.502c-0.76,0.533-1.406,1.203-1.893,1.959  c-0.547-0.068-1.1-0.083-1.685-0.047c-0.356,0.022-0.711,0.091-1.069,0.183c-1.679-0.891-3.461-1.122-5.28-0.618  c-0.694-0.638-1.496-1.158-2.346-1.515c-2.303-0.969-4.936-0.725-7.224,0.669c-0.255,0.155-0.499,0.325-0.693,0.48  c-0.724,0.508-1.339,1.145-1.805,1.864c-0.52-0.064-1.039-0.077-1.594-0.043c-1.002,0.061-1.988,0.403-3.103,1.074  c-1.453,0.876-2.538,2.413-3.138,4.448c-0.205,0.696-0.296,1.459-0.27,2.242c-1.261,0.403-2.368,1.195-3.112,2.244  c-1.852,2.614-1.579,6.073,0.635,8.046c1.068,0.952,2.462,1.451,3.98,1.372c0.954,1.484,2.315,2.565,3.803,3.004  c1.287,0.378,2.42,0.45,3.469,0.221c1.19-0.261,2.226-0.786,3.152-1.599c1.374,1.15,3.248,1.805,5.119,1.805  c0.403,0,0.806-0.03,1.204-0.093c1.572-0.247,3.051-0.961,4.279-2.065c0.812,0.786,1.741,1.383,2.74,1.676  c1.34,0.395,2.522,0.471,3.61,0.231c1.251-0.273,2.339-0.827,3.307-1.687c1.434,1.212,3.397,1.902,5.359,1.902  c0.421,0,0.839-0.031,1.253-0.097c1.919-0.3,3.696-1.269,5.069-2.754c2.938,1.219,6.466,0.786,8.812-1.141  c1.803-1.479,2.994-3.512,3.271-5.579C488.472,209.838,487.871,207.63,486.513,206.083z M450.19,219.922  c-1.926,0.297-4-0.348-5.421-1.802c-0.171-0.181-0.476-0.215-0.724-0.206c-0.249,0.005-0.548,0.187-0.711,0.376  c-0.798,0.818-1.663,1.306-2.721,1.539c-0.752,0.163-1.602,0.1-2.597-0.191c-1.208-0.356-2.323-1.327-3.057-2.666  c-0.176-0.321-0.525-0.509-0.895-0.447c-1.183,0.17-2.334-0.153-3.157-0.889c-1.76-1.569-1.504-4.116-0.371-5.716  c0.631-0.89,1.642-1.518,2.774-1.727c0.46-0.085,0.774-0.516,0.713-0.98c-0.106-0.811-0.056-1.605,0.149-2.3  c0.329-1.119,1.007-2.625,2.359-3.438c0.863-0.52,1.595-0.782,2.303-0.825c0.621-0.035,1.189-0.003,1.775,0.113  c0.39,0.078,0.775-0.114,0.953-0.464c0.355-0.695,0.898-1.313,1.611-1.815c0.179-0.141,0.365-0.27,0.559-0.388  c1.801-1.097,3.853-1.298,5.628-0.55c0.795,0.335,1.539,0.852,2.15,1.497c0.239,0.252,0.7,0.305,1.024,0.188  c0.956-0.34,1.914-0.369,2.865-0.152c-1.453,0.923-2.548,2.484-3.157,4.548c-0.216,0.734-0.31,1.54-0.28,2.364  c-1.324,0.416-2.487,1.245-3.265,2.344c-1.926,2.717-1.643,6.314,0.659,8.366c1.116,0.995,2.61,1.491,4.158,1.424  c0.03,0.048,0.069,0.086,0.1,0.133c-0.009,0.008-0.021,0.01-0.03,0.018C452.604,219.157,451.431,219.727,450.19,219.922z   M486.42,211.911c-0.219,1.631-1.183,3.255-2.644,4.454c-1.987,1.628-5.084,1.896-7.527,0.642c-0.365-0.189-0.826-0.096-1.088,0.233  c-1.15,1.437-2.721,2.375-4.421,2.642c-2.045,0.313-4.217-0.367-5.713-1.899c-0.157-0.167-0.429-0.204-0.665-0.204  c-0.021,0-0.043,0-0.062,0.001c-0.251,0.006-0.552,0.191-0.715,0.381c-0.843,0.864-1.756,1.379-2.869,1.623  c-0.792,0.174-1.689,0.108-2.737-0.201c-1.275-0.374-2.451-1.398-3.225-2.809c-0.175-0.321-0.524-0.499-0.895-0.447  c-1.257,0.175-2.468-0.164-3.336-0.938c-1.86-1.659-1.591-4.349-0.394-6.038c0.665-0.939,1.733-1.604,2.928-1.823  c0.46-0.085,0.775-0.516,0.713-0.981c-0.114-0.853-0.059-1.691,0.157-2.422c0.347-1.178,1.06-2.763,2.487-3.624  c0.906-0.546,1.677-0.822,2.428-0.868c0.654-0.044,1.251-0.003,1.867,0.118c0.401,0.077,0.775-0.114,0.953-0.463  c0.376-0.734,0.949-1.386,1.7-1.914c0.187-0.148,0.382-0.284,0.588-0.409c1.897-1.155,4.056-1.367,5.926-0.578  c0.841,0.354,1.625,0.898,2.262,1.575c0.238,0.251,0.702,0.3,1.03,0.188c1.661-0.588,3.385-0.367,4.996,0.643  c1.663,1.043,2.721,2.946,3.142,5.654c0.056,0.354,0.32,0.64,0.67,0.721c0.298,0.07,0.592,0.164,0.878,0.288  c0.856,0.372,1.577,0.924,2.337,1.79C486.214,208.408,486.663,210.109,486.42,211.911z"/><polygon class="st2" points="29.048,15.777 22.064,18.084 21.9,17.116 28.347,14.686 "/><polygon class="st2" points="27.961,13.197 21.542,16.787 21.197,15.867 27.066,12.258 "/><polygon class="st2" points="26.267,11.06 20.556,15.693 20.058,14.846 25.225,10.287 "/><polygon class="st2" points="24.068,9.139 18.985,14.686 18.815,13.62 22.832,8.583 "/><g><polygon class="st3" points="22.373,19.053 29.295,17.034 29.295,15.685 27.873,14.274 28.018,13.491 26.514,12.172 26.37,10.772    24.783,10.36 24.248,8.959 22.476,8.691 21.817,7.455 20.293,7.455 19.283,6.26 17.8,6.569 16.07,5.951 15.349,6.322 13.557,5.951    12.3,6.817 10.714,6.281 9.684,7.517 7.954,7.538 6.924,8.897 5.688,8.856 4.72,10.421 3.504,10.875 3.319,12.255 1.877,13.161    1.877,14.644 0.62,15.777 0.888,17.199 7.253,18.888 7.871,18.29 8.881,16.498 10.817,14.727 13.351,13.614 16.585,13.717    18.274,14.006 20.602,15.901 21.858,17.549  "/><polygon class="st2" points="21.827,7.641 17.826,13.898 17.007,13.481 20.329,7.316  "/><polygon class="st2" points="19.17,6.575 16.235,13.898 15.678,12.847 17.872,6.683  "/><polygon class="st2" points="16.42,5.833 14.958,13.728 14.103,13.202 14.958,6.667  "/><polygon class="st2" points="13.577,6.096 13.529,13.337 12.573,13.65 12.233,7.007  "/><polygon class="st2" points="9.761,7.548 11.584,14.129 12.141,13.898 10.874,6.575  "/><polygon class="st2" points="8.309,7.749 10.951,14.747 10.163,14.747 7.15,8.614  "/><polygon class="st2" points="5.729,9.062 9.761,15.613 8.927,15.685 5.204,10.236  "/><polygon class="st2" points="3.798,10.962 8.85,16.663 8.232,16.926 3.226,12.26  "/><polygon class="st2" points="2.098,13.141 8.031,17.312 5.574,16.339 1.959,14.624  "/><polygon class="st2" points="0.722,15.685 7.614,18.393 7.32,19.053 0.722,17.173  "/><path class="st4" d="M17.007,20.659l1.04-0.494c0,0-0.133-4.474-3.945-3.378c-0.99,0.285-3.512,2.101-1.411,3.873h0.886l1.38-0.453   C14.958,20.206,16.296,20.083,17.007,20.659z"/><path class="st5" d="M8.031,19.197l3.507,0.927c0,0,0.834-3.554,3.461-3.337c0,0,3.152,0.247,3.214,3.337l4.161-1.071V18.45   l-0.932-0.768l0.139-0.556l-0.618-0.513l-0.155-0.443l-0.749-0.712l-1.243-0.936l-1.174-0.624l-1.437-0.247h-0.742l-1.081-0.17   l-1.947,0.417l-2.101,1.066c0,0-3.977,4.588-2.534,4.233C8.386,19.053,8.031,19.197,8.031,19.197z"/><path class="st6" d="M9.972,19.465c0,0,4.47-6.511,7.035-5.676c0,0-3.924-1.787-7.957,2.382l-1.565,2.882L9.972,19.465z"/><path class="st7" d="M14.813,16.926c0,0-1.081,2.178,0,3.105l-2.58,0.628C12.233,20.659,11.075,16.972,14.813,16.926z"/><ellipse class="st8" cx="15.308" cy="11.991" rx="9.27" ry="5.895"/><path d="M29.577,15.364l-1.001-0.926l-0.137-1.358c-0.013-0.121-0.08-0.23-0.183-0.295l-1.155-0.726l-0.384-1.309   c-0.035-0.117-0.121-0.211-0.234-0.256l-1.268-0.502l-0.617-1.217c-0.055-0.109-0.156-0.186-0.276-0.21l-1.339-0.262L22.153,7.22   c-0.074-0.097-0.188-0.154-0.311-0.155l-1.364-0.011l-1.014-0.911c-0.092-0.082-0.211-0.118-0.335-0.095L17.785,6.29L16.62,5.581   c-0.103-0.063-0.231-0.075-0.346-0.032l-1.276,0.484L13.724,5.55c-0.114-0.044-0.241-0.032-0.346,0.032L12.212,6.29l-1.343-0.242   c-0.12-0.023-0.244,0.013-0.334,0.095L9.519,7.054L8.155,7.065C8.033,7.066,7.918,7.123,7.844,7.22L7.015,8.303L5.676,8.565   c-0.12,0.024-0.222,0.101-0.277,0.21L4.783,9.991l-1.268,0.502c-0.113,0.045-0.199,0.14-0.234,0.256l-0.384,1.309l-1.155,0.726   c-0.103,0.065-0.171,0.174-0.183,0.295l-0.138,1.358L0.42,15.363c-0.09,0.083-0.136,0.202-0.126,0.324l0.122,1.431   c-0.009,0.062-0.003,0.125,0.017,0.185c0.042,0.122,0.142,0.216,0.267,0.252l8.474,2.402l4.206,1.193l1.231,1.231l0.2,4.061   c0.01,0.211,0.185,0.377,0.394,0.377c0.007,0,0.014-0.001,0.02-0.001c0.218-0.011,0.386-0.196,0.376-0.414l-0.067-1.356   l0.504,1.501c0.055,0.166,0.21,0.27,0.375,0.27c0.042,0,0.084-0.007,0.126-0.021c0.208-0.07,0.319-0.294,0.249-0.5l-1.335-3.982   l1.165-1.165l0.889-0.252l11.791-3.343c0.124-0.035,0.218-0.135,0.261-0.256c0.017-0.048,0.023-0.098,0.02-0.149l0.125-1.462   C29.713,15.566,29.667,15.446,29.577,15.364z M27.773,14.367l-5.923,2.308l-0.47-0.296l-0.091-0.31l5.469-3.29l0.912,0.573   L27.773,14.367z M16.557,20.345c-0.386-0.466-0.942-0.748-1.558-0.748c-0.616,0-1.172,0.282-1.558,0.748l-1.191-0.338   c0-0.005-0.001-0.01-0.001-0.014c0-1.516,1.234-2.75,2.75-2.75c1.516,0,2.749,1.234,2.749,2.75c0,0.005-0.001,0.01-0.001,0.015   l-1.136,0.322l0,0L16.557,20.345z M18.519,19.789c-0.108-1.856-1.638-3.337-3.52-3.337c-1.883,0-3.412,1.48-3.52,3.336   l-3.394-0.962l-0.027-0.318l0.429-0.397c0.071-0.066,0.115-0.154,0.125-0.251L8.67,17.28l0.495-0.311   c0.082-0.052,0.142-0.131,0.169-0.224l0.165-0.561l0.544-0.215c0.09-0.036,0.163-0.103,0.207-0.189l0.264-0.521l0.574-0.112   c0.095-0.019,0.179-0.071,0.238-0.148l0.355-0.464l0.585-0.005c0.096,0,0.189-0.037,0.261-0.101l0.435-0.391l0.575,0.103   c0.096,0.018,0.193,0,0.275-0.051l0.5-0.303l0.547,0.208c0.091,0.034,0.19,0.034,0.281,0l0.547-0.208l0.5,0.304   c0.083,0.05,0.181,0.069,0.276,0.051l0.575-0.104l0.435,0.39c0.072,0.065,0.165,0.101,0.262,0.101l0.584,0.005l0.355,0.464   c0.058,0.077,0.143,0.13,0.238,0.148l0.575,0.112l0.265,0.521c0.043,0.086,0.117,0.154,0.207,0.189l0.544,0.215l0.164,0.561   c0.027,0.093,0.087,0.172,0.169,0.224l0.495,0.311l0.058,0.582c0.011,0.097,0.055,0.185,0.126,0.251l0.43,0.396l-0.027,0.318   l-3.17,0.899L18.519,19.789z M26.298,12.133l-5.51,3.314l-0.402-0.159L20.24,15l4.77-4.239l1.001,0.397L26.298,12.133z    M24.44,10.211l-4.806,4.271l-0.425-0.083l-0.196-0.257l3.91-5.045l1.057,0.207L24.44,10.211z M22.26,8.661l-3.939,5.082   l-0.433-0.004l-0.24-0.216l2.917-5.678l1.077,0.009L22.26,8.661z M19.834,7.539l-2.939,5.721l-0.426,0.077l-0.277-0.168   l1.825-6.117l1.061-0.191L19.834,7.539z M16.374,6.358l0.868,0.528l-1.839,6.163l-0.404,0.154l-0.302-0.115l0.67-6.347   L16.374,6.358z M13.623,6.358l0.95,0.361l-0.675,6.394l-0.37,0.225l-0.318-0.057l-0.509-6.363L13.623,6.358z M10.919,6.86l1,0.18   l0.512,6.41l-0.322,0.289l-0.323,0.003L10.118,7.58L10.919,6.86z M8.355,7.854L9.37,7.846l1.681,6.208l-0.263,0.344l-0.317,0.062   L7.7,8.71L8.355,7.854z M6.018,9.304l0.997-0.195l2.793,5.794l-0.195,0.386l-0.3,0.119l-3.781-5.142L6.018,9.304z M4.93,10.784   l3.809,5.18l-0.122,0.415L8.343,16.55l-4.661-4.359l0.303-1.034L4.93,10.784z M3.187,12.811l4.696,4.391l-0.001,0.01l-5.661-2.819   l0.106-1.042L3.187,12.811z M1.099,15.813l0.769-0.712l5.66,2.819l-0.15,0.138c-0.09,0.083-0.136,0.203-0.126,0.324l0.018,0.213   l-6.082-1.724L1.099,15.813z M14.999,21.649l-0.89-0.89c0.465-0.471,1.314-0.471,1.78,0L14.999,21.649z M28.809,16.871   l-6.082,1.724l0.018-0.213c0.011-0.122-0.036-0.241-0.126-0.324l-0.462-0.426l-0.022-0.22l5.975-2.328l0.788,0.729L28.809,16.871z"/></g></svg>