<?xml version="1.0" ?><svg id="Layer_1" style="enable-background:new 0 0 30 30;" version="1.1" viewBox="0 0 30 30" xml:space="preserve" xmlns="http://www.w3.org/2000/svg" xmlns:xlink="http://www.w3.org/1999/xlink"><style type="text/css">
	.st0{fill:#206608;}
	.st1{fill:#91DE14;}
	.st2{fill:#3BB417;}
</style><g><path class="st0" d="M15.178,19.421c0,0,6.55,0.983,9.989-3.93l0.901-0.851l-0.901-0.295l1.31-1.597l-0.328-0.573l1.105-1.556   l-0.45-0.638l0.983-3.415l-0.368-0.287c0,0,0.819-4.094,0.737-5.404c0,0-1.719,1.801-2.456,1.719l-0.737-0.082l-2.047,1.351   c0,0-1.515-1.023-2.497,0.041c0,0-1.638,0.041-1.719,0.901c0,0-0.983-0.819-1.719,0.368L15.71,6.361l-0.368-0.696   c0,0-3.807,4.217-2.948,9.866C12.394,15.532,13.418,18.274,15.178,19.421z"/><path class="st1" d="M1.914,11.97c0,0,12.65,1.801,9.784,10.235c0,0-6.018,3.275-8.392-5.404c0,0-0.509-2.696-1.092-4.193   C2.115,12.354,2.015,12.136,1.914,11.97z"/><path class="st2" d="M28.37,0.876l-6.56,9.662l-4.217,4.79l-2.825,4.174c0,0-3.126-3.355-2.648-6.098c0,0,0.49-4.765,2.879-7.316   l0.342-0.422l0.368,0.696l1.269-1.187c0,0,0.778-1.228,1.597-0.123c0,0,0.739-1.24,1.639-1.132c0,0,1.555-1.447,2.701-0.055   l2.047-1.351l0.491,0.246l2.702-1.883H28.37z"/><path class="st2" d="M2.395,12.42c0,0,7.154,7.768,9.15,9.856c0,0-6.386,3.255-8.444-6.325C3.101,15.951,2.886,15.368,2.395,12.42z   "/><path d="M27.984,6.105c-0.009-0.007-0.017-0.014-0.027-0.02c0.249-0.96,0.746-3.2,0.627-5.371c-0.009-0.157-0.11-0.294-0.258-0.348   c-0.148-0.053-0.313-0.014-0.421,0.101c-0.662,0.708-1.799,1.706-2.389,1.855l-0.228-0.124c-0.121-0.065-0.267-0.062-0.385,0.006   l-2.084,1.216c-0.143-0.157-0.357-0.323-0.661-0.409c-0.605-0.172-1.326,0.043-2.15,0.635c-0.316,0.059-0.972,0.238-1.409,0.746   c-0.143-0.119-0.325-0.22-0.551-0.252c-0.483-0.071-0.974,0.197-1.43,0.751l-0.851,0.785L15.712,5.58   c-0.064-0.113-0.181-0.188-0.311-0.198c-0.138-0.01-0.257,0.045-0.338,0.147c-0.152,0.19-1.491,1.882-1.78,2.557   c-0.043,0.067-4.122,6.534,1.132,11.336c-0.515,1.43-0.802,3.099-0.659,4.955c-0.469-0.678-1.004-1.379-1.58-2.082   c1.44-4.031-1.717-7.123-1.748-7.151c-3.095-2.738-8.365-3.414-8.588-3.442c-0.163-0.018-0.324,0.065-0.399,0.213   c-0.075,0.148-0.048,0.327,0.065,0.447c0.362,0.383,0.765,1.987,1.12,3.402c0.332,1.319,0.674,2.683,1.075,3.562   c0.916,2.009,2.183,3.293,3.766,3.816c0.572,0.189,1.131,0.26,1.649,0.26c1.127,0,2.055-0.336,2.509-0.535   c1.01,1.236,1.894,2.459,2.458,3.529c0.001,0.001,0.002,0.002,0.003,0.003c0.231,0.973,0.568,1.983,1.067,3.033   c0.067,0.141,0.208,0.225,0.355,0.225c0.056,0,0.114-0.012,0.168-0.038c0.196-0.093,0.28-0.327,0.187-0.524   c-1.71-3.604-1.596-6.747-0.779-9.183c0.014,0.002,0.025,0.014,0.039,0.015c0.036,0.002,0.198,0.011,0.458,0.011   c1.468,0,6.09-0.278,9.35-3.572l0.441-0.419c0.084-0.08,0.127-0.191,0.122-0.302c0.318-0.242,0.651-0.572,0.86-0.996   c0.059-0.12,0.053-0.262-0.017-0.378c-0.061-0.1-0.163-0.167-0.277-0.184c0.398-0.533,0.881-1.295,0.918-1.911   c0.005-0.074-0.012-0.146-0.046-0.21c0.339-0.494,0.729-1.191,0.741-1.798c0.002-0.124-0.055-0.243-0.154-0.319   c-0.065-0.05-0.144-0.078-0.224-0.082c0.345-0.948,0.881-2.565,0.834-3.38C28.121,6.277,28.069,6.175,27.984,6.105z M7.713,22.396   C6.346,21.945,5.237,20.802,4.415,19c-0.371-0.814-0.704-2.143-1.027-3.427c-0.294-1.171-0.56-2.233-0.859-2.962   c1.572,0.294,5.142,1.145,7.367,3.113c0.027,0.026,2.57,2.541,1.682,5.858c-0.456-0.535-0.926-1.063-1.398-1.579   c-0.114-0.295-0.762-2.07-0.475-3.597c0.04-0.214-0.1-0.419-0.314-0.459c-0.211-0.039-0.418,0.101-0.459,0.313   c-0.161,0.857-0.069,1.752,0.08,2.492c-0.345-0.361-0.68-0.704-1.007-1.034c-0.002-0.005,0-0.01-0.002-0.015   c-0.008-0.017-0.756-1.778-0.427-3.014c0.056-0.21-0.069-0.425-0.279-0.481c-0.207-0.054-0.425,0.069-0.481,0.279   c-0.178,0.67-0.108,1.428,0.025,2.072c-1.174-1.149-2.023-1.923-2.125-2.015c-0.162-0.145-0.41-0.134-0.556,0.027   c-0.146,0.161-0.134,0.41,0.027,0.556c0.024,0.022,0.817,0.745,1.953,1.854c-0.533-0.145-1.087-0.271-1.492-0.293   c-0.23,0-0.402,0.154-0.414,0.371s0.154,0.402,0.371,0.414c0.762,0.042,2.244,0.53,2.732,0.697   c0.368,0.371,0.749,0.763,1.141,1.173c-0.743-0.228-1.596-0.454-2.147-0.485c-0.212,0.003-0.402,0.154-0.414,0.371   c-0.012,0.216,0.154,0.402,0.371,0.414c0.9,0.049,2.865,0.741,3.315,0.904c0.506,0.552,1.005,1.117,1.489,1.688   C10.427,22.491,9.105,22.858,7.713,22.396z M27.15,6.707c0.046,0.054,0.106,0.093,0.17,0.115c-0.132,0.975-0.761,2.699-1.028,3.367   c-0.056,0.139-0.028,0.297,0.073,0.409c0.093,0.104,0.233,0.147,0.372,0.122c-0.232,0.54-0.679,1.124-0.886,1.361   c-0.12,0.138-0.129,0.342-0.021,0.49c0.045,0.062,0.107,0.107,0.174,0.134c-0.257,0.521-0.724,1.131-1.05,1.49   c-0.104,0.114-0.131,0.278-0.07,0.42c0.059,0.136,0.188,0.227,0.335,0.237c-0.398,0.366-0.865,0.561-0.872,0.563   c-0.186,0.077-0.285,0.283-0.227,0.476c0.012,0.042,0.032,0.08,0.056,0.114c-3.211,3.054-7.814,3.156-8.805,3.143   c0.582-1.384,1.376-2.5,2.145-3.282l5.519-1.556c0.209-0.059,0.331-0.276,0.272-0.485c-0.059-0.209-0.276-0.33-0.485-0.272   l-4.036,1.138c1.268-1.192,2.252-2.351,3.018-3.431c0.017-0.007,0.037-0.005,0.053-0.014l2.919-1.702   c0.188-0.109,0.251-0.35,0.142-0.538s-0.349-0.249-0.537-0.142l-1.646,0.959c1.528-2.629,1.718-4.506,1.729-4.631   c0.018-0.216-0.141-0.406-0.357-0.425C23.893,4.757,23.7,4.91,23.681,5.126c-0.002,0.029-0.193,1.852-1.706,4.417l-0.179-3.132   c-0.013-0.215-0.177-0.379-0.415-0.37c-0.217,0.012-0.383,0.198-0.37,0.415l0.24,4.207c-0.831,1.2-1.947,2.51-3.436,3.85   l0.133-4.081c0.008-0.217-0.163-0.399-0.38-0.406c-0.203-0.008-0.398,0.164-0.405,0.38l-0.159,4.857   c-0.802,0.804-1.638,1.945-2.267,3.359c-4.415-4.32-0.951-9.868-0.765-10.165c0.182-0.416,0.863-1.347,1.346-1.978l0.009,0.015   c0.059,0.104,0.163,0.176,0.281,0.194c0.118,0.02,0.239-0.018,0.327-0.099l1.251-1.159c0.292-0.351,0.565-0.539,0.746-0.513   c0.175,0.024,0.316,0.251,0.349,0.327c0.064,0.149,0.211,0.245,0.376,0.237c0.162-0.007,0.304-0.112,0.357-0.266   c0.214-0.628,1.035-0.782,1.22-0.811c0.059-0.011,0.115-0.035,0.163-0.071c0.799-0.592,1.274-0.638,1.535-0.569   c0.287,0.076,0.399,0.322,0.401,0.327c0.042,0.106,0.13,0.188,0.237,0.225c0.107,0.036,0.226,0.024,0.325-0.032l2.211-1.29   l0.152,0.083c0.066,0.036,0.143,0.049,0.219,0.046c0.707-0.058,1.678-0.844,2.334-1.456c-0.053,2.372-0.732,4.643-0.74,4.669   C27.033,6.465,27.063,6.605,27.15,6.707z"/></g></svg>