<?xml version="1.0" ?><svg id="Layer_1" style="enable-background:new 0 0 30 30;" version="1.1" viewBox="0 0 30 30" xml:space="preserve" xmlns="http://www.w3.org/2000/svg" xmlns:xlink="http://www.w3.org/1999/xlink"><style type="text/css">
	.st0{fill:#D4BF88;}
	.st1{fill:#77C4D3;}
	.st2{fill:#0EAEC4;}
</style><g><path class="st0" d="M15.824,9.564v0.659l0.247,0.782l-0.494,5.148l-0.391,6.043l-0.968-8.143l-0.247-2.8l0.844-0.865l-0.391-0.824   C14.423,9.564,15.206,8.741,15.824,9.564z"/><path class="st1" d="M14.032,13.406c0,0-3.912-7.618-11.901-7.124c0,0-3.336,0.412-0.206,5.065l0.494,2.636   c0,0,1.03,3.171,2.924,2.759c0,0-3.294,2.265,0.906,6.712c0,0,2.8,4.365,6.959-1.73l1.606-2.265l-0.577-5.806L14.032,13.406z"/><path class="st1" d="M16.132,13.406c0,0,3.912-7.618,11.901-7.124c0,0,3.336,0.412,0.206,5.065l-0.494,2.636   c0,0-1.03,3.171-2.924,2.759c0,0,3.294,2.265-0.906,6.712c0,0-2.8,4.365-6.959-1.73l-1.606-2.265l0.577-5.806L16.132,13.406z"/><ellipse class="st2" cx="7.7" cy="22.547" rx="0.726" ry="0.988" transform="matrix(0.8956 -0.4448 0.4448 0.8956 -9.2248 5.778)"/><ellipse class="st2" cx="22.165" cy="22.922" rx="0.726" ry="0.988" transform="matrix(0.8956 -0.4448 0.4448 0.8956 -7.8822 12.251)"/><ellipse class="st2" cx="6.079" cy="19.283" rx="0.988" ry="0.726" transform="matrix(0.9963 -0.0862 0.0862 0.9963 -1.6403 0.5961)"/><ellipse class="st2" cx="23.451" cy="19.168" rx="0.988" ry="0.726" transform="matrix(0.9963 -0.0862 0.0862 0.9963 -1.5657 2.0938)"/><ellipse class="st2" cx="4.128" cy="12.394" rx="0.988" ry="0.726" transform="matrix(0.9963 -0.0862 0.0862 0.9963 -1.0535 0.4022)"/><ellipse class="st2" cx="25.213" cy="12.394" rx="0.988" ry="0.726" transform="matrix(0.9963 -0.0862 0.0862 0.9963 -0.9749 2.2205)"/><ellipse class="st2" cx="2.481" cy="8.298" rx="0.988" ry="0.726" transform="matrix(0.9963 -0.0862 0.0862 0.9963 -0.7064 0.2449)"/><ellipse class="st2" cx="26.875" cy="8.298" rx="0.988" ry="0.726" transform="matrix(0.9963 -0.0862 0.0862 0.9963 -0.6155 2.3485)"/><path class="st2" d="M18.337,10.663c0,0,3.655,4.505-0.908,11.537l-1.913-2.705l0.397-6.645L18.337,10.663z"/><path class="st2" d="M11.741,10.666c0,0-3.624,4.53,0.988,11.53l1.894-2.718l-0.443-6.642L11.741,10.666z"/><path d="M29.215,6.648c-0.695-0.764-1.647-1.109-2.698-0.973c-1.774,0.231-3.574,0.847-5.351,1.83   c-2.026,1.12-3.624,2.595-4.77,4.389l0.056-0.805c0.006-0.085-0.016-0.17-0.063-0.242l-0.346-0.534   c0.14-0.363,0.11-0.721-0.087-1.038c0.471-1.162,1.132-2.085,2.017-2.82c0.058-0.049,0.156-0.095,0.235-0.131   c0.642-0.297,1.098-0.731,1.395-1.327c0.097-0.196,0.017-0.433-0.179-0.53c-0.192-0.097-0.432-0.019-0.53,0.178   c-0.219,0.441-0.533,0.737-1.019,0.961c-0.143,0.067-0.282,0.135-0.408,0.241c-0.928,0.772-1.658,1.765-2.17,2.957   c-0.129-0.029-0.269-0.035-0.417-0.007c-0.393-0.921-0.933-1.738-1.607-2.432c-0.286-0.294-0.642-0.623-1.115-0.834   c-0.379-0.169-0.663-0.456-0.868-0.877c-0.095-0.196-0.332-0.278-0.528-0.183c-0.196,0.096-0.278,0.332-0.183,0.528   c0.285,0.588,0.708,1.01,1.257,1.254c0.349,0.156,0.624,0.411,0.87,0.663c0.634,0.651,1.136,1.427,1.496,2.315   c-0.265,0.427-0.303,0.724-0.12,1.101L13.7,10.914l0.016,0.011c-0.054,0.149-0.078,0.442-0.06,1.029   c-1.151-1.761-2.744-3.212-4.758-4.316c-1.79-0.983-3.605-1.598-5.393-1.829C2.453,5.666,1.49,6.016,0.79,6.779   C0.277,7.339,0.108,8.075,0.288,8.967c0.137,0.678,0.422,1.282,0.678,1.797l0.647,1.29c0.229,0.465,0.283,0.984,0.327,1.566   c0.024,0.318,0.049,0.637,0.11,0.949c0.258,1.33,1.236,2.334,2.506,2.655c-0.89,0.814-1.204,2.062-0.778,3.256   c0.624,1.748,1.546,3.112,2.819,4.167c0.584,0.485,1.184,0.773,1.827,0.882c0.056,0.029,0.119,0.045,0.183,0.045l0.665-0.006   c1.246-0.212,2.069-1.018,2.743-1.757c0.692-0.757,1.542-1.768,2.226-2.958c0.03,0.845,0.068,1.691,0.108,2.536l0.029,0.614   c0.008,0.161,0.03,0.331,0.139,0.481c0.18,0.242,0.375,0.366,0.582,0.366c0.004,0,0.008,0,0.012-0.001   c0.301-0.007,0.579-0.308,0.616-0.562c0.066-0.431,0.13-0.89,0.137-1.349c0.011-0.732,0.012-1.465,0.014-2.197   c0.678,1.182,1.514,2.185,2.195,2.936c0.669,0.739,1.486,1.545,2.79,1.763h0.595c0.056,0,0.119-0.018,0.175-0.044   c0.645-0.109,1.241-0.399,1.822-0.884c1.261-1.055,2.176-2.418,2.795-4.167c0.423-1.194,0.112-2.441-0.771-3.255   c1.257-0.319,2.229-1.323,2.485-2.655c0.061-0.311,0.085-0.629,0.108-0.95c0.043-0.581,0.097-1.1,0.325-1.566l0.641-1.291   c0.316-0.636,0.55-1.184,0.673-1.796C29.891,7.942,29.724,7.207,29.215,6.648z M14.876,10.132c-0.15-0.232-0.16-0.249,0.002-0.495   c0.149-0.096,0.275-0.092,0.376,0.013c0.099,0.129,0.132,0.258-0.005,0.493c-0.075,0.129-0.072,0.289,0.01,0.415l0.395,0.608   l-0.461,6.619c-0.011,0.073-0.033,0.141-0.042,0.215c-0.007,0.057,0,0.112,0.015,0.164l-0.028,0.402   c-0.043,0.132-0.043,0.248-0.043,0.328l-0.003,1.123c0,0.128-0.001,0.255-0.002,0.383c-0.022-0.077-0.049-0.152-0.073-0.228   c-0.003-0.282-0.007-0.563-0.005-0.845l0.003-0.566c0-0.031-0.003-0.061-0.01-0.089c-0.058-0.437-0.556-6.502-0.585-7.415   l0.454-0.694C14.96,10.431,14.961,10.263,14.876,10.132z M13.753,20.128c-0.669,1.273-1.593,2.353-2.323,3.152   c-0.747,0.818-1.391,1.356-2.226,1.504H8.7c-0.031-0.012-0.061-0.02-0.086-0.024c-0.527-0.078-1.022-0.314-1.513-0.72   c-1.161-0.962-2.004-2.213-2.578-3.825c-0.369-1.034-0.017-2.077,0.896-2.659c0.088-0.056,0.173-0.12,0.257-0.182l0.107-0.079   c0.104-0.075,0.165-0.196,0.164-0.323c-0.001-0.128-0.064-0.248-0.169-0.321c-0.153-0.107-0.293-0.107-0.351-0.107   c-1.288-0.002-2.358-0.875-2.6-2.123c-0.055-0.282-0.075-0.571-0.097-0.858c-0.048-0.641-0.115-1.265-0.406-1.856L1.674,10.41   c-0.29-0.581-0.505-1.075-0.61-1.599C0.933,8.162,1.031,7.687,1.373,7.314c0.521-0.568,1.24-0.826,2.031-0.723   C5.117,6.813,6.79,7.382,8.518,8.33c2.267,1.244,3.909,2.868,5.019,4.965l0.072,0.135c0.053,0.098,0.109,0.202,0.153,0.29   c0.022,0.29,0.05,0.618,0.08,0.969c-1.042-2.002-2.769-3.558-4.956-4.316C7.515,9.897,6.032,9.767,4.596,10   c-0.215,0.035-0.362,0.238-0.327,0.454c0.035,0.215,0.235,0.362,0.454,0.327c1.324-0.216,2.639-0.101,3.905,0.338   c3.007,1.043,5.092,3.729,5.454,7.016c-0.757-1.214-1.787-2.239-3.048-2.97c-1.255-0.727-2.687-1.136-4.141-1.181   c-0.249,0-0.401,0.165-0.408,0.383c-0.007,0.219,0.165,0.401,0.383,0.408c1.343,0.042,2.611,0.403,3.769,1.075   c1.521,0.881,2.68,2.231,3.363,3.84c-0.012,0.021-0.021,0.04-0.034,0.061C13.889,19.883,13.813,20.014,13.753,20.128z    M28.936,8.679c-0.104,0.526-0.318,1.02-0.605,1.6l-0.643,1.295c-0.29,0.592-0.355,1.216-0.403,1.86   c-0.021,0.285-0.041,0.572-0.096,0.853c-0.24,1.248-1.299,2.121-2.589,2.123c-0.058,0.001-0.193,0.004-0.342,0.11   c-0.103,0.074-0.164,0.193-0.165,0.319c0,0.127,0.061,0.247,0.163,0.321l0.104,0.078c0.084,0.064,0.169,0.127,0.258,0.184   c0.905,0.581,1.254,1.625,0.887,2.66c-0.57,1.612-1.407,2.864-2.558,3.825c-0.485,0.405-0.976,0.641-1.505,0.72   c-0.021,0.004-0.048,0.013-0.077,0.024l-0.435,0.005c-0.892-0.152-1.53-0.69-2.271-1.509c-0.723-0.798-1.639-1.877-2.304-3.152   c-0.06-0.115-0.135-0.247-0.212-0.381c-0.004-0.007-0.007-0.013-0.011-0.02c0.942-2.203,2.721-3.871,4.954-4.595   c1.271-0.413,2.587-0.501,3.91-0.26c0.212,0.037,0.421-0.104,0.459-0.318c0.04-0.215-0.103-0.421-0.319-0.46   c-1.428-0.26-2.917-0.162-4.295,0.286c-2.067,0.671-3.777,2.079-4.885,3.949l0.023-0.323c0.48-3.196,2.586-5.766,5.56-6.731   c1.271-0.414,2.588-0.5,3.91-0.26c0.212,0.037,0.421-0.104,0.459-0.318c0.04-0.215-0.103-0.421-0.319-0.46   c-1.428-0.261-2.917-0.162-4.295,0.286c-2.24,0.727-4.02,2.29-5.096,4.322l0.069-0.996c0.015-0.021,0.033-0.038,0.044-0.062   c0.04-0.09,0.114-0.227,0.179-0.348l0.079-0.147c1.101-2.096,2.729-3.72,4.977-4.963c1.714-0.948,3.372-1.517,5.071-1.738   c0.78-0.098,1.494,0.155,2.01,0.721C28.97,7.553,29.067,8.029,28.936,8.679z"/></g></svg>