<?xml version="1.0" ?><svg id="Layer_1" style="enable-background:new 0 0 30 30;" version="1.1" viewBox="0 0 30 30" xml:space="preserve" xmlns="http://www.w3.org/2000/svg" xmlns:xlink="http://www.w3.org/1999/xlink"><style type="text/css">
	.st0{fill:#2CC0FE;}
	.st1{opacity:0.33;fill:#B5E7FE;}
	.st2{fill:#7A4B31;}
	.st3{fill:#A3875E;}
	.st4{fill:#895C46;}
	.st5{fill:#B79D7E;}
</style><path d="M447.894,207.354"/><path class="st0" d="M456.389,198.592c0,0-1.19-1.19-4.212,0c0,0-5.861-5.448-11.538,1.282c0,0-8.012-0.183-7.6,7.417  c0,0-9.478,5.54,0.504,10.027c0,0,4.395,6.685,10.256,1.557c0,0,7.509,5.586,10.256-0.824c0,0,6.227,7.326,9.981,0.275  c0,0,6.685,6.501,11.629-0.641c0,0,12.091,4.53,11.355-9.731c0,0-2.198-4.005-5.036-3.73c0,0-1.74-9.615-8.791-7.142  c0,0-8.516-4.212-12.362,1.19C460.83,198.272,457.382,198.106,456.389,198.592z"/><path class="st1" d="M462.395,200.646c0,0,4.891-6.325,9.298,0c0,0,6.838-2.806,8.459,4.196c0.101,0.435,0,1.786,0,1.786  s3.022-0.069,4.739,2.335c0,0,1.648,8.104-8.104,7.211c0,0,0.036-0.57-2.974,2.383l1.852-0.873c0,0,7.917,3.022,11.387-4.327  c0,0,1.959-6.387-4.359-9.134c0,0-2.083-9.546-10.382-7.005c0,0-6.444-4.876-11.046,0.893c0,0-2.678,1.292,0.824,2.535"/><path class="st1" d="M454.02,201.805c0,0-5.002-7.52-9.409-0.939c0,0-6.726-1.981-8.348,5.305c-0.101,0.453,0,1.858,0,1.858  s-3.421-0.391-4.229,2.533c-0.807,2.918-0.129,6.035,9.658,6.478c0.88,0.04,5.185,0.973,0.911,3.402c0,0-0.538-0.348-0.739-0.414  c-3.054-1.017-7.005-0.927-11.69-5.391c0,0-0.932-5.626,3.62-7.978c0,0-0.137-7.337,10.31-8.421c0,0,0.61-4.583,13.693,0.98  c0,0,0.031,1.293-3.471,2.586"/><ellipse class="st1" cx="468.287" cy="202.789" rx="11.538" ry="6.288"/><path class="st1" d="M453.524,203.267c-2.015,1.899-4.165,5.453-9.304,5.453s-9.304-2.441-9.304-5.453  c0-1.815,2.792-2.729,5.723-4.033c1.934-0.86,3.635-2.503,5.677-2.503C451.455,196.73,456.079,200.859,453.524,203.267z"/><path d="M486.513,206.083c-0.927-1.055-1.867-1.767-2.96-2.242c-0.2-0.086-0.401-0.162-0.607-0.229  c-0.564-2.941-1.856-5.064-3.85-6.311c-1.912-1.199-3.968-1.531-6.076-0.942c-0.725-0.672-1.567-1.218-2.462-1.595  c-2.402-1.011-5.142-0.754-7.522,0.696c-0.266,0.163-0.522,0.34-0.723,0.502c-0.76,0.533-1.406,1.203-1.893,1.959  c-0.547-0.068-1.1-0.083-1.685-0.047c-0.356,0.022-0.711,0.091-1.069,0.183c-1.679-0.891-3.461-1.122-5.28-0.618  c-0.694-0.638-1.496-1.158-2.346-1.515c-2.303-0.969-4.936-0.725-7.224,0.669c-0.255,0.155-0.499,0.325-0.693,0.48  c-0.724,0.508-1.339,1.145-1.805,1.864c-0.52-0.064-1.039-0.077-1.594-0.043c-1.002,0.061-1.988,0.403-3.103,1.074  c-1.453,0.876-2.538,2.413-3.138,4.448c-0.205,0.696-0.296,1.459-0.27,2.242c-1.261,0.403-2.368,1.195-3.112,2.244  c-1.852,2.614-1.579,6.073,0.635,8.046c1.068,0.952,2.462,1.451,3.98,1.372c0.954,1.484,2.315,2.565,3.803,3.004  c1.287,0.378,2.42,0.45,3.469,0.221c1.19-0.261,2.226-0.786,3.152-1.599c1.374,1.15,3.248,1.805,5.119,1.805  c0.403,0,0.806-0.03,1.204-0.093c1.572-0.247,3.051-0.961,4.279-2.065c0.812,0.786,1.741,1.383,2.74,1.676  c1.34,0.395,2.522,0.471,3.61,0.231c1.251-0.273,2.339-0.827,3.307-1.687c1.434,1.212,3.397,1.902,5.359,1.902  c0.421,0,0.839-0.031,1.253-0.097c1.919-0.3,3.696-1.269,5.069-2.754c2.938,1.219,6.466,0.786,8.812-1.141  c1.803-1.479,2.994-3.512,3.271-5.579C488.472,209.838,487.871,207.63,486.513,206.083z M450.19,219.922  c-1.926,0.297-4-0.348-5.421-1.802c-0.171-0.181-0.476-0.215-0.724-0.206c-0.249,0.005-0.548,0.187-0.711,0.376  c-0.798,0.818-1.663,1.306-2.721,1.539c-0.752,0.163-1.602,0.1-2.597-0.191c-1.208-0.356-2.323-1.327-3.057-2.666  c-0.176-0.321-0.525-0.509-0.895-0.447c-1.183,0.17-2.334-0.153-3.157-0.889c-1.76-1.569-1.504-4.116-0.371-5.716  c0.631-0.89,1.642-1.518,2.774-1.727c0.46-0.085,0.774-0.516,0.713-0.98c-0.106-0.811-0.056-1.605,0.149-2.3  c0.329-1.119,1.007-2.625,2.359-3.438c0.863-0.52,1.595-0.782,2.303-0.825c0.621-0.035,1.189-0.003,1.775,0.113  c0.39,0.078,0.775-0.114,0.953-0.464c0.355-0.695,0.898-1.313,1.611-1.815c0.179-0.141,0.365-0.27,0.559-0.388  c1.801-1.097,3.853-1.298,5.628-0.55c0.795,0.335,1.539,0.852,2.15,1.497c0.239,0.252,0.7,0.305,1.024,0.188  c0.956-0.34,1.914-0.369,2.865-0.152c-1.453,0.923-2.548,2.484-3.157,4.548c-0.216,0.734-0.31,1.54-0.28,2.364  c-1.324,0.416-2.487,1.245-3.265,2.344c-1.926,2.717-1.643,6.314,0.659,8.366c1.116,0.995,2.61,1.491,4.158,1.424  c0.03,0.048,0.069,0.086,0.1,0.133c-0.009,0.008-0.021,0.01-0.03,0.018C452.604,219.157,451.431,219.727,450.19,219.922z   M486.42,211.911c-0.219,1.631-1.183,3.255-2.644,4.454c-1.987,1.628-5.084,1.896-7.527,0.642c-0.365-0.189-0.826-0.096-1.088,0.233  c-1.15,1.437-2.721,2.375-4.421,2.642c-2.045,0.313-4.217-0.367-5.713-1.899c-0.157-0.167-0.429-0.204-0.665-0.204  c-0.021,0-0.043,0-0.062,0.001c-0.251,0.006-0.552,0.191-0.715,0.381c-0.843,0.864-1.756,1.379-2.869,1.623  c-0.792,0.174-1.689,0.108-2.737-0.201c-1.275-0.374-2.451-1.398-3.225-2.809c-0.175-0.321-0.524-0.499-0.895-0.447  c-1.257,0.175-2.468-0.164-3.336-0.938c-1.86-1.659-1.591-4.349-0.394-6.038c0.665-0.939,1.733-1.604,2.928-1.823  c0.46-0.085,0.775-0.516,0.713-0.981c-0.114-0.853-0.059-1.691,0.157-2.422c0.347-1.178,1.06-2.763,2.487-3.624  c0.906-0.546,1.677-0.822,2.428-0.868c0.654-0.044,1.251-0.003,1.867,0.118c0.401,0.077,0.775-0.114,0.953-0.463  c0.376-0.734,0.949-1.386,1.7-1.914c0.187-0.148,0.382-0.284,0.588-0.409c1.897-1.155,4.056-1.367,5.926-0.578  c0.841,0.354,1.625,0.898,2.262,1.575c0.238,0.251,0.702,0.3,1.03,0.188c1.661-0.588,3.385-0.367,4.996,0.643  c1.663,1.043,2.721,2.946,3.142,5.654c0.056,0.354,0.32,0.64,0.67,0.721c0.298,0.07,0.592,0.164,0.878,0.288  c0.856,0.372,1.577,0.924,2.337,1.79C486.214,208.408,486.663,210.109,486.42,211.911z"/><g><path class="st2" d="M0.606,6.429v20.545H3.23V4.748c0,0,0.082-1.476-1.312-1.64c0,0-1.025-0.164-1.066,1.558L0.606,6.429z"/><path class="st2" d="M26.687,6.429v20.545h2.624V4.748c0,0,0.082-1.476-1.312-1.64c0,0-1.025-0.164-1.066,1.558L26.687,6.429z"/><polygon class="st3" points="21.315,6.306 21.315,26.769 23.365,26.974 23.365,6.019 22.34,4.01  "/><polygon class="st3" points="16.517,6.306 16.517,26.769 18.567,26.974 18.567,6.019 17.542,4.01  "/><polygon class="st3" points="11.432,6.101 11.432,26.564 13.482,26.769 13.482,5.814 12.457,3.805  "/><polygon class="st3" points="6.675,6.101 6.675,26.564 8.725,26.769 8.725,5.814 7.7,3.805  "/><rect class="st2" height="2.583" width="2.912" x="3.599" y="8.521"/><rect class="st2" height="2.583" width="2.912" x="8.52" y="8.644"/><rect class="st2" height="2.583" width="2.912" x="13.248" y="8.644"/><rect class="st2" height="2.583" width="2.912" x="18.403" y="8.521"/><rect class="st2" height="2.583" width="2.912" x="23.632" y="8.644"/><rect class="st2" height="2.583" width="2.912" x="23.57" y="21.069"/><rect class="st2" height="2.583" width="2.912" x="18.403" y="21.069"/><rect class="st2" height="2.583" width="2.912" x="13.544" y="21.069"/><rect class="st2" height="2.583" width="2.912" x="8.52" y="21.069"/><rect class="st2" height="2.583" width="2.912" x="3.441" y="21.069"/><path class="st4" d="M3.23,26.769c0,0-1.148,0.123-1.066,0S2.328,3.231,2.328,3.231L3.23,4.379V26.769z"/><path class="st4" d="M29.07,26.781c0,0-1.148,0.123-1.066,0c0.082-0.123,0.164-23.538,0.164-23.538L29.07,4.39V26.781z"/><polygon class="st5" points="23.304,5.527 23.365,26.824 22.709,26.824 22.627,4.912  "/><polygon class="st5" points="18.342,5.527 18.403,26.824 17.747,26.824 17.665,4.912  "/><polygon class="st5" points="13.421,5.527 13.482,26.824 12.826,26.824 12.744,4.912  "/><polygon class="st5" points="8.377,5.342 8.438,26.639 7.782,26.639 7.7,4.727  "/><circle cx="25.134" cy="9.935" r="0.461"/><circle cx="19.941" cy="9.935" r="0.461"/><circle cx="15" cy="9.935" r="0.461"/><circle cx="10.141" cy="9.935" r="0.461"/><circle cx="4.855" cy="9.935" r="0.461"/><circle cx="4.896" cy="22.361" r="0.461"/><circle cx="10.134" cy="22.361" r="0.461"/><circle cx="15.021" cy="22.361" r="0.461"/><circle cx="20.004" cy="22.361" r="0.461"/><circle cx="25.088" cy="22.361" r="0.461"/><rect class="st4" height="0.673" width="2.994" x="3.339" y="21.184"/><rect class="st4" height="0.673" width="2.994" x="8.474" y="21.184"/><rect class="st4" height="0.673" width="2.994" x="13.497" y="21.184"/><rect class="st4" height="0.673" width="2.994" x="18.439" y="21.098"/><rect class="st4" height="0.673" width="2.994" x="23.585" y="21.098"/><path d="M28.005,2.673c-0.906,0-1.644,0.865-1.644,1.927l-0.003,3.609h-2.449V5.865c0-0.008-0.004-0.015-0.005-0.023   c-0.001-0.025-0.009-0.049-0.015-0.074c-0.007-0.026-0.013-0.052-0.025-0.076c-0.003-0.007-0.003-0.015-0.007-0.022L22.77,3.763   c-0.14-0.245-0.544-0.246-0.684,0L21,5.671c-0.004,0.007-0.003,0.014-0.007,0.021c-0.012,0.024-0.018,0.05-0.025,0.077   c-0.006,0.025-0.013,0.048-0.015,0.073c0,0.008-0.005,0.015-0.005,0.023v2.344h-1.949V5.865c0-0.008-0.004-0.015-0.005-0.023   c-0.001-0.025-0.009-0.049-0.015-0.074c-0.007-0.026-0.013-0.052-0.025-0.076c-0.003-0.007-0.003-0.015-0.007-0.022L17.86,3.763   c-0.14-0.245-0.544-0.245-0.684,0L16.088,5.67c-0.004,0.007-0.004,0.015-0.007,0.022c-0.012,0.024-0.018,0.049-0.025,0.076   c-0.006,0.025-0.014,0.049-0.015,0.074c-0.001,0.008-0.005,0.015-0.005,0.023v2.344h-2.031V5.865c0-0.008-0.004-0.014-0.004-0.021   c-0.001-0.027-0.009-0.053-0.016-0.08c-0.007-0.025-0.012-0.049-0.023-0.071c-0.004-0.007-0.003-0.015-0.008-0.023l-1.087-1.907   c-0.07-0.123-0.201-0.198-0.342-0.198s-0.272,0.076-0.342,0.198L11.096,5.67c-0.004,0.007-0.004,0.015-0.008,0.023   c-0.011,0.022-0.017,0.046-0.023,0.071c-0.007,0.027-0.015,0.053-0.016,0.08c0,0.007-0.004,0.014-0.004,0.021v2.344H9.033V5.865   c0-0.008-0.004-0.014-0.004-0.021C9.027,5.817,9.02,5.791,9.012,5.764C9.006,5.74,9,5.715,8.989,5.693   C8.985,5.686,8.986,5.677,8.981,5.67L7.895,3.763c-0.14-0.245-0.544-0.245-0.684,0L6.124,5.67C6.12,5.677,6.12,5.686,6.117,5.693   C6.105,5.715,6.1,5.74,6.093,5.764c-0.007,0.027-0.015,0.053-0.016,0.08c0,0.007-0.004,0.014-0.004,0.021v2.344H3.638V4.644   c0-1.087-0.738-1.971-1.644-1.971c-0.907,0-1.644,0.884-1.644,1.971v22.289c0,0.217,0.176,0.394,0.394,0.394h2.501   c0.217,0,0.394-0.177,0.394-0.394v-2.846h2.435v2.846c0,0.217,0.176,0.394,0.394,0.394h2.173c0.217,0,0.394-0.177,0.394-0.394   v-2.846h2.012v2.846c0,0.217,0.176,0.394,0.394,0.394h2.174c0.217,0,0.394-0.177,0.394-0.394v-2.846h2.031v2.846   c0,0.217,0.177,0.394,0.394,0.394h2.174c0.217,0,0.394-0.177,0.394-0.394v-2.846h1.949v2.846c0,0.217,0.177,0.394,0.394,0.394   h2.173c0.217,0,0.394-0.177,0.394-0.394v-2.846h2.436l-0.002,2.846c0,0.104,0.041,0.205,0.115,0.279   c0.074,0.073,0.174,0.115,0.279,0.115h2.502c0.217,0,0.393-0.177,0.394-0.394L29.651,4.6C29.651,3.537,28.913,2.673,28.005,2.673z    M23.909,11.662h2.446l-0.007,8.972h-2.439V11.662z M26.357,8.996l-0.002,1.879h-2.447V8.996H26.357z M18.999,11.662h1.949v8.972   h-1.949V11.662z M20.948,8.996v1.879h-1.949V8.996H20.948z M14.005,11.662h2.031v8.972h-2.031V11.662z M16.037,8.996v1.879h-2.031   V8.996H16.037z M9.033,11.662h2.012v8.972H9.033V11.662z M11.045,8.996v1.879H9.033V8.996H11.045z M3.638,11.662h2.435v8.972H3.638   V11.662z M6.073,8.996v1.879H3.638V8.996H6.073z M1.136,26.539V4.644c0-0.642,0.393-1.184,0.857-1.184   c0.464,0,0.857,0.542,0.857,1.184V8.6c0,0.001,0,0.002,0,0.002s0,0.002,0,0.002v2.661c0,0.001,0,0.002,0,0.002s0,0.002,0,0.002   v9.755c0,0.001,0,0.002,0,0.002s0,0.002,0,0.002v5.509H1.136z M3.638,23.299v-1.877h2.435v1.877H3.638z M6.86,26.539V5.97   l0.693-1.216L8.246,5.97v17.721c0,0.001,0,0.002,0,0.002s0,0.002,0,0.002v2.843H6.86z M9.033,23.299v-1.877h2.012v1.877H9.033z    M13.218,26.539h-1.386V8.605c0-0.001,0-0.002,0-0.002s0-0.002,0-0.002V5.97l0.693-1.217l0.693,1.217V8.6c0,0.001,0,0.002,0,0.002   s0,0.002,0,0.002v2.661c0,0.001,0,0.002,0,0.002s0,0.002,0,0.002V26.539z M14.005,23.299v-1.877h2.031v1.877H14.005z    M16.825,26.539v-5.506c0-0.002,0.001-0.003,0.001-0.005s-0.001-0.003-0.001-0.005V5.969l0.693-1.216l0.693,1.216v17.719   c0,0.002-0.001,0.003-0.001,0.005c0,0.002,0.001,0.003,0.001,0.005v2.841H16.825z M18.999,23.299v-1.877h1.949v1.877H18.999z    M23.121,26.539h-1.385V5.969l0.692-1.215l0.693,1.216V26.539z M23.909,23.299v-1.877h2.438l-0.002,1.877H23.909z M28.845,26.539   h-1.715l0.002-2.839c0-0.003,0.002-0.005,0.002-0.007c0-0.003-0.001-0.005-0.001-0.007l0.013-15.081c0,0,0-0.001,0-0.002   s0-0.001,0-0.002l0.003-4c0-0.618,0.392-1.14,0.856-1.14c0.465,0,0.857,0.522,0.857,1.14L28.845,26.539z"/></g></svg>